<?xml version="1.0" encoding="utf-8"?>
<!-- Generator: Adobe Illustrator 17.0.2, SVG Export Plug-In . SVG Version: 6.00 Build 0)  -->
<!DOCTYPE svg PUBLIC "-//W3C//DTD SVG 1.1//EN" "http://www.w3.org/Graphics/SVG/1.1/DTD/svg11.dtd">
<svg version="1.1" id="Layer_1" xmlns="http://www.w3.org/2000/svg" xmlns:xlink="http://www.w3.org/1999/xlink" x="0px" y="0px"
	 width="20px" height="20px" viewBox="0 0 20 20" enable-background="new 0 0 20 20" xml:space="preserve">
<g id="Layer_1_1_">
</g>
<g id="Layer_1_2_">
</g>
<g id="_x39_IpttS_1_">
	<g>
		<path fill="#D9261F" d="M25.689-0.804c0.038,0,0.077,0,0.115,0c0.005,0.055,0.041,0.101,0.041,0.16
			c0.004,0.589,0.01,1.179,0.015,1.768c0,0.032,0.01,0.068-0.017,0.096c-0.13,0.015-0.259,0.027-0.39,0.027
			c-9.399-0.001-6.798-0.001-16.198-0.002c-0.123,0-0.249,0.026-0.37-0.018C8.883,0.57,8.881-0.088,8.878-0.745
			c0.178-0.001,0.356-0.002,0.534-0.002c9.287,0,6.573,0,15.86,0c0.111,0,0.221,0.003,0.332-0.001
			C25.638-0.749,25.699-0.728,25.689-0.804z"/>
		<path fill="#311E20" d="M25.689-0.804c0.01,0.076-0.051,0.055-0.086,0.056c-0.11,0.004-0.221,0.001-0.332,0.001
			c-9.287,0-6.573,0-15.86,0c-0.178,0-0.356,0.001-0.534,0.002C8.801-0.747,8.724-0.75,8.647-0.75c-5.017,0-10.034,0-15.051,0
			c-0.577,0-1.154,0.003-1.732-0.002c-0.108-0.001-0.151,0.031-0.134,0.139c0.005,0.033,0,0.067,0,0.101c0,2.53-0.001,5.06,0,7.59
			c0,1.645,0.002,3.29,0.003,4.935c-0.002,0.51-0.004,1.02-0.004,1.53c0,0.283,0.001,0.283,0.28,0.283c15.081,0,18.162,0,33.244,0
			c0.13,0,0.26-0.006,0.39,0.002c0.092,0.005,0.113-0.031,0.112-0.116c-0.006-0.567-0.007-1.135-0.01-1.702
			c-0.001-0.609-0.002-1.217-0.004-1.826c0-0.604,0.001-1.208,0.001-1.811c0.002-0.564,0.003-1.127,0.006-1.691
			c0-0.056-0.002-0.106-0.071-0.119c0.054-0.001,0.072-0.029,0.071-0.083c-0.004-0.562-0.007-1.123-0.01-1.685
			c0.011-0.603,0.015-1.206-0.002-1.809c0.004-0.052,0.011-0.105,0.011-0.157c0.001-0.442,0.001-0.885,0.001-1.327
			c0-0.279,0-0.279-0.275-0.279c-9.411,0-6.823,0-16.234,0c-0.12,0-0.24,0.005-0.36,0.008l0.006-0.002
			c0.121,0.044,0.247,0.018,0.37,0.018c9.399,0.002,6.798,0.001,16.198,0.002c0.132,0,0.261-0.013,0.39-0.027
			c-0.089,0.031-0.045,0.107-0.045,0.16c-0.003,2.405-0.002,4.809-0.002,7.214c0,2.23-0.012,4.461,0.03,6.691
			c0.003,0.183-0.031,0.362-0.03,0.544c0.005,0.643,0.003,1.286,0.022,1.929c0.016,0.551,0,1.103-0.014,1.655
			c-0.027,1.029-0.008,2.058-0.009,3.088c0,0.25,0,0.25-0.245,0.25c-15.292,0-18.583,0-33.875,0c0-7.807,0-15.613-0.003-23.42
			c0-0.122,0.031-0.138,0.143-0.138C7.107-0.804,10.398-0.804,25.689-0.804z M-8.207,22.699c0.101,0.001,0.202,0.003,0.303,0.003
			c15.1,0,18.2,0.001,33.299,0.001c0.077,0,0.156-0.005,0.229,0.013c0.106,0.026,0.122-0.016,0.122-0.109
			c-0.003-0.476,0-0.952,0-1.429c0-0.047,0.011-0.099-0.047-0.125c0.066-0.01,0.048-0.063,0.048-0.102
			c0-0.556-0.001-1.113-0.003-1.669c0-0.613,0.001-1.226,0.001-1.839c0-0.599-0.001-1.198-0.001-1.796
			c0.001-0.524,0.003-1.048,0.003-1.573c0-0.328,0.036-0.284-0.282-0.284C10.385,13.79,7.305,13.79-7.775,13.79
			c-0.125,0-0.25,0.003-0.375,0c-0.083-0.002-0.123,0.025-0.122,0.115c0.006,0.563,0.009,1.125,0.012,1.688
			c-0.022,0.621-0.008,1.242-0.007,1.862c0,0.605,0,1.211-0.001,1.816c0.001,0.659,0.002,1.318,0.003,1.978
			c-0.002,0.465-0.004,0.93-0.005,1.395C-8.27,22.68-8.287,22.75-8.207,22.699z"/>
		<path fill="#FDFBFB" d="M-8.324,22.751c15.292,0,18.583,0,33.875,0c0.245,0,0.245,0,0.245-0.25c0-1.029-0.018-2.059,0.009-3.088
			c0.014-0.552,0.03-1.104,0.014-1.655c-0.018-0.643-0.017-1.286-0.022-1.929c-0.001-0.182,0.033-0.361,0.03-0.544
			c-0.042-2.23-0.029-4.461-0.03-6.691c0-2.405,0-4.809,0.002-7.214c0-0.053-0.043-0.128,0.045-0.16
			c0.027-0.028,0.017-0.064,0.017-0.096c-0.005-0.589-0.012-1.179-0.015-1.768c0-0.059-0.036-0.105-0.041-0.16
			c0.048,0.001,0.112-0.018,0.087,0.072c-0.005,0.018-0.001,0.038-0.001,0.058c0,7.773,0,15.546,0.003,23.319
			c0,0.122-0.031,0.138-0.143,0.138c-15.315-0.003-18.631-0.003-33.946-0.005C-8.236,22.778-8.292,22.811-8.324,22.751z"/>
		<path fill="#0255AB" d="M8.886,1.227c0,0-0.006,0.002-0.006,0.002c-0.002,0.273-0.007,0.547-0.004,0.82
			C8.879,2.36,8.86,2.671,8.886,2.982C8.868,3.587,8.875,4.192,8.884,4.796c-0.003,0.077-0.009,0.153-0.009,0.23
			c0.002,0.51,0.006,1.019,0.009,1.529C8.883,7.16,8.883,7.765,8.882,8.37C8.869,8.974,8.87,9.578,8.881,10.182
			c-0.002,0.607-0.004,1.214-0.006,1.821c-0.043,0.003-0.086,0.008-0.129,0.008c-2.54,0-5.079,0-7.619,0
			c-3.131,0-6.262,0.001-9.394,0.001c-0.001-1.645-0.003-3.29-0.003-4.935c0-2.53,0-5.06,0-7.59c0-0.034,0.005-0.068,0-0.101
			c-0.017-0.108,0.026-0.14,0.134-0.139C-7.558-0.747-6.981-0.75-6.404-0.75c5.017,0,10.034,0,15.051,0
			c0.077,0,0.154,0.003,0.231,0.005C8.881-0.088,8.883,0.57,8.886,1.227z M-0.181,2.859c0.002,0.003,0.004,0.006,0.006,0.009
			c-0.003-0.002-0.006-0.004-0.009-0.006c-0.026-0.162-0.098-0.31-0.157-0.46C-0.38,2.3-0.378,2.243-0.279,2.178
			c0.141-0.09,0.267-0.203,0.426-0.327c-0.203,0-0.367-0.008-0.53,0.003C-0.491,1.861-0.534,1.818-0.56,1.721
			C-0.603,1.559-0.656,1.399-0.716,1.2c-0.07,0.208-0.134,0.374-0.179,0.544c-0.025,0.094-0.068,0.122-0.16,0.118
			c-0.154-0.006-0.308-0.002-0.461-0.002c0.12,0.126,0.242,0.226,0.372,0.313c0.091,0.061,0.116,0.12,0.07,0.226
			c-0.062,0.143-0.104,0.295-0.168,0.481c0.169-0.118,0.31-0.207,0.439-0.31c0.082-0.065,0.137-0.049,0.211,0.008
			C-0.46,2.68-0.339,2.796-0.181,2.859z M7.352,2.859C7.355,2.864,7.358,2.869,7.36,2.873c0-0.002,0.001-0.006-0.001-0.007
			C7.357,2.864,7.353,2.863,7.35,2.861C7.32,2.691,7.244,2.535,7.183,2.376C7.15,2.29,7.164,2.242,7.243,2.189
			c0.143-0.097,0.275-0.209,0.441-0.338c-0.213,0-0.385-0.005-0.556,0.002C7.046,1.856,7.008,1.831,6.986,1.752
			C6.939,1.577,6.881,1.406,6.818,1.202C6.759,1.378,6.694,1.519,6.665,1.667C6.632,1.834,6.548,1.883,6.388,1.863
			C6.267,1.849,6.143,1.86,6.02,1.86c0.124,0.13,0.255,0.238,0.394,0.334c0.074,0.051,0.086,0.1,0.054,0.181
			c-0.06,0.154-0.11,0.312-0.176,0.506c0.166-0.115,0.304-0.2,0.429-0.301c0.09-0.073,0.15-0.059,0.233,0.008
			C7.079,2.689,7.201,2.797,7.352,2.859z M-6.761,8.277C-6.84,8.066-6.9,7.895-6.967,7.727c-0.028-0.07-0.014-0.113,0.047-0.157
			c0.146-0.105,0.288-0.216,0.466-0.352c-0.18,0-0.317,0-0.454,0C-7.129,7.219-7.128,7.22-7.194,7.003
			c-0.04-0.134-0.082-0.267-0.133-0.436C-7.396,6.773-7.461,6.939-7.505,7.11c-0.026,0.101-0.075,0.127-0.171,0.123
			C-7.827,7.225-7.978,7.23-8.129,7.23c0.113,0.12,0.23,0.217,0.356,0.3c0.106,0.069,0.134,0.14,0.081,0.26
			c-0.061,0.137-0.101,0.283-0.163,0.463c0.17-0.119,0.31-0.204,0.435-0.307c0.086-0.071,0.144-0.055,0.222,0.008
			C-7.068,8.058-6.931,8.152-6.761,8.277z M-4.898,8.246C-4.89,8.24-4.882,8.235-4.874,8.229c-0.059-0.16-0.115-0.322-0.179-0.48
			c-0.034-0.083-0.027-0.135,0.055-0.19c0.144-0.097,0.277-0.21,0.446-0.34c-0.185,0-0.33-0.013-0.471,0.003
			c-0.162,0.019-0.231-0.044-0.262-0.197c-0.029-0.144-0.083-0.284-0.137-0.459c-0.069,0.205-0.135,0.375-0.181,0.55
			c-0.025,0.097-0.073,0.118-0.162,0.115C-5.917,7.226-6.071,7.23-6.225,7.23c0.117,0.123,0.235,0.221,0.363,0.304
			c0.101,0.066,0.129,0.134,0.078,0.249c-0.061,0.139-0.102,0.286-0.166,0.47c0.172-0.12,0.312-0.208,0.442-0.311
			c0.081-0.064,0.136-0.053,0.21,0.007C-5.169,8.054-5.032,8.148-4.898,8.246z M-2.965,8.246C-2.958,8.238-2.95,8.23-2.943,8.222
			c-0.054-0.148-0.102-0.299-0.164-0.444C-3.151,7.676-3.15,7.611-3.043,7.543c0.139-0.088,0.263-0.199,0.425-0.324
			c-0.207,0-0.374-0.008-0.539,0.003c-0.103,0.007-0.145-0.033-0.17-0.125c-0.045-0.165-0.099-0.328-0.161-0.531
			c-0.071,0.215-0.134,0.386-0.184,0.56c-0.023,0.079-0.058,0.108-0.14,0.105c-0.16-0.006-0.32-0.002-0.523-0.002
			c0.166,0.127,0.291,0.232,0.426,0.321c0.091,0.06,0.103,0.118,0.064,0.215c-0.06,0.146-0.104,0.299-0.168,0.487
			C-3.834,8.128-3.69,8.033-3.553,7.93c0.061-0.046,0.103-0.045,0.162,0.001C-3.251,8.039-3.107,8.141-2.965,8.246z M-2.08,8.252
			c0.175-0.122,0.32-0.215,0.457-0.32c0.067-0.052,0.112-0.045,0.174,0.004c0.138,0.109,0.283,0.21,0.459,0.341
			c-0.074-0.201-0.127-0.363-0.193-0.521c-0.038-0.091-0.026-0.143,0.058-0.2c0.142-0.096,0.274-0.209,0.438-0.336
			c-0.206,0-0.37-0.009-0.532,0.003c-0.11,0.008-0.152-0.038-0.178-0.134C-1.44,6.925-1.493,6.764-1.553,6.566
			c-0.071,0.211-0.135,0.381-0.183,0.556c-0.024,0.089-0.066,0.112-0.151,0.109C-2.043,7.226-2.199,7.23-2.399,7.23
			c0.167,0.128,0.294,0.235,0.431,0.327C-1.881,7.615-1.873,7.67-1.91,7.761C-1.97,7.91-2.016,8.064-2.08,8.252z M-0.191,8.21
			c0.008,0.006,0.017,0.011,0.025,0.017c0.141-0.098,0.286-0.193,0.423-0.297C0.319,7.883,0.361,7.885,0.42,7.931
			c0.142,0.11,0.288,0.214,0.466,0.344c-0.07-0.193-0.12-0.348-0.183-0.497C0.66,7.676,0.661,7.611,0.767,7.544
			C0.906,7.456,1.03,7.345,1.192,7.219c-0.207,0-0.373-0.008-0.539,0.003C0.551,7.229,0.508,7.19,0.483,7.097
			C0.439,6.932,0.384,6.769,0.322,6.566c-0.071,0.215-0.134,0.386-0.184,0.56c-0.023,0.079-0.057,0.108-0.14,0.105
			c-0.16-0.006-0.32-0.002-0.479-0.002C-0.35,7.363-0.216,7.47-0.076,7.569c0.069,0.048,0.079,0.095,0.05,0.17
			C-0.085,7.894-0.136,8.053-0.191,8.21z M1.714,8.21C1.723,8.215,1.731,8.221,1.74,8.226c0.13-0.09,0.265-0.173,0.388-0.272
			c0.086-0.07,0.147-0.072,0.233,0.001c0.123,0.105,0.261,0.194,0.392,0.289C2.719,8.074,2.671,7.923,2.609,7.779
			C2.565,7.676,2.566,7.611,2.672,7.543c0.139-0.088,0.263-0.199,0.425-0.324c-0.207,0-0.374-0.008-0.539,0.003
			C2.455,7.229,2.414,7.19,2.388,7.097C2.344,6.932,2.289,6.769,2.227,6.566c-0.071,0.215-0.134,0.386-0.184,0.56
			c-0.023,0.08-0.058,0.108-0.14,0.105c-0.16-0.006-0.32-0.002-0.479-0.002C1.555,7.363,1.689,7.47,1.83,7.569
			c0.068,0.048,0.079,0.095,0.05,0.17C1.82,7.894,1.769,8.053,1.714,8.21z M4.976,7.219c-0.209,0-0.376-0.008-0.542,0.003
			C4.33,7.229,4.289,7.189,4.264,7.097C4.22,6.931,4.166,6.768,4.104,6.566C4.032,6.781,3.969,6.952,3.92,7.127
			c-0.023,0.081-0.059,0.107-0.14,0.104C3.62,7.225,3.46,7.229,3.301,7.229c0.124,0.128,0.248,0.233,0.383,0.322
			c0.092,0.06,0.101,0.119,0.062,0.215C3.687,7.913,3.643,8.065,3.579,8.252c0.18-0.125,0.324-0.219,0.461-0.323
			c0.062-0.047,0.104-0.042,0.162,0.003c0.139,0.108,0.283,0.21,0.425,0.315C4.595,8.075,4.544,7.916,4.48,7.764
			C4.44,7.67,4.445,7.613,4.538,7.552C4.678,7.46,4.806,7.35,4.976,7.219z M6.546,8.276C6.469,8.069,6.412,7.903,6.345,7.74
			C6.311,7.658,6.329,7.612,6.401,7.562c0.143-0.1,0.279-0.211,0.451-0.343c-0.207,0-0.374-0.007-0.539,0.003
			C6.211,7.228,6.167,7.193,6.142,7.099C6.097,6.932,6.042,6.768,5.98,6.566C5.912,6.77,5.848,6.931,5.807,7.097
			C5.779,7.212,5.721,7.238,5.615,7.233C5.47,7.225,5.324,7.231,5.178,7.231C5.295,7.353,5.417,7.453,5.547,7.54
			C5.642,7.604,5.669,7.667,5.62,7.778C5.559,7.919,5.517,8.069,5.453,8.254c0.171-0.119,0.31-0.204,0.435-0.307
			c0.087-0.071,0.144-0.054,0.222,0.008C6.24,8.058,6.377,8.152,6.546,8.276z M7.887,6.563C7.816,6.776,7.751,6.947,7.703,7.122
			C7.679,7.21,7.638,7.235,7.552,7.231C7.397,7.225,7.241,7.23,7.04,7.23c0.167,0.128,0.294,0.235,0.432,0.327
			C7.558,7.615,7.566,7.67,7.529,7.761C7.469,7.91,7.424,8.064,7.36,8.252c0.175-0.122,0.32-0.215,0.456-0.32
			C7.884,7.88,7.928,7.887,7.991,7.936c0.139,0.109,0.283,0.211,0.46,0.341c-0.073-0.2-0.126-0.363-0.193-0.52
			c-0.038-0.09-0.029-0.143,0.057-0.201c0.143-0.097,0.275-0.209,0.439-0.337c-0.206,0-0.37-0.008-0.532,0.003
			C8.112,7.229,8.069,7.186,8.043,7.088C8.001,6.927,7.948,6.768,7.887,6.563z M7.359,1.181c0.175-0.122,0.32-0.215,0.456-0.32
			C7.882,0.81,7.926,0.813,7.99,0.863c0.139,0.11,0.283,0.211,0.46,0.342c-0.073-0.2-0.126-0.362-0.192-0.52
			c-0.038-0.09-0.03-0.143,0.056-0.201c0.143-0.096,0.275-0.209,0.439-0.337c-0.21,0-0.379-0.007-0.546,0.003
			C8.11,0.155,8.072,0.116,8.048,0.03C8.002-0.138,7.948-0.304,7.885-0.508c-0.071,0.216-0.133,0.392-0.186,0.57
			C7.678,0.136,7.643,0.161,7.567,0.159C7.407,0.153,7.246,0.157,7.039,0.157c0.171,0.131,0.303,0.239,0.443,0.336
			c0.075,0.052,0.084,0.101,0.052,0.181C7.475,0.828,7.425,0.987,7.359,1.181z M-6.49,10.538c-0.003-0.009-0.006-0.019-0.009-0.028
			c-0.138,0-0.279-0.016-0.414,0.004c-0.178,0.026-0.245-0.055-0.28-0.211c-0.031-0.139-0.081-0.274-0.133-0.446
			c-0.069,0.206-0.135,0.376-0.181,0.55c-0.025,0.096-0.072,0.119-0.161,0.116c-0.154-0.005-0.308-0.002-0.461-0.002
			c0.113,0.12,0.227,0.216,0.351,0.296c0.111,0.071,0.144,0.144,0.086,0.271c-0.061,0.133-0.099,0.276-0.161,0.457
			c0.172-0.119,0.312-0.208,0.441-0.31c0.081-0.064,0.135-0.054,0.21,0.006c0.131,0.106,0.271,0.201,0.407,0.3
			c-0.042-0.184-0.101-0.351-0.167-0.515c-0.03-0.074-0.018-0.12,0.049-0.168C-6.77,10.756-6.631,10.645-6.49,10.538z M-4.894,11.54
			c0.007-0.006,0.014-0.012,0.021-0.019c-0.06-0.161-0.116-0.324-0.181-0.483c-0.034-0.084-0.024-0.135,0.057-0.189
			c0.144-0.097,0.276-0.21,0.444-0.34c-0.214,0-0.386-0.004-0.558,0.002c-0.081,0.003-0.12-0.021-0.142-0.101
			c-0.048-0.175-0.106-0.347-0.169-0.551c-0.067,0.199-0.134,0.364-0.177,0.535c-0.027,0.109-0.081,0.133-0.181,0.129
			c-0.148-0.007-0.297-0.002-0.445-0.002c0.122,0.126,0.244,0.226,0.374,0.314c0.09,0.061,0.116,0.12,0.07,0.226
			c-0.062,0.143-0.104,0.295-0.169,0.482c0.167-0.115,0.305-0.2,0.43-0.301c0.089-0.071,0.149-0.064,0.233,0.007
			C-5.162,11.354-5.025,11.444-4.894,11.54z M-3.487,9.857c-0.069,0.205-0.135,0.375-0.181,0.549
			c-0.025,0.096-0.071,0.12-0.161,0.116c-0.154-0.005-0.308-0.002-0.462-0.002c0.109,0.116,0.219,0.209,0.34,0.286
			c0.119,0.076,0.158,0.155,0.092,0.293c-0.061,0.128-0.095,0.269-0.153,0.443c0.177-0.123,0.319-0.214,0.45-0.317
			c0.073-0.058,0.121-0.045,0.187,0.005c0.137,0.107,0.279,0.207,0.419,0.309c-0.041-0.179-0.097-0.342-0.161-0.501
			c-0.034-0.083-0.027-0.135,0.055-0.19c0.144-0.097,0.277-0.21,0.446-0.34c-0.204,0-0.366-0.009-0.528,0.003
			c-0.116,0.009-0.159-0.04-0.186-0.142C-3.375,10.21-3.428,10.051-3.487,9.857z M-2.067,11.502c0.009,0.005,0.018,0.01,0.026,0.015
			c0.137-0.096,0.279-0.186,0.411-0.29c0.072-0.057,0.12-0.048,0.186,0.004c0.137,0.107,0.279,0.207,0.419,0.31
			c-0.04-0.179-0.096-0.341-0.161-0.5c-0.034-0.083-0.029-0.135,0.054-0.19c0.144-0.097,0.278-0.21,0.447-0.341
			c-0.208,0-0.376-0.008-0.542,0.003c-0.105,0.007-0.144-0.036-0.168-0.127c-0.045-0.166-0.098-0.329-0.159-0.53
			c-0.071,0.211-0.135,0.385-0.185,0.563c-0.023,0.081-0.061,0.106-0.141,0.103c-0.159-0.006-0.318-0.002-0.478-0.002
			c0.128,0.131,0.257,0.238,0.395,0.332c0.08,0.055,0.089,0.106,0.055,0.193C-1.968,11.194-2.014,11.349-2.067,11.502z
			 M-0.205,11.545c0.172-0.12,0.313-0.208,0.442-0.311c0.081-0.065,0.136-0.053,0.21,0.007c0.131,0.105,0.271,0.2,0.406,0.3
			c-0.041-0.18-0.097-0.342-0.162-0.501c-0.034-0.084-0.025-0.134,0.056-0.189c0.144-0.097,0.277-0.21,0.445-0.34
			c-0.18,0-0.321-0.016-0.456,0.004c-0.178,0.026-0.245-0.055-0.28-0.212c-0.031-0.139-0.081-0.274-0.133-0.445
			c-0.069,0.206-0.135,0.376-0.181,0.551c-0.025,0.097-0.074,0.118-0.162,0.115c-0.153-0.005-0.307-0.001-0.461-0.001
			c0.118,0.123,0.235,0.221,0.363,0.305c0.101,0.066,0.128,0.134,0.078,0.249C-0.1,11.213-0.141,11.36-0.205,11.545z M1.715,11.5
			c0.008,0.006,0.015,0.012,0.023,0.018c0.13-0.09,0.269-0.169,0.387-0.272c0.097-0.085,0.16-0.058,0.245,0.01
			c0.125,0.101,0.259,0.191,0.423,0.311c-0.076-0.205-0.133-0.372-0.201-0.535c-0.034-0.082-0.016-0.128,0.055-0.178
			c0.143-0.1,0.279-0.211,0.452-0.344c-0.208,0-0.374-0.007-0.539,0.003c-0.101,0.006-0.146-0.028-0.171-0.123
			c-0.045-0.167-0.099-0.331-0.161-0.533c-0.068,0.204-0.134,0.364-0.173,0.531c-0.028,0.117-0.088,0.139-0.192,0.135
			c-0.145-0.006-0.291-0.002-0.479-0.002c0.168,0.128,0.296,0.234,0.433,0.328c0.078,0.053,0.095,0.103,0.059,0.191
			C1.815,11.191,1.768,11.347,1.715,11.5z M4.975,10.51c-0.218,0-0.391-0.005-0.563,0.002c-0.085,0.004-0.118-0.029-0.139-0.105
			c-0.049-0.173-0.105-0.344-0.169-0.551c-0.071,0.214-0.133,0.389-0.186,0.568c-0.022,0.073-0.056,0.099-0.132,0.097
			c-0.161-0.005-0.322-0.002-0.528-0.002c0.171,0.131,0.303,0.239,0.442,0.335c0.075,0.052,0.084,0.1,0.052,0.181
			c-0.06,0.154-0.109,0.313-0.176,0.507c0.175-0.122,0.32-0.215,0.456-0.32c0.066-0.051,0.111-0.048,0.174,0.002
			c0.139,0.11,0.284,0.211,0.46,0.341c-0.073-0.199-0.126-0.362-0.192-0.519c-0.038-0.09-0.031-0.143,0.056-0.201
			C4.674,10.752,4.805,10.641,4.975,10.51z M6.545,11.567c-0.073-0.2-0.127-0.363-0.193-0.521c-0.039-0.091-0.026-0.143,0.058-0.201
			c0.142-0.097,0.274-0.209,0.438-0.336c-0.201,0-0.36-0.01-0.518,0.003c-0.123,0.01-0.168-0.038-0.195-0.149
			C6.095,10.205,6.039,10.05,5.98,9.859c-0.07,0.209-0.134,0.379-0.182,0.554c-0.024,0.089-0.067,0.112-0.151,0.109
			c-0.156-0.006-0.312-0.002-0.467-0.002c0.108,0.117,0.22,0.212,0.343,0.291c0.115,0.074,0.152,0.15,0.089,0.282
			c-0.062,0.131-0.098,0.275-0.158,0.45c0.173-0.12,0.314-0.211,0.446-0.314c0.075-0.059,0.127-0.052,0.198,0.005
			C6.231,11.343,6.373,11.44,6.545,11.567z M7.886,9.857c-0.069,0.205-0.135,0.375-0.181,0.549c-0.025,0.096-0.071,0.12-0.161,0.116
			c-0.154-0.006-0.308-0.002-0.462-0.002c0.113,0.12,0.227,0.216,0.351,0.295c0.111,0.071,0.145,0.144,0.086,0.271
			c-0.062,0.133-0.099,0.277-0.161,0.456c0.175-0.122,0.319-0.213,0.453-0.318c0.073-0.057,0.121-0.045,0.186,0.006
			c0.137,0.107,0.279,0.207,0.419,0.309c-0.041-0.179-0.097-0.342-0.161-0.501c-0.034-0.083-0.027-0.135,0.055-0.19
			c0.144-0.097,0.277-0.21,0.446-0.34c-0.204,0-0.367-0.009-0.528,0.003c-0.116,0.009-0.159-0.041-0.186-0.142
			C7.999,10.21,7.946,10.051,7.886,9.857z M6.817,0.174c-0.003-0.009-0.007-0.018-0.01-0.028c-0.172,0-0.344-0.005-0.516,0.002
			C6.209,0.152,6.171,0.126,6.15,0.047C6.102-0.128,6.044-0.299,5.98-0.506C5.915-0.309,5.85-0.148,5.81,0.019
			C5.781,0.138,5.72,0.168,5.608,0.161c-0.143-0.009-0.287-0.002-0.43-0.002c0.126,0.129,0.251,0.233,0.385,0.324
			C5.646,0.539,5.665,0.59,5.625,0.685C5.564,0.833,5.519,0.989,5.454,1.179c0.166-0.115,0.304-0.2,0.429-0.301
			c0.089-0.072,0.15-0.062,0.233,0.008c0.125,0.104,0.262,0.194,0.394,0.29C6.468,0.992,6.409,0.825,6.343,0.661
			c-0.03-0.075-0.015-0.12,0.051-0.167C6.539,0.392,6.677,0.282,6.817,0.174z M4.976,0.147c-0.21,0-0.374-0.008-0.537,0.003
			C4.33,0.157,4.287,0.113,4.262,0.016C4.218-0.148,4.165-0.308,4.105-0.507C4.034-0.296,3.97-0.125,3.922,0.05
			C3.897,0.138,3.856,0.162,3.77,0.159C3.615,0.153,3.459,0.157,3.303,0.157c0.108,0.117,0.22,0.212,0.343,0.291
			c0.115,0.074,0.151,0.15,0.089,0.282c-0.062,0.131-0.098,0.275-0.158,0.45C3.75,1.061,3.892,0.97,4.023,0.867
			c0.075-0.059,0.128-0.051,0.198,0.005C4.355,0.98,4.496,1.077,4.67,1.205C4.594,0.999,4.536,0.833,4.47,0.67
			c-0.033-0.08-0.021-0.128,0.052-0.179C4.666,0.391,4.802,0.28,4.976,0.147z M2.242-0.464C2.233-0.466,2.224-0.467,2.215-0.469
			C2.156-0.292,2.094-0.116,2.042,0.063C2.02,0.137,1.984,0.161,1.909,0.159C1.749,0.154,1.588,0.157,1.382,0.157
			C1.55,0.286,1.676,0.393,1.814,0.485C1.9,0.542,1.908,0.597,1.871,0.688C1.811,0.837,1.766,0.992,1.702,1.18
			c0.175-0.121,0.32-0.215,0.456-0.319C2.225,0.809,2.27,0.814,2.332,0.863c0.139,0.109,0.283,0.211,0.459,0.34
			C2.721,1.009,2.672,0.85,2.605,0.698C2.561,0.597,2.57,0.539,2.668,0.475c0.14-0.092,0.267-0.203,0.427-0.328
			c-0.205,0-0.369-0.008-0.532,0.003C2.454,0.157,2.411,0.114,2.385,0.016C2.343-0.145,2.291-0.304,2.242-0.464z M-0.204,1.179
			c0.163-0.112,0.3-0.192,0.418-0.292C0.314,0.803,0.381,0.82,0.471,0.896c0.121,0.101,0.254,0.188,0.417,0.305
			C0.811,0.996,0.755,0.833,0.69,0.674C0.655,0.589,0.67,0.539,0.749,0.485c0.143-0.097,0.276-0.21,0.442-0.339
			c-0.214,0-0.387-0.005-0.559,0.002C0.55,0.152,0.513,0.125,0.492,0.046C0.444-0.128,0.386-0.299,0.322-0.505
			c-0.065,0.197-0.13,0.358-0.171,0.524c-0.029,0.12-0.09,0.149-0.202,0.142c-0.143-0.009-0.286-0.002-0.43-0.002
			c0.13,0.132,0.26,0.238,0.397,0.333c0.073,0.051,0.088,0.098,0.056,0.18C-0.088,0.826-0.137,0.985-0.204,1.179z M-0.717,0.175
			C-0.72,0.166-0.723,0.156-0.726,0.147c-0.148,0-0.297-0.009-0.443,0.003c-0.137,0.011-0.207-0.029-0.236-0.17
			c-0.032-0.153-0.091-0.301-0.148-0.483C-1.622-0.3-1.688-0.131-1.734,0.044C-1.76,0.142-1.808,0.162-1.896,0.159
			c-0.153-0.005-0.307-0.001-0.46-0.001c0.117,0.123,0.235,0.222,0.363,0.305c0.102,0.066,0.128,0.134,0.077,0.249
			c-0.061,0.138-0.102,0.286-0.166,0.47C-1.91,1.062-1.769,0.973-1.64,0.87c0.081-0.065,0.136-0.052,0.21,0.007
			c0.131,0.105,0.27,0.2,0.406,0.3c-0.043-0.184-0.102-0.351-0.167-0.515c-0.03-0.074-0.017-0.12,0.05-0.168
			C-0.996,0.393-0.858,0.282-0.717,0.175z M-3.488-0.506c-0.068,0.203-0.133,0.364-0.173,0.531C-3.689,0.14-3.748,0.166-3.853,0.16
			c-0.145-0.007-0.291-0.002-0.48-0.002c0.164,0.125,0.288,0.229,0.422,0.319c0.088,0.059,0.107,0.115,0.066,0.214
			C-3.906,0.838-3.949,0.992-4.013,1.18c0.169-0.118,0.309-0.203,0.434-0.306c0.087-0.071,0.145-0.053,0.222,0.008
			c0.129,0.104,0.266,0.197,0.435,0.321c-0.077-0.206-0.134-0.373-0.201-0.536C-3.157,0.586-3.139,0.54-3.068,0.49
			c0.143-0.1,0.279-0.211,0.451-0.343c-0.217,0-0.393-0.003-0.568,0.001C-3.258,0.15-3.295,0.13-3.316,0.054
			C-3.363-0.122-3.422-0.294-3.488-0.506z M-4.584,0.173c-0.004-0.009-0.009-0.018-0.013-0.027c-0.159,0-0.318-0.01-0.475,0.003
			C-5.195,0.16-5.24,0.112-5.268,0.001c-0.039-0.159-0.095-0.314-0.154-0.506c-0.07,0.209-0.134,0.379-0.182,0.554
			c-0.024,0.089-0.066,0.112-0.151,0.109c-0.156-0.006-0.312-0.002-0.467-0.002c0.108,0.117,0.22,0.212,0.343,0.291
			c0.115,0.074,0.152,0.15,0.089,0.282C-5.852,0.862-5.888,1.006-5.948,1.18c0.176-0.122,0.321-0.216,0.457-0.321
			c0.068-0.052,0.112-0.045,0.174,0.004c0.139,0.109,0.283,0.21,0.46,0.341C-4.932,1-4.99,0.833-5.056,0.67
			c-0.033-0.08-0.022-0.128,0.052-0.179C-4.86,0.391-4.724,0.28-4.584,0.173z M-8.172,0.158c0.17,0.13,0.301,0.238,0.44,0.334
			c0.073,0.051,0.087,0.099,0.055,0.181c-0.06,0.154-0.11,0.313-0.176,0.507c0.163-0.112,0.3-0.192,0.419-0.293
			c0.1-0.084,0.166-0.066,0.256,0.01c0.12,0.102,0.254,0.187,0.416,0.305c-0.076-0.205-0.132-0.368-0.198-0.527
			c-0.035-0.086-0.02-0.135,0.059-0.188c0.143-0.097,0.276-0.21,0.442-0.339c-0.214,0-0.387-0.005-0.559,0.002
			c-0.082,0.003-0.119-0.024-0.141-0.103c-0.048-0.174-0.105-0.346-0.168-0.55C-7.385-0.331-7.433-0.191-7.48-0.05
			c-0.068,0.208-0.068,0.208-0.292,0.208C-7.89,0.158-8.008,0.158-8.172,0.158z M-7.855,6.464c0.172-0.12,0.313-0.208,0.442-0.311
			C-7.332,6.088-7.277,6.1-7.203,6.16c0.131,0.105,0.27,0.2,0.406,0.3c-0.041-0.18-0.097-0.343-0.162-0.502
			c-0.034-0.084-0.024-0.135,0.057-0.189c0.144-0.097,0.277-0.21,0.445-0.34c-0.195,0-0.348-0.009-0.5,0.003
			c-0.126,0.01-0.19-0.025-0.218-0.156c-0.034-0.158-0.093-0.311-0.152-0.497c-0.068,0.204-0.134,0.373-0.18,0.548
			c-0.025,0.097-0.073,0.118-0.162,0.115C-7.823,5.437-7.977,5.44-8.13,5.44c0.117,0.123,0.235,0.221,0.363,0.305
			c0.102,0.066,0.129,0.134,0.078,0.249C-7.75,6.132-7.791,6.28-7.855,6.464z M-5.949,6.463c0.176-0.122,0.32-0.215,0.456-0.32
			c0.066-0.051,0.111-0.048,0.174,0.002c0.139,0.11,0.284,0.211,0.459,0.341c-0.07-0.194-0.119-0.353-0.185-0.505
			c-0.044-0.101-0.037-0.159,0.062-0.223c0.14-0.091,0.267-0.203,0.428-0.329c-0.21,0-0.379-0.007-0.546,0.003
			c-0.097,0.006-0.135-0.033-0.159-0.119C-5.306,5.145-5.36,4.979-5.422,4.775c-0.071,0.216-0.134,0.391-0.186,0.57
			C-5.63,5.418-5.664,5.444-5.74,5.441C-5.9,5.436-6.061,5.44-6.268,5.44c0.171,0.131,0.303,0.239,0.443,0.335
			c0.074,0.051,0.084,0.1,0.053,0.181C-5.833,6.111-5.882,6.269-5.949,6.463z M8.412,4.728C8.42,4.722,8.427,4.716,8.435,4.711
			c-0.06-0.161-0.116-0.324-0.18-0.483c-0.034-0.083-0.028-0.135,0.054-0.19c0.144-0.097,0.278-0.21,0.447-0.341
			c-0.204,0-0.366-0.009-0.528,0.003c-0.115,0.009-0.159-0.04-0.186-0.141c-0.043-0.161-0.096-0.32-0.155-0.515
			C7.817,3.25,7.752,3.419,7.705,3.594C7.68,3.689,7.634,3.713,7.544,3.71C7.391,3.704,7.236,3.708,7.082,3.708
			c0.109,0.117,0.22,0.209,0.34,0.287c0.119,0.076,0.154,0.154,0.093,0.294C7.458,4.417,7.401,4.552,7.376,4.72
			c0.161-0.112,0.303-0.203,0.434-0.307c0.073-0.058,0.121-0.045,0.186,0.005C8.133,4.525,8.273,4.625,8.412,4.728z M6.504,4.724
			c0.008-0.005,0.016-0.01,0.023-0.016C6.471,4.553,6.42,4.395,6.356,4.242C6.316,4.149,6.322,4.091,6.414,4.03
			c0.141-0.093,0.27-0.205,0.436-0.333c-0.208,0-0.375-0.008-0.541,0.003C6.205,3.707,6.166,3.666,6.141,3.574
			c-0.045-0.166-0.098-0.329-0.159-0.53C5.912,3.251,5.847,3.419,5.8,3.593C5.775,3.689,5.73,3.713,5.64,3.71
			C5.486,3.704,5.331,3.708,5.134,3.708c0.167,0.128,0.292,0.234,0.427,0.322c0.093,0.061,0.1,0.12,0.061,0.215
			C5.563,4.392,5.519,4.543,5.455,4.731c0.18-0.125,0.324-0.22,0.461-0.324C5.979,4.359,6.021,4.366,6.079,4.41
			C6.218,4.518,6.362,4.62,6.504,4.724z M3.311,3.708C3.288,3.765,3.342,3.772,3.366,3.792C3.475,3.878,3.584,3.966,3.7,4.043
			c0.075,0.05,0.085,0.1,0.053,0.181C3.693,4.378,3.644,4.537,3.578,4.73c0.167-0.116,0.305-0.201,0.432-0.302
			C4.092,4.362,4.15,4.364,4.231,4.43C4.36,4.536,4.499,4.629,4.668,4.752C4.596,4.555,4.547,4.399,4.482,4.25
			c-0.044-0.1-0.038-0.159,0.061-0.224c0.141-0.091,0.268-0.203,0.43-0.329c-0.215,0-0.387-0.005-0.56,0.002
			c-0.084,0.004-0.119-0.027-0.14-0.104C4.224,3.422,4.168,3.251,4.104,3.044c-0.07,0.213-0.133,0.389-0.186,0.568
			c-0.022,0.073-0.055,0.1-0.131,0.098C3.629,3.704,3.47,3.708,3.311,3.708z M2.228,3.045c-0.066,0.197-0.13,0.358-0.171,0.525
			c-0.029,0.12-0.09,0.149-0.202,0.142c-0.143-0.009-0.286-0.002-0.43-0.002c0.13,0.132,0.26,0.238,0.397,0.333
			C1.896,4.092,1.91,4.14,1.878,4.222c-0.06,0.154-0.11,0.313-0.176,0.507c0.163-0.112,0.3-0.192,0.419-0.292
			C2.219,4.354,2.286,4.37,2.376,4.447c0.12,0.102,0.254,0.188,0.417,0.306C2.717,4.547,2.661,4.384,2.595,4.225
			C2.561,4.14,2.574,4.09,2.654,4.036c0.143-0.097,0.276-0.21,0.443-0.339c-0.214,0-0.387-0.004-0.559,0.002
			c-0.082,0.003-0.12-0.023-0.141-0.102C2.349,3.423,2.292,3.251,2.228,3.045z M1.194,3.697c-0.213,0-0.382-0.007-0.549,0.003
			C0.547,3.706,0.509,3.667,0.485,3.581C0.439,3.413,0.385,3.247,0.323,3.043c-0.071,0.215-0.133,0.391-0.186,0.57
			C0.115,3.686,0.08,3.712,0.005,3.709c-0.161-0.005-0.322-0.002-0.528-0.002c0.171,0.131,0.303,0.239,0.443,0.336
			c0.074,0.052,0.084,0.101,0.052,0.181c-0.06,0.154-0.109,0.313-0.176,0.507c0.176-0.122,0.32-0.216,0.457-0.32
			C0.319,4.36,0.364,4.364,0.427,4.414c0.139,0.11,0.283,0.211,0.46,0.342c-0.073-0.2-0.126-0.362-0.192-0.52
			c-0.038-0.09-0.03-0.143,0.056-0.201C0.893,3.939,1.024,3.828,1.194,3.697z M-2.067,4.688c0.008,0.005,0.017,0.011,0.025,0.016
			C-1.9,4.606-1.756,4.511-1.618,4.408c0.061-0.046,0.104-0.044,0.162,0.002c0.142,0.11,0.288,0.214,0.466,0.344
			c-0.07-0.193-0.12-0.348-0.183-0.497c-0.044-0.102-0.042-0.168,0.064-0.235c0.139-0.088,0.263-0.199,0.425-0.324
			c-0.207,0-0.373-0.008-0.539,0.003c-0.103,0.007-0.145-0.032-0.17-0.125C-1.438,3.41-1.492,3.247-1.554,3.044
			c-0.071,0.215-0.134,0.386-0.184,0.56c-0.023,0.079-0.058,0.108-0.14,0.105c-0.16-0.006-0.319-0.002-0.479-0.002
			c0.131,0.133,0.265,0.241,0.406,0.34c0.069,0.048,0.079,0.095,0.05,0.17C-1.961,4.372-2.012,4.531-2.067,4.688z M-4.014,4.73
			c0.163-0.112,0.3-0.192,0.419-0.293c0.1-0.085,0.166-0.066,0.257,0.01c0.12,0.101,0.254,0.187,0.416,0.305
			C-2.999,4.546-3.055,4.383-3.12,4.224C-3.156,4.139-3.14,4.09-3.061,4.036c0.143-0.097,0.276-0.21,0.442-0.339
			c-0.214,0-0.387-0.005-0.559,0.002c-0.083,0.003-0.119-0.025-0.14-0.103c-0.048-0.174-0.105-0.345-0.169-0.552
			c-0.07,0.213-0.133,0.389-0.186,0.567c-0.022,0.073-0.055,0.1-0.131,0.098c-0.161-0.005-0.322-0.002-0.529-0.002
			c0.171,0.13,0.302,0.238,0.442,0.335c0.074,0.051,0.086,0.099,0.054,0.181C-3.899,4.378-3.948,4.537-4.014,4.73z M-4.548,3.697
			c-0.209,0-0.376-0.007-0.541,0.003C-5.19,3.706-5.235,3.672-5.261,3.577c-0.045-0.167-0.099-0.33-0.161-0.533
			C-5.49,3.248-5.555,3.409-5.595,3.576c-0.028,0.115-0.086,0.14-0.192,0.135c-0.145-0.007-0.291-0.002-0.48-0.002
			c0.164,0.125,0.289,0.229,0.423,0.319c0.088,0.059,0.107,0.115,0.066,0.214C-5.84,4.389-5.884,4.543-5.947,4.73
			c0.165-0.114,0.304-0.194,0.422-0.297c0.097-0.084,0.16-0.059,0.245,0.009c0.125,0.101,0.259,0.191,0.424,0.312
			c-0.078-0.21-0.139-0.381-0.206-0.548C-5.09,4.135-5.075,4.092-5.014,4.049C-4.868,3.944-4.727,3.833-4.548,3.697z M-4.001,6.418
			c0.007,0.007,0.015,0.014,0.022,0.021c0.137-0.096,0.279-0.186,0.41-0.289C-3.492,6.09-3.44,6.099-3.37,6.156
			c0.133,0.107,0.274,0.204,0.448,0.332c-0.076-0.206-0.134-0.373-0.2-0.535c-0.033-0.081-0.02-0.128,0.053-0.179
			c0.144-0.1,0.28-0.211,0.454-0.344c-0.179,0-0.316,0-0.452,0C-3.289,5.43-3.289,5.43-3.354,5.214
			C-3.395,5.08-3.436,4.947-3.488,4.777c-0.07,0.211-0.135,0.381-0.183,0.556c-0.024,0.09-0.068,0.111-0.152,0.108
			C-3.978,5.436-4.134,5.44-4.29,5.44c0.113,0.12,0.229,0.217,0.356,0.3c0.105,0.069,0.136,0.139,0.082,0.26
			C-3.913,6.135-3.952,6.278-4.001,6.418z M-2.066,6.417c0.007,0.007,0.013,0.015,0.02,0.022c0.141-0.098,0.286-0.192,0.423-0.297
			c0.067-0.052,0.112-0.045,0.174,0.004c0.138,0.109,0.283,0.21,0.459,0.34c-0.073-0.201-0.126-0.364-0.193-0.521
			c-0.039-0.091-0.026-0.143,0.058-0.2c0.142-0.097,0.274-0.209,0.438-0.336c-0.201,0-0.361-0.01-0.518,0.003
			C-1.327,5.443-1.372,5.395-1.4,5.284c-0.039-0.159-0.095-0.315-0.154-0.506c-0.07,0.209-0.134,0.379-0.182,0.554
			C-1.76,5.421-1.802,5.445-1.888,5.442C-2.043,5.436-2.199,5.44-2.399,5.44c0.167,0.128,0.294,0.236,0.432,0.327
			c0.087,0.058,0.094,0.113,0.057,0.204C-1.969,6.117-2.015,6.268-2.066,6.417z M0.324,4.774C0.253,4.987,0.188,5.157,0.14,5.332
			c-0.024,0.089-0.066,0.113-0.151,0.11C-0.167,5.436-0.323,5.44-0.523,5.44c0.167,0.128,0.294,0.235,0.431,0.327
			c0.087,0.058,0.094,0.113,0.058,0.204c-0.06,0.149-0.106,0.303-0.169,0.492c0.175-0.122,0.32-0.215,0.456-0.32
			C0.32,6.091,0.365,6.097,0.428,6.146c0.139,0.109,0.283,0.211,0.46,0.341c-0.073-0.2-0.126-0.363-0.193-0.52
			C0.656,5.876,0.666,5.824,0.752,5.766C0.894,5.67,1.026,5.557,1.19,5.429c-0.205,0-0.369-0.008-0.532,0.003
			C0.549,5.44,0.506,5.397,0.48,5.299C0.438,5.137,0.385,4.978,0.324,4.774z M3.065,5.457c-0.003-0.009-0.007-0.018-0.01-0.028
			c-0.172,0-0.344-0.004-0.516,0.002c-0.081,0.003-0.12-0.022-0.141-0.102c-0.048-0.174-0.105-0.346-0.17-0.554
			C2.164,4.97,2.102,5.126,2.062,5.288C2.031,5.417,1.965,5.454,1.84,5.444C1.703,5.433,1.563,5.441,1.425,5.441
			c0.13,0.132,0.26,0.238,0.397,0.333c0.073,0.05,0.088,0.098,0.055,0.18c-0.06,0.154-0.11,0.313-0.176,0.507
			C1.864,6.35,2.001,6.27,2.12,6.17c0.099-0.084,0.166-0.068,0.256,0.009c0.12,0.102,0.254,0.188,0.417,0.306
			c-0.078-0.21-0.137-0.376-0.203-0.54c-0.03-0.075-0.015-0.12,0.052-0.167C2.786,5.675,2.924,5.564,3.065,5.457z M4.634,6.46
			C4.64,6.453,4.647,6.446,4.653,6.44c-0.06-0.161-0.116-0.324-0.181-0.483C4.436,5.87,4.452,5.822,4.531,5.768
			c0.143-0.097,0.276-0.21,0.442-0.338c-0.214,0-0.387-0.005-0.559,0.002C4.331,5.435,4.295,5.407,4.273,5.329
			C4.225,5.155,4.168,4.983,4.104,4.778c-0.06,0.179-0.121,0.321-0.153,0.469C3.918,5.401,3.847,5.462,3.687,5.443
			C3.561,5.427,3.432,5.439,3.305,5.439C3.428,5.57,3.56,5.678,3.699,5.774c0.073,0.051,0.087,0.099,0.055,0.181
			c-0.06,0.154-0.11,0.313-0.176,0.507c0.163-0.112,0.3-0.192,0.419-0.293c0.099-0.084,0.166-0.067,0.256,0.01
			C4.373,6.281,4.506,6.367,4.634,6.46z M5.454,6.463c0.167-0.116,0.306-0.2,0.43-0.302c0.09-0.074,0.151-0.06,0.233,0.009
			c0.125,0.104,0.262,0.194,0.394,0.29C6.468,6.275,6.409,6.108,6.343,5.944c-0.03-0.075-0.015-0.12,0.051-0.167
			C6.54,5.674,6.679,5.562,6.852,5.429c-0.216,0-0.389-0.004-0.561,0.002c-0.082,0.003-0.12-0.023-0.141-0.102
			C6.102,5.155,6.044,4.983,5.98,4.777c-0.065,0.197-0.13,0.358-0.17,0.524C5.781,5.42,5.72,5.45,5.608,5.443
			c-0.143-0.009-0.287-0.002-0.43-0.002c0.13,0.132,0.26,0.237,0.397,0.332c0.073,0.05,0.088,0.098,0.056,0.18
			C5.57,6.108,5.521,6.267,5.454,6.463z M8.414,6.46c0.007-0.006,0.014-0.013,0.021-0.019C8.375,6.28,8.319,6.117,8.254,5.958
			C8.22,5.874,8.23,5.823,8.311,5.769c0.144-0.097,0.277-0.21,0.445-0.34c-0.195,0-0.348-0.009-0.5,0.003
			c-0.126,0.01-0.19-0.025-0.218-0.157C8.003,5.117,7.944,4.965,7.886,4.778c-0.068,0.204-0.134,0.373-0.18,0.549
			C7.68,5.424,7.631,5.445,7.543,5.442C7.39,5.437,7.236,5.44,7.083,5.44c0.122,0.126,0.244,0.227,0.374,0.315
			c0.091,0.061,0.116,0.12,0.07,0.226C7.466,6.124,7.423,6.276,7.359,6.462c0.167-0.115,0.305-0.2,0.43-0.301
			C7.877,6.09,7.938,6.098,8.022,6.169C8.146,6.274,8.282,6.364,8.414,6.46z M-7.84,4.686c0.008,0.007,0.015,0.013,0.023,0.02
			c0.134-0.093,0.273-0.178,0.398-0.281c0.086-0.071,0.144-0.055,0.222,0.008c0.129,0.104,0.267,0.198,0.436,0.322
			C-6.839,4.545-6.9,4.374-6.967,4.206c-0.028-0.07-0.014-0.113,0.047-0.157c0.146-0.105,0.288-0.217,0.467-0.352
			c-0.18,0-0.317,0-0.454,0c-0.221,0-0.221,0.001-0.286-0.215c-0.041-0.134-0.082-0.267-0.133-0.436
			c-0.069,0.206-0.134,0.371-0.179,0.542C-7.532,3.69-7.581,3.715-7.677,3.71c-0.15-0.007-0.301-0.002-0.452-0.002
			c0.117,0.123,0.238,0.222,0.368,0.309c0.095,0.064,0.123,0.127,0.074,0.238C-7.748,4.394-7.79,4.542-7.84,4.686z M-3.447,1.86
			c-0.003,0.011-0.005,0.022-0.008,0.033c0.133,0.101,0.263,0.207,0.4,0.301C-2.98,2.245-2.968,2.294-3,2.375
			c-0.06,0.155-0.11,0.313-0.176,0.507c0.17-0.119,0.311-0.21,0.442-0.311c0.073-0.057,0.127-0.057,0.199,0.002
			c0.129,0.104,0.266,0.198,0.399,0.297c-0.034-0.184-0.091-0.35-0.157-0.512c-0.029-0.071-0.013-0.113,0.047-0.157
			c0.146-0.105,0.288-0.216,0.465-0.35c-0.209,0-0.375-0.008-0.541,0.003c-0.102,0.007-0.145-0.03-0.17-0.124
			c-0.044-0.165-0.099-0.328-0.16-0.53C-2.722,1.414-2.786,1.585-2.834,1.76c-0.023,0.083-0.063,0.105-0.142,0.102
			C-3.133,1.856-3.29,1.86-3.447,1.86z M6.137,8.847C6.134,8.857,6.132,8.868,6.129,8.878c0.133,0.101,0.263,0.206,0.4,0.301
			c0.074,0.051,0.086,0.1,0.055,0.182c-0.06,0.155-0.11,0.313-0.176,0.506c0.174-0.121,0.319-0.215,0.455-0.319
			C6.928,9.498,6.974,9.5,7.037,9.55c0.134,0.106,0.274,0.204,0.411,0.305c-0.032-0.179-0.087-0.34-0.151-0.498
			C7.264,9.277,7.276,9.23,7.35,9.179C7.495,9.08,7.63,8.968,7.802,8.837c-0.207,0-0.373-0.008-0.539,0.003
			c-0.102,0.006-0.145-0.03-0.17-0.124c-0.044-0.165-0.098-0.328-0.16-0.53c-0.07,0.21-0.134,0.375-0.179,0.546
			c-0.025,0.096-0.072,0.12-0.161,0.117C6.441,8.843,6.289,8.847,6.137,8.847z M-0.088,9.854c0.009-0.008,0.018-0.017,0.027-0.025
			c-0.06-0.161-0.116-0.322-0.18-0.481c-0.03-0.075-0.013-0.12,0.052-0.166c0.145-0.103,0.284-0.214,0.456-0.345
			c-0.216,0-0.389-0.005-0.561,0.002c-0.084,0.004-0.118-0.028-0.139-0.104c-0.048-0.172-0.104-0.341-0.168-0.548
			C-0.662,8.37-0.725,8.512-0.755,8.66c-0.033,0.162-0.114,0.207-0.269,0.189c-0.124-0.015-0.251-0.003-0.377-0.003
			c0.123,0.128,0.247,0.234,0.382,0.322c0.093,0.061,0.1,0.12,0.061,0.216c-0.059,0.145-0.103,0.297-0.166,0.483
			c0.175-0.122,0.316-0.212,0.447-0.316c0.073-0.057,0.122-0.046,0.187,0.005C-0.358,9.658-0.222,9.755-0.088,9.854z M-3.953,9.854
			c0.009-0.006,0.017-0.012,0.026-0.018c-0.059-0.16-0.114-0.321-0.178-0.479C-4.137,9.279-4.128,9.231-4.053,9.18
			c0.144-0.1,0.28-0.211,0.454-0.343c-0.177,0-0.314,0-0.451,0c-0.222,0-0.221,0.001-0.286-0.214
			c-0.04-0.133-0.081-0.265-0.132-0.435C-4.539,8.394-4.603,8.56-4.648,8.73c-0.025,0.094-0.068,0.122-0.16,0.118
			c-0.153-0.006-0.307-0.002-0.461-0.002c0.128,0.132,0.257,0.238,0.395,0.332C-4.8,9.23-4.786,9.278-4.818,9.36
			c-0.06,0.155-0.11,0.313-0.177,0.507c0.166-0.115,0.304-0.2,0.429-0.301c0.089-0.072,0.151-0.06,0.234,0.009
			C-4.212,9.675-4.08,9.762-3.953,9.854z M-7.167,8.847c-0.005,0.009-0.009,0.019-0.014,0.028c0.129,0.098,0.252,0.203,0.387,0.292
			c0.092,0.06,0.102,0.118,0.063,0.215c-0.06,0.146-0.103,0.298-0.166,0.484c0.17-0.119,0.308-0.206,0.435-0.307
			c0.079-0.063,0.135-0.058,0.211,0.003c0.126,0.103,0.261,0.194,0.393,0.29C-5.893,9.669-5.95,9.508-6.013,9.349
			c-0.03-0.074-0.015-0.12,0.051-0.167c0.145-0.103,0.284-0.214,0.456-0.346c-0.216,0-0.389-0.005-0.561,0.002
			c-0.083,0.003-0.119-0.025-0.14-0.103c-0.048-0.173-0.104-0.343-0.168-0.548c-0.068,0.202-0.133,0.368-0.177,0.538
			c-0.026,0.101-0.076,0.127-0.172,0.123C-6.871,8.843-7.019,8.847-7.167,8.847z M-5.108,2.88c0.173-0.12,0.318-0.214,0.454-0.319
			c0.067-0.051,0.113-0.045,0.175,0.004C-4.345,2.67-4.206,2.768-4.07,2.869c-0.032-0.18-0.088-0.342-0.152-0.5
			c-0.032-0.08-0.018-0.126,0.056-0.177c0.144-0.098,0.279-0.211,0.449-0.341c-0.216,0-0.392-0.003-0.568,0.002
			c-0.075,0.002-0.109-0.022-0.13-0.097c-0.047-0.175-0.106-0.347-0.17-0.555c-0.065,0.196-0.127,0.355-0.169,0.52
			c-0.03,0.117-0.089,0.15-0.203,0.143C-5.098,1.856-5.24,1.862-5.425,1.862c0.164,0.126,0.291,0.233,0.428,0.325
			c0.086,0.058,0.095,0.112,0.058,0.204C-5.001,2.54-5.045,2.695-5.108,2.88z M4.15,1.86C4.145,1.87,4.139,1.88,4.134,1.889
			C4.262,1.987,4.386,2.091,4.52,2.18c0.089,0.059,0.107,0.115,0.065,0.215c-0.061,0.146-0.104,0.3-0.167,0.485
			C4.582,2.767,4.72,2.687,4.839,2.584C4.937,2.498,5,2.528,5.084,2.595c0.12,0.096,0.249,0.182,0.374,0.273
			C5.425,2.69,5.37,2.533,5.308,2.379C5.275,2.297,5.28,2.245,5.363,2.19C5.508,2.094,5.64,1.98,5.808,1.851
			c-0.193,0-0.347-0.009-0.498,0.003C5.184,1.863,5.12,1.83,5.092,1.697C5.059,1.54,4.999,1.389,4.941,1.202
			C4.871,1.411,4.809,1.587,4.756,1.765C4.734,1.839,4.699,1.864,4.624,1.862C4.466,1.857,4.308,1.86,4.15,1.86z M3.58,2.868
			c0.008-0.007,0.017-0.013,0.025-0.02c-0.053-0.147-0.099-0.297-0.161-0.44C3.401,2.306,3.4,2.242,3.508,2.175
			C3.647,2.087,3.77,1.976,3.931,1.851c-0.205,0-0.372-0.008-0.538,0.003C3.288,1.861,3.249,1.82,3.224,1.728
			C3.18,1.562,3.126,1.399,3.066,1.2C2.997,1.406,2.933,1.575,2.884,1.749C2.86,1.835,2.823,1.866,2.735,1.862
			C2.58,1.856,2.423,1.861,2.267,1.861c0.106,0.117,0.218,0.212,0.341,0.29c0.116,0.074,0.151,0.151,0.089,0.283
			C2.636,2.565,2.6,2.708,2.54,2.882c0.171-0.119,0.312-0.21,0.444-0.313c0.075-0.058,0.128-0.052,0.199,0.005
			C3.311,2.677,3.448,2.771,3.58,2.868z M2.031,1.851c-0.223,0-0.4-0.003-0.577,0.001c-0.069,0.002-0.101-0.018-0.12-0.088
			C1.285,1.586,1.225,1.412,1.159,1.205C1.091,1.409,1.026,1.578,0.978,1.753c-0.024,0.09-0.067,0.112-0.152,0.109
			C0.671,1.857,0.516,1.861,0.36,1.861c0.121,0.127,0.245,0.231,0.379,0.32c0.091,0.06,0.104,0.117,0.064,0.215
			c-0.06,0.146-0.104,0.299-0.167,0.485C0.79,2.774,0.915,2.701,1.023,2.608c0.111-0.097,0.195-0.096,0.304,0.005
			c0.105,0.097,0.232,0.17,0.349,0.254C1.641,2.684,1.584,2.523,1.521,2.364c-0.029-0.074-0.017-0.12,0.05-0.167
			C1.716,2.095,1.854,1.985,2.031,1.851z M4.546,9.821c0.006,0.008,0.012,0.015,0.018,0.023c0.141-0.098,0.286-0.192,0.423-0.297
			C5.054,9.496,5.1,9.502,5.162,9.551c0.134,0.105,0.273,0.203,0.41,0.304C5.539,9.675,5.484,9.514,5.42,9.355
			c-0.032-0.08-0.019-0.126,0.055-0.177C5.619,9.08,5.754,8.968,5.924,8.837c-0.216,0-0.392-0.003-0.568,0.002
			C5.281,8.84,5.247,8.816,5.227,8.742C5.18,8.567,5.121,8.395,5.057,8.189C4.99,8.387,4.925,8.55,4.882,8.72
			C4.854,8.828,4.801,8.854,4.7,8.849C4.554,8.843,4.407,8.847,4.214,8.847c0.17,0.13,0.301,0.237,0.44,0.333
			C4.73,9.233,4.738,9.283,4.707,9.363C4.648,9.514,4.599,9.668,4.546,9.821z M4.049,8.837c-0.206,0-0.372-0.007-0.537,0.003
			C3.411,8.846,3.366,8.811,3.341,8.717c-0.044-0.166-0.099-0.329-0.16-0.53C3.11,8.395,3.046,8.561,3.001,8.731
			c-0.025,0.095-0.071,0.12-0.161,0.117c-0.153-0.006-0.307-0.002-0.46-0.002c0.128,0.132,0.258,0.238,0.395,0.332
			C2.85,9.23,2.863,9.279,2.832,9.36c-0.06,0.154-0.11,0.313-0.177,0.506c0.166-0.115,0.304-0.2,0.43-0.301
			c0.09-0.073,0.152-0.058,0.234,0.01c0.12,0.1,0.251,0.186,0.378,0.279C3.664,9.676,3.608,9.515,3.544,9.358
			C3.512,9.278,3.523,9.23,3.597,9.179C3.741,9.08,3.877,8.968,4.049,8.837z M0.763,9.828C0.772,9.832,0.781,9.836,0.789,9.84
			c0.13-0.09,0.265-0.174,0.387-0.273c0.088-0.072,0.15-0.065,0.234,0.006c0.12,0.101,0.253,0.188,0.38,0.28
			c-0.03-0.172-0.076-0.323-0.139-0.466c-0.043-0.099-0.04-0.158,0.061-0.222c0.141-0.09,0.267-0.203,0.427-0.328
			c-0.208,0-0.376-0.007-0.544,0.003C1.498,8.845,1.461,8.805,1.437,8.721c-0.046-0.167-0.1-0.332-0.162-0.535
			C1.214,8.369,1.151,8.511,1.121,8.66C1.089,8.822,1.007,8.867,0.852,8.849C0.728,8.834,0.601,8.846,0.475,8.846
			C0.598,8.974,0.722,9.08,0.857,9.168c0.093,0.061,0.1,0.12,0.061,0.216C0.859,9.529,0.814,9.68,0.763,9.828z M-2.023,9.852
			c0.01-0.007,0.02-0.013,0.029-0.02c-0.058-0.156-0.112-0.313-0.174-0.467c-0.033-0.082-0.028-0.134,0.055-0.189
			c0.144-0.096,0.277-0.21,0.444-0.339c-0.213,0-0.385-0.004-0.556,0.002c-0.081,0.003-0.12-0.021-0.141-0.101
			c-0.047-0.174-0.105-0.344-0.168-0.549c-0.069,0.205-0.133,0.375-0.181,0.55c-0.024,0.088-0.065,0.114-0.151,0.11
			c-0.156-0.006-0.311-0.002-0.467-0.002c0.12,0.126,0.244,0.23,0.378,0.319C-2.868,9.225-2.85,9.281-2.891,9.38
			c-0.061,0.146-0.104,0.3-0.167,0.485c0.164-0.113,0.302-0.193,0.421-0.296C-2.54,9.485-2.476,9.513-2.393,9.58
			C-2.274,9.676-2.147,9.762-2.023,9.852z M-7.001,2.841c0.008,0.005,0.016,0.01,0.025,0.015c0.133-0.093,0.271-0.181,0.398-0.282
			c0.08-0.063,0.136-0.057,0.211,0.004c0.126,0.102,0.261,0.194,0.393,0.289c-0.034-0.184-0.091-0.346-0.155-0.505
			c-0.03-0.075-0.014-0.12,0.052-0.166c0.145-0.103,0.284-0.214,0.455-0.345c-0.215,0-0.388-0.005-0.56,0.002
			c-0.084,0.004-0.118-0.027-0.14-0.104C-6.37,1.577-6.426,1.408-6.49,1.202c-0.066,0.199-0.13,0.36-0.172,0.526
			C-6.69,1.841-6.748,1.869-6.854,1.864c-0.145-0.007-0.291-0.002-0.479-0.002c0.169,0.129,0.298,0.235,0.435,0.329
			c0.08,0.055,0.09,0.106,0.055,0.193C-6.902,2.533-6.949,2.688-7.001,2.841z"/>
		<path fill="#D9261F" d="M25.746,17.445c0,0.613-0.001,1.226-0.001,1.839c-0.144-0.001-0.288-0.002-0.433-0.002
			c-15.03,0-18.06,0-33.091-0.001c-0.163,0-0.326-0.007-0.49-0.01c0-0.605,0-1.211,0.001-1.816c0.111-0.002,0.221-0.005,0.332-0.005
			c15.064,0,18.128,0,33.191-0.001C25.419,17.45,25.582,17.446,25.746,17.445z"/>
		<path fill="#FEFDFD" d="M25.746,17.445c-0.163,0.002-0.327,0.005-0.49,0.005c-15.064,0-18.128,0-33.191,0.001
			c-0.111,0-0.221,0.003-0.332,0.005c0-0.621-0.015-1.242,0.007-1.862c0.038,0.002,0.077,0.005,0.115,0.005
			c3.088,0.004,6.176,0.008,9.264,0.012c1.664,0.002,3.329,0.004,4.993,0.005c3.391,0.003,6.782,0.006,10.174,0.009
			c3.454,0.003,6.908,0.008,10.361,0.011c3.247,0.003-5.506,0.004-2.259,0.006c0.452,0,0.904,0.005,1.356,0.007
			C25.745,16.247,25.745,16.846,25.746,17.445z"/>
		<path fill="#D9261F" d="M25.745,15.648c-0.452-0.003-0.904-0.007-1.356-0.007c-3.247-0.003,5.506-0.004,2.259-0.006
			c-3.454-0.003-6.908-0.007-10.361-0.011c-3.391-0.003-6.782-0.006-10.174-0.009c-1.664-0.002-3.329-0.003-4.993-0.005
			c-3.088-0.004-6.176-0.008-9.264-0.012c-0.038,0-0.077-0.003-0.115-0.005c-0.004-0.563-0.007-1.125-0.012-1.688
			c-0.001-0.09,0.039-0.117,0.122-0.115c0.125,0.004,0.25,0,0.375,0c15.08,0,18.161,0,33.241,0.001c0.318,0,0.282-0.044,0.282,0.284
			C25.748,14.6,25.746,15.124,25.745,15.648z"/>
		<path fill="#FEFDFD" d="M-8.266,12.013c3.131,0,6.262-0.001,9.394-0.001c2.54,0,5.079,0,7.619,0c0.043,0,0.086-0.005,0.129-0.008
			c0.038,0.002,0.077,0.004,0.115,0.004c9.431,0,6.862,0,16.293,0c0.154,0,0.308,0.001,0.462,0.001
			c0.003,0.567,0.004,1.135,0.01,1.702c0.001,0.085-0.021,0.121-0.112,0.116c-0.129-0.007-0.26-0.002-0.39-0.002
			c-15.081,0-18.162,0-33.244,0c-0.279,0-0.28,0-0.28-0.283C-8.27,13.033-8.267,12.523-8.266,12.013z"/>
		<path fill="#FEFDFD" d="M-8.268,19.271c0.163,0.004,0.326,0.01,0.49,0.01c15.03,0,18.06,0,33.091,0.001
			c0.144,0,0.289,0.001,0.433,0.002c0.001,0.556,0.003,1.113,0.003,1.669c0,0.039,0.018,0.091-0.048,0.101
			c-0.048-0.003-0.096-0.008-0.143-0.008c-15.085,0-18.171-0.001-33.256-0.001c-0.139,0-0.279,0.004-0.418-0.001
			c-0.071-0.003-0.094,0.028-0.096,0.091c-0.017,0.038-0.034,0.076-0.051,0.114C-8.266,20.59-8.267,19.931-8.268,19.271z"/>
		<path fill="#D9261F" d="M-8.214,21.135c0.002-0.062,0.025-0.093,0.096-0.091c0.139,0.005,0.279,0.001,0.418,0.001
			c15.085,0,18.171,0,33.256,0.001c0.048,0,0.095,0.006,0.143,0.008c0.058,0.026,0.047,0.077,0.047,0.125
			c0,0.476-0.003,0.952,0,1.429c0.001,0.093-0.015,0.135-0.122,0.109c-0.073-0.018-0.152-0.013-0.229-0.013
			c-15.1-0.001-18.2-0.001-33.299-0.001c-0.101,0-0.202-0.002-0.303-0.003C-8.209,22.178-8.212,21.657-8.214,21.135z"/>
		<path fill="#D9261F" d="M25.745,12.009c-0.154,0-0.308-0.001-0.462-0.001c-9.431,0-6.862,0-16.293,0
			c-0.038,0-0.077-0.003-0.115-0.004c0.002-0.607,0.004-1.214,0.006-1.821c0.091,0,0.183-0.001,0.274-0.001
			c9.346,0,6.692,0,16.038-0.001c0.183,0,0.366,0.002,0.548,0.002C25.743,10.792,25.744,11.401,25.745,12.009z"/>
		<path fill="#FDFBFB" d="M25.742,10.184c-0.183-0.001-0.366-0.002-0.548-0.002c-9.346,0-6.692,0-16.038,0.001
			c-0.091,0-0.183,0-0.274,0.001C8.87,9.578,8.869,8.974,8.882,8.37C8.93,8.371,8.978,8.372,9.026,8.372c9.572,0,7.144,0,16.717,0
			C25.742,8.976,25.742,9.58,25.742,10.184z"/>
		<path fill="#D9261F" d="M8.884,4.796C8.875,4.192,8.868,3.587,8.886,2.982C8.92,2.982,8.953,2.98,8.987,2.98
			c9.425,0,6.85,0,16.274,0.001c0.159,0,0.317,0.003,0.476,0.005c0.017,0.603,0.013,1.206,0.002,1.809
			c-0.062,0.001-0.125,0.004-0.187,0.004c-9.397,0-6.794,0-16.191,0C9.201,4.798,9.043,4.797,8.884,4.796z"/>
		<path fill="#D9261F" d="M25.743,8.372c-9.572,0-7.144,0-16.717,0c-0.048,0-0.096-0.001-0.144-0.002
			C8.883,7.765,8.883,7.16,8.884,6.555C8.956,6.554,9.028,6.552,9.1,6.552c9.474-0.001,6.947-0.001,16.421-0.001
			c0.052,0,0.105,0.007,0.157,0.011c0.069,0.013,0.071,0.063,0.071,0.119C25.746,7.245,25.745,7.809,25.743,8.372z"/>
		<path fill="#FDFBFB" d="M25.678,6.563c-0.052-0.004-0.105-0.011-0.157-0.011c-9.474,0-6.947,0-16.421,0.001
			c-0.072,0-0.144,0.001-0.216,0.002c-0.003-0.51-0.007-1.019-0.009-1.529c0-0.077,0.006-0.153,0.009-0.23
			C9.043,4.797,9.201,4.798,9.36,4.798c9.397,0,6.794,0,16.191,0c0.062,0,0.125-0.002,0.187-0.004
			c0.003,0.562,0.006,1.123,0.01,1.685C25.749,6.534,25.732,6.562,25.678,6.563z"/>
		<path fill="#FDFBFB" d="M25.737,2.985c-0.159-0.002-0.317-0.005-0.476-0.005c-9.425,0-6.85-0.001-16.274-0.001
			c-0.034,0-0.067,0.002-0.101,0.002C8.86,2.671,8.879,2.36,8.875,2.049C8.873,1.776,8.878,1.502,8.88,1.229
			C9,1.226,9.12,1.221,9.24,1.221c9.411,0,6.823,0,16.234,0c0.275,0,0.275,0,0.275,0.279c0,0.442,0,0.885-0.001,1.327
			C25.748,2.881,25.741,2.933,25.737,2.985z"/>
		<path fill="#F1F7F7" d="M-8.214,21.135c0.003,0.521,0.005,1.043,0.008,1.564C-8.287,22.75-8.27,22.68-8.27,22.644
			c0.001-0.465,0.003-0.93,0.005-1.395C-8.248,21.211-8.231,21.173-8.214,21.135z"/>
		<path fill="#F1F7F7" d="M-6.761,8.277c-0.17-0.124-0.307-0.218-0.436-0.322c-0.078-0.062-0.135-0.078-0.222-0.008
			C-7.544,8.05-7.684,8.135-7.854,8.254c0.062-0.18,0.102-0.326,0.163-0.463c0.053-0.12,0.025-0.191-0.081-0.26
			c-0.127-0.083-0.244-0.181-0.356-0.3c0.151,0,0.302-0.005,0.452,0.002c0.096,0.004,0.145-0.021,0.171-0.123
			c0.045-0.171,0.109-0.336,0.178-0.542c0.052,0.169,0.093,0.302,0.133,0.436c0.065,0.216,0.065,0.216,0.286,0.215
			c0.137,0,0.274,0,0.454,0c-0.179,0.135-0.32,0.247-0.466,0.352c-0.061,0.044-0.075,0.087-0.047,0.157
			C-6.9,7.895-6.84,8.066-6.761,8.277z"/>
		<path fill="#F1F7F7" d="M-4.898,8.246c-0.134-0.098-0.271-0.192-0.4-0.296c-0.074-0.06-0.129-0.071-0.21-0.007
			c-0.129,0.103-0.27,0.191-0.442,0.311c0.064-0.184,0.105-0.332,0.166-0.47c0.051-0.115,0.023-0.183-0.078-0.249
			C-5.99,7.451-6.108,7.353-6.225,7.23c0.154,0,0.307-0.004,0.461,0.001c0.089,0.003,0.136-0.018,0.162-0.115
			c0.046-0.175,0.112-0.344,0.181-0.55c0.054,0.175,0.108,0.314,0.137,0.459c0.031,0.153,0.1,0.216,0.262,0.197
			c0.141-0.017,0.285-0.003,0.471-0.003c-0.169,0.13-0.302,0.243-0.446,0.34c-0.082,0.055-0.089,0.106-0.055,0.19
			c0.064,0.158,0.12,0.32,0.179,0.48C-4.882,8.235-4.89,8.24-4.898,8.246z"/>
		<path fill="#F1F7F7" d="M-2.965,8.246C-3.107,8.141-3.251,8.039-3.39,7.931C-3.449,7.885-3.491,7.883-3.553,7.93
			C-3.69,8.033-3.834,8.128-4.013,8.253c0.064-0.188,0.108-0.34,0.168-0.487c0.04-0.097,0.027-0.155-0.064-0.215
			C-4.044,7.462-4.168,7.357-4.335,7.23c0.203,0,0.363-0.004,0.523,0.002c0.082,0.003,0.117-0.026,0.14-0.105
			c0.05-0.175,0.112-0.346,0.184-0.56c0.062,0.202,0.116,0.365,0.161,0.531c0.025,0.092,0.067,0.132,0.17,0.125
			c0.166-0.011,0.332-0.003,0.539-0.003C-2.78,7.345-2.904,7.456-3.043,7.543C-3.15,7.611-3.151,7.676-3.107,7.778
			c0.062,0.145,0.11,0.296,0.164,0.444C-2.95,8.23-2.958,8.238-2.965,8.246z"/>
		<path fill="#F1F7F7" d="M-2.08,8.252C-2.016,8.064-1.97,7.91-1.91,7.761c0.037-0.091,0.029-0.146-0.057-0.204
			C-2.105,7.465-2.232,7.358-2.399,7.23c0.2,0,0.356-0.004,0.511,0.002c0.085,0.003,0.127-0.02,0.151-0.109
			c0.048-0.175,0.113-0.345,0.183-0.556c0.06,0.198,0.113,0.359,0.157,0.522c0.026,0.096,0.067,0.142,0.178,0.134
			c0.163-0.012,0.326-0.003,0.532-0.003c-0.164,0.127-0.295,0.24-0.438,0.336c-0.085,0.057-0.097,0.109-0.058,0.2
			c0.066,0.157,0.12,0.32,0.193,0.521c-0.177-0.13-0.321-0.232-0.459-0.341C-1.511,7.887-1.555,7.88-1.623,7.932
			C-1.759,8.037-1.904,8.131-2.08,8.252z"/>
		<path fill="#F1F7F7" d="M-0.191,8.21c0.055-0.157,0.106-0.316,0.165-0.471c0.029-0.075,0.018-0.122-0.05-0.17
			C-0.216,7.47-0.35,7.363-0.481,7.229c0.16,0,0.32-0.004,0.479,0.002c0.082,0.003,0.117-0.026,0.14-0.105
			c0.05-0.175,0.113-0.346,0.184-0.56c0.062,0.203,0.116,0.366,0.161,0.531c0.025,0.093,0.067,0.131,0.17,0.125
			c0.166-0.011,0.332-0.003,0.539-0.003C1.03,7.345,0.906,7.456,0.767,7.544C0.661,7.611,0.66,7.676,0.703,7.778
			c0.063,0.149,0.113,0.303,0.183,0.497C0.708,8.144,0.562,8.041,0.42,7.931C0.361,7.885,0.319,7.883,0.258,7.929
			C0.121,8.033-0.024,8.128-0.165,8.227C-0.174,8.221-0.182,8.216-0.191,8.21z"/>
		<path fill="#F1F7F7" d="M1.714,8.21C1.769,8.053,1.82,7.894,1.88,7.739c0.029-0.075,0.018-0.122-0.05-0.17
			C1.689,7.47,1.555,7.363,1.424,7.229c0.16,0,0.32-0.004,0.479,0.002c0.082,0.003,0.117-0.024,0.14-0.105
			c0.049-0.175,0.112-0.346,0.184-0.56c0.062,0.202,0.116,0.366,0.161,0.531c0.025,0.093,0.067,0.131,0.17,0.125
			c0.166-0.011,0.332-0.003,0.539-0.003C2.935,7.345,2.811,7.456,2.672,7.543C2.566,7.611,2.565,7.676,2.609,7.779
			c0.062,0.145,0.11,0.295,0.144,0.466C2.621,8.149,2.484,8.061,2.361,7.956C2.274,7.882,2.214,7.885,2.127,7.954
			C2.005,8.053,1.869,8.136,1.74,8.226C1.731,8.221,1.723,8.215,1.714,8.21z"/>
		<path fill="#F1F7F7" d="M4.976,7.219C4.806,7.35,4.678,7.46,4.538,7.552C4.445,7.613,4.44,7.67,4.48,7.764
			c0.064,0.153,0.115,0.311,0.148,0.482C4.486,8.142,4.342,8.04,4.203,7.932c-0.058-0.045-0.1-0.05-0.162-0.003
			C3.903,8.033,3.759,8.128,3.579,8.252c0.064-0.187,0.108-0.339,0.167-0.485c0.039-0.096,0.029-0.155-0.062-0.215
			c-0.135-0.089-0.26-0.194-0.383-0.322c0.16,0,0.319-0.004,0.479,0.002c0.081,0.003,0.118-0.023,0.14-0.104
			c0.049-0.175,0.112-0.346,0.184-0.561c0.062,0.202,0.116,0.365,0.161,0.53C4.289,7.189,4.33,7.229,4.434,7.222
			C4.599,7.211,4.767,7.219,4.976,7.219z"/>
		<path fill="#F1F7F7" d="M6.546,8.276C6.377,8.152,6.24,8.058,6.111,7.955C6.033,7.893,5.975,7.875,5.889,7.947
			C5.764,8.049,5.624,8.135,5.453,8.254C5.517,8.069,5.559,7.919,5.62,7.778C5.669,7.667,5.642,7.604,5.547,7.54
			c-0.13-0.087-0.252-0.187-0.369-0.309c0.146,0,0.292-0.006,0.437,0.002c0.106,0.006,0.164-0.021,0.192-0.135
			C5.848,6.931,5.912,6.77,5.98,6.566c0.062,0.202,0.116,0.366,0.161,0.533c0.025,0.094,0.07,0.129,0.171,0.123
			c0.165-0.01,0.332-0.003,0.539-0.003C6.68,7.351,6.544,7.462,6.401,7.562c-0.071,0.05-0.09,0.095-0.056,0.178
			C6.412,7.903,6.469,8.069,6.546,8.276z"/>
		<path fill="#F1F7F7" d="M7.887,6.563c0.062,0.204,0.114,0.363,0.156,0.525c0.026,0.098,0.069,0.141,0.178,0.133
			c0.163-0.011,0.326-0.003,0.532-0.003c-0.165,0.128-0.297,0.24-0.439,0.337c-0.085,0.058-0.095,0.11-0.057,0.201
			c0.066,0.157,0.12,0.32,0.193,0.52c-0.176-0.13-0.321-0.232-0.46-0.341C7.928,7.887,7.884,7.88,7.816,7.932
			C7.68,8.037,7.535,8.131,7.36,8.252C7.424,8.064,7.469,7.91,7.529,7.761C7.566,7.67,7.558,7.615,7.472,7.557
			C7.334,7.465,7.207,7.358,7.04,7.23c0.201,0,0.357-0.004,0.512,0.002c0.086,0.003,0.127-0.022,0.151-0.11
			C7.751,6.947,7.816,6.776,7.887,6.563z"/>
		<path fill="#F1F7F7" d="M7.359,1.181c0.066-0.194,0.116-0.352,0.176-0.506c0.031-0.081,0.022-0.13-0.052-0.181
			c-0.14-0.097-0.272-0.205-0.443-0.336c0.206,0,0.367-0.004,0.528,0.002c0.075,0.002,0.111-0.023,0.132-0.096
			c0.053-0.179,0.115-0.355,0.186-0.57c0.062,0.204,0.116,0.37,0.163,0.538C8.072,0.116,8.11,0.155,8.207,0.15
			c0.167-0.01,0.336-0.003,0.546-0.003C8.589,0.275,8.457,0.388,8.314,0.484C8.228,0.542,8.22,0.595,8.258,0.685
			c0.066,0.157,0.119,0.32,0.192,0.52c-0.177-0.13-0.322-0.232-0.46-0.342C7.926,0.813,7.882,0.81,7.815,0.861
			C7.679,0.965,7.534,1.059,7.359,1.181z"/>
		<path fill="#F1F7F7" d="M-6.49,10.538c-0.141,0.107-0.28,0.218-0.424,0.32c-0.067,0.047-0.079,0.094-0.049,0.168
			c0.066,0.164,0.124,0.33,0.167,0.515c-0.136-0.099-0.276-0.194-0.407-0.3c-0.075-0.06-0.13-0.071-0.21-0.006
			c-0.129,0.103-0.269,0.191-0.441,0.31c0.062-0.18,0.1-0.324,0.161-0.457c0.059-0.127,0.026-0.2-0.086-0.271
			c-0.124-0.08-0.238-0.176-0.351-0.296c0.154,0,0.308-0.004,0.461,0.002c0.089,0.003,0.136-0.019,0.161-0.116
			c0.046-0.175,0.112-0.344,0.181-0.55c0.052,0.171,0.102,0.307,0.133,0.446c0.035,0.157,0.102,0.237,0.28,0.211
			c0.135-0.02,0.276-0.004,0.414-0.004C-6.496,10.519-6.493,10.529-6.49,10.538z"/>
		<path fill="#F1F7F7" d="M-4.894,11.54c-0.131-0.096-0.268-0.186-0.392-0.291c-0.084-0.071-0.145-0.078-0.233-0.007
			c-0.125,0.101-0.263,0.185-0.43,0.301c0.064-0.187,0.107-0.339,0.169-0.482c0.046-0.106,0.02-0.165-0.07-0.226
			c-0.131-0.088-0.253-0.188-0.374-0.314c0.148,0,0.297-0.005,0.445,0.002c0.1,0.004,0.154-0.02,0.181-0.129
			c0.043-0.171,0.109-0.336,0.177-0.535c0.063,0.205,0.121,0.377,0.169,0.551c0.022,0.08,0.061,0.104,0.142,0.101
			c0.172-0.006,0.344-0.002,0.558-0.002c-0.168,0.13-0.301,0.243-0.444,0.34c-0.081,0.054-0.091,0.105-0.057,0.189
			c0.065,0.159,0.121,0.322,0.181,0.483C-4.88,11.528-4.887,11.534-4.894,11.54z"/>
		<path fill="#F1F7F7" d="M-3.487,9.857c0.059,0.194,0.112,0.353,0.155,0.514c0.027,0.101,0.07,0.15,0.186,0.142
			c0.161-0.012,0.324-0.003,0.528-0.003c-0.169,0.13-0.302,0.243-0.446,0.34c-0.082,0.055-0.088,0.106-0.055,0.19
			c0.065,0.159,0.121,0.322,0.161,0.501c-0.14-0.103-0.282-0.203-0.419-0.309c-0.065-0.051-0.114-0.063-0.187-0.005
			c-0.131,0.104-0.273,0.194-0.45,0.317c0.059-0.174,0.092-0.315,0.153-0.443c0.066-0.138,0.027-0.217-0.092-0.293
			c-0.12-0.077-0.23-0.17-0.34-0.286c0.154,0,0.308-0.004,0.462,0.002c0.09,0.003,0.136-0.021,0.161-0.116
			C-3.622,10.232-3.556,10.062-3.487,9.857z"/>
		<path fill="#F1F7F7" d="M-2.067,11.502c0.052-0.153,0.099-0.308,0.159-0.458c0.035-0.086,0.026-0.138-0.055-0.193
			c-0.138-0.094-0.267-0.201-0.395-0.332c0.159,0,0.319-0.004,0.478,0.002c0.081,0.003,0.118-0.022,0.141-0.103
			c0.051-0.178,0.115-0.352,0.185-0.563c0.061,0.201,0.114,0.364,0.159,0.53c0.025,0.091,0.064,0.134,0.168,0.127
			c0.166-0.011,0.333-0.003,0.542-0.003c-0.169,0.131-0.303,0.244-0.447,0.341c-0.082,0.055-0.087,0.107-0.054,0.19
			c0.064,0.159,0.12,0.321,0.161,0.5c-0.14-0.103-0.283-0.203-0.419-0.31c-0.066-0.052-0.115-0.06-0.186-0.004
			c-0.131,0.103-0.273,0.194-0.411,0.29C-2.049,11.512-2.058,11.507-2.067,11.502z"/>
		<path fill="#F1F7F7" d="M-0.205,11.545c0.064-0.185,0.105-0.332,0.166-0.47c0.051-0.115,0.024-0.183-0.078-0.249
			c-0.128-0.083-0.246-0.182-0.363-0.305c0.154,0,0.307-0.004,0.461,0.001c0.088,0.003,0.137-0.018,0.162-0.115
			c0.046-0.175,0.112-0.345,0.181-0.551c0.052,0.171,0.102,0.306,0.133,0.445c0.035,0.156,0.102,0.238,0.28,0.212
			c0.135-0.02,0.276-0.004,0.456-0.004c-0.168,0.13-0.301,0.243-0.445,0.34c-0.081,0.055-0.09,0.105-0.056,0.189
			c0.065,0.159,0.121,0.322,0.162,0.501c-0.136-0.099-0.275-0.195-0.406-0.3c-0.074-0.06-0.129-0.072-0.21-0.007
			C0.107,11.336-0.033,11.425-0.205,11.545z"/>
		<path fill="#F1F7F7" d="M1.715,11.5c0.053-0.153,0.099-0.308,0.16-0.458c0.036-0.088,0.019-0.138-0.059-0.191
			c-0.137-0.094-0.266-0.2-0.433-0.328c0.188,0,0.334-0.005,0.479,0.002c0.104,0.004,0.165-0.018,0.192-0.135
			c0.039-0.167,0.105-0.328,0.173-0.531c0.062,0.202,0.117,0.366,0.161,0.533c0.025,0.095,0.071,0.129,0.171,0.123
			c0.165-0.01,0.332-0.003,0.539-0.003c-0.173,0.132-0.309,0.243-0.452,0.344c-0.071,0.05-0.089,0.096-0.055,0.178
			c0.067,0.162,0.124,0.329,0.201,0.535c-0.165-0.12-0.298-0.21-0.423-0.311c-0.084-0.068-0.148-0.094-0.245-0.01
			c-0.118,0.103-0.257,0.183-0.387,0.272C1.73,11.512,1.723,11.506,1.715,11.5z"/>
		<path fill="#F1F7F7" d="M4.975,10.51c-0.17,0.131-0.301,0.242-0.443,0.337c-0.087,0.058-0.093,0.111-0.056,0.201
			c0.066,0.157,0.119,0.32,0.192,0.519c-0.177-0.13-0.322-0.232-0.46-0.341c-0.063-0.05-0.108-0.053-0.174-0.002
			c-0.136,0.105-0.281,0.198-0.456,0.32c0.066-0.194,0.115-0.352,0.176-0.507c0.031-0.081,0.022-0.13-0.052-0.181
			c-0.14-0.097-0.271-0.205-0.442-0.335c0.206,0,0.367-0.004,0.528,0.002c0.076,0.002,0.11-0.024,0.132-0.097
			c0.053-0.179,0.115-0.355,0.186-0.568c0.064,0.207,0.12,0.378,0.169,0.551c0.021,0.076,0.054,0.109,0.139,0.105
			C4.584,10.505,4.757,10.51,4.975,10.51z"/>
		<path fill="#F1F7F7" d="M6.545,11.567c-0.172-0.127-0.314-0.225-0.447-0.332C6.027,11.178,5.975,11.172,5.9,11.23
			c-0.132,0.103-0.273,0.194-0.446,0.314c0.06-0.175,0.096-0.319,0.158-0.45c0.062-0.133,0.026-0.209-0.089-0.282
			c-0.123-0.079-0.235-0.174-0.343-0.291c0.156,0,0.312-0.004,0.467,0.002c0.085,0.003,0.127-0.02,0.151-0.109
			c0.048-0.175,0.112-0.346,0.182-0.554c0.059,0.191,0.115,0.347,0.154,0.506c0.027,0.111,0.073,0.159,0.195,0.149
			C6.487,10.5,6.647,10.51,6.848,10.51c-0.164,0.127-0.295,0.24-0.438,0.336c-0.085,0.057-0.097,0.109-0.058,0.201
			C6.418,11.204,6.472,11.367,6.545,11.567z"/>
		<path fill="#F1F7F7" d="M7.886,9.857c0.059,0.194,0.112,0.353,0.155,0.514c0.027,0.101,0.07,0.15,0.186,0.142
			c0.161-0.012,0.324-0.003,0.528-0.003c-0.169,0.13-0.302,0.243-0.446,0.34c-0.082,0.055-0.089,0.106-0.055,0.19
			c0.065,0.159,0.121,0.322,0.161,0.501c-0.14-0.103-0.282-0.203-0.419-0.309c-0.065-0.051-0.114-0.063-0.186-0.006
			c-0.133,0.105-0.277,0.196-0.453,0.318c0.062-0.18,0.1-0.324,0.161-0.456c0.059-0.127,0.025-0.2-0.086-0.271
			c-0.124-0.08-0.238-0.176-0.351-0.295c0.154,0,0.308-0.004,0.462,0.002c0.09,0.003,0.136-0.021,0.161-0.116
			C7.752,10.232,7.817,10.062,7.886,9.857z"/>
		<path fill="#F1F7F7" d="M6.817,0.174c-0.141,0.107-0.279,0.218-0.423,0.32C6.328,0.541,6.313,0.586,6.343,0.661
			c0.066,0.164,0.125,0.331,0.168,0.516c-0.132-0.096-0.269-0.186-0.394-0.29c-0.083-0.07-0.144-0.08-0.233-0.008
			C5.759,0.98,5.621,1.064,5.454,1.179c0.065-0.19,0.109-0.346,0.171-0.495C5.665,0.59,5.646,0.539,5.563,0.483
			c-0.134-0.091-0.26-0.195-0.385-0.324c0.143,0,0.287-0.007,0.43,0.002C5.72,0.168,5.781,0.138,5.81,0.019
			C5.85-0.148,5.915-0.309,5.98-0.506C6.044-0.299,6.102-0.128,6.15,0.047c0.022,0.079,0.06,0.105,0.141,0.102
			c0.172-0.006,0.344-0.002,0.516-0.002C6.811,0.156,6.814,0.165,6.817,0.174z"/>
		<path fill="#F1F7F7" d="M4.976,0.147C4.802,0.28,4.666,0.391,4.522,0.492C4.449,0.543,4.437,0.591,4.47,0.67
			c0.066,0.163,0.124,0.329,0.2,0.535C4.496,1.077,4.355,0.98,4.222,0.873C4.151,0.816,4.099,0.808,4.023,0.867
			C3.892,0.97,3.75,1.061,3.577,1.181c0.06-0.176,0.096-0.319,0.158-0.45c0.062-0.133,0.026-0.208-0.089-0.282
			C3.523,0.37,3.411,0.274,3.303,0.157c0.156,0,0.312-0.004,0.467,0.002C3.856,0.162,3.897,0.138,3.922,0.05
			C3.97-0.125,4.034-0.296,4.105-0.507c0.06,0.198,0.114,0.359,0.157,0.523C4.287,0.113,4.33,0.157,4.439,0.15
			C4.602,0.138,4.766,0.147,4.976,0.147z"/>
		<path fill="#F1F7F7" d="M2.242-0.464c0.048,0.16,0.101,0.319,0.143,0.481C2.411,0.114,2.454,0.157,2.564,0.15
			C2.726,0.139,2.89,0.147,3.095,0.147c-0.16,0.125-0.287,0.236-0.427,0.328C2.57,0.539,2.561,0.597,2.605,0.698
			C2.672,0.85,2.721,1.009,2.791,1.204c-0.175-0.129-0.32-0.231-0.459-0.34C2.27,0.814,2.225,0.809,2.158,0.86
			C2.022,0.965,1.877,1.059,1.702,1.18c0.064-0.188,0.109-0.342,0.169-0.491C1.908,0.597,1.9,0.542,1.814,0.485
			C1.676,0.393,1.55,0.286,1.382,0.157c0.206,0,0.367-0.004,0.527,0.002C1.984,0.161,2.02,0.137,2.042,0.063
			c0.053-0.179,0.115-0.355,0.173-0.532C2.224-0.467,2.233-0.466,2.242-0.464z"/>
		<path fill="#F1F7F7" d="M-0.204,1.179c0.067-0.194,0.116-0.353,0.177-0.507c0.032-0.082,0.018-0.13-0.056-0.18
			C-0.22,0.397-0.35,0.291-0.48,0.159c0.143,0,0.287-0.007,0.43,0.002c0.112,0.007,0.173-0.022,0.202-0.142
			c0.041-0.167,0.105-0.327,0.171-0.524c0.064,0.206,0.121,0.377,0.169,0.552C0.513,0.125,0.55,0.152,0.632,0.149
			c0.172-0.007,0.344-0.002,0.559-0.002C1.025,0.276,0.892,0.388,0.749,0.485C0.67,0.539,0.655,0.589,0.69,0.674
			c0.065,0.159,0.121,0.322,0.198,0.527C0.725,1.084,0.592,0.997,0.471,0.896C0.381,0.82,0.314,0.803,0.215,0.887
			C0.096,0.988-0.041,1.067-0.204,1.179z"/>
		<path fill="#F1F7F7" d="M-0.717,0.175c-0.141,0.107-0.279,0.218-0.424,0.32c-0.067,0.047-0.079,0.093-0.05,0.168
			c0.066,0.164,0.125,0.331,0.167,0.515c-0.136-0.099-0.275-0.194-0.406-0.3c-0.074-0.06-0.129-0.072-0.21-0.007
			c-0.129,0.103-0.27,0.192-0.442,0.311c0.064-0.184,0.105-0.331,0.166-0.47c0.05-0.115,0.024-0.183-0.077-0.249
			c-0.128-0.083-0.246-0.182-0.363-0.305c0.153,0,0.307-0.004,0.46,0.001c0.088,0.003,0.137-0.018,0.162-0.115
			c0.046-0.175,0.112-0.345,0.18-0.548c0.057,0.182,0.116,0.33,0.148,0.483c0.03,0.141,0.1,0.181,0.236,0.17
			c0.147-0.012,0.296-0.003,0.443-0.003C-0.723,0.156-0.72,0.166-0.717,0.175z"/>
		<path fill="#F1F7F7" d="M-3.488-0.506c0.066,0.212,0.125,0.384,0.172,0.559C-3.295,0.13-3.258,0.15-3.184,0.148
			c0.175-0.005,0.351-0.001,0.568-0.001C-2.789,0.279-2.925,0.39-3.068,0.49c-0.072,0.05-0.089,0.096-0.055,0.178
			c0.067,0.163,0.124,0.329,0.201,0.536C-3.091,1.08-3.228,0.986-3.357,0.883c-0.077-0.062-0.135-0.08-0.222-0.008
			C-3.704,0.977-3.844,1.062-4.013,1.18c0.064-0.188,0.107-0.342,0.168-0.489c0.041-0.099,0.022-0.155-0.066-0.214
			c-0.134-0.09-0.258-0.194-0.422-0.319c0.188,0,0.334-0.005,0.48,0.002c0.106,0.005,0.164-0.02,0.192-0.135
			C-3.621-0.142-3.556-0.302-3.488-0.506z"/>
		<path fill="#F1F7F7" d="M-4.584,0.173c-0.14,0.107-0.276,0.218-0.42,0.318C-5.078,0.542-5.088,0.591-5.056,0.67
			C-4.99,0.833-4.932,1-4.856,1.205c-0.178-0.131-0.322-0.232-0.46-0.341C-5.379,0.815-5.423,0.808-5.491,0.86
			C-5.627,0.965-5.772,1.058-5.948,1.18c0.06-0.174,0.096-0.318,0.157-0.449c0.062-0.133,0.026-0.209-0.089-0.282
			C-6.003,0.37-6.115,0.274-6.223,0.157c0.156,0,0.312-0.004,0.467,0.002c0.085,0.003,0.127-0.02,0.151-0.109
			c0.048-0.175,0.112-0.346,0.182-0.554c0.059,0.191,0.115,0.346,0.154,0.506C-5.24,0.112-5.195,0.16-5.073,0.15
			c0.157-0.013,0.317-0.003,0.475-0.003C-4.593,0.156-4.588,0.165-4.584,0.173z"/>
		<path fill="#F1F7F7" d="M-8.172,0.158c0.164,0,0.282,0,0.4,0c0.225,0,0.224,0,0.292-0.208c0.046-0.141,0.095-0.281,0.153-0.454
			c0.063,0.205,0.12,0.376,0.168,0.55c0.022,0.079,0.059,0.106,0.141,0.103c0.172-0.007,0.345-0.002,0.559-0.002
			c-0.167,0.129-0.299,0.241-0.442,0.339C-6.98,0.539-6.995,0.588-6.959,0.674c0.065,0.159,0.121,0.322,0.198,0.527
			c-0.162-0.117-0.296-0.203-0.416-0.305c-0.09-0.076-0.157-0.094-0.256-0.01c-0.119,0.101-0.256,0.181-0.419,0.293
			c0.066-0.194,0.116-0.352,0.176-0.507c0.032-0.082,0.019-0.13-0.055-0.181C-7.871,0.395-8.002,0.288-8.172,0.158z"/>
		<path fill="#F1F7F7" d="M-7.855,6.464c0.064-0.185,0.105-0.332,0.166-0.47c0.051-0.115,0.024-0.183-0.078-0.249
			C-7.895,5.662-8.013,5.563-8.13,5.44c0.154,0,0.307-0.004,0.461,0.001c0.089,0.003,0.136-0.018,0.162-0.115
			c0.046-0.175,0.112-0.345,0.18-0.548c0.058,0.187,0.118,0.339,0.152,0.497c0.028,0.132,0.092,0.166,0.218,0.156
			c0.152-0.012,0.305-0.003,0.5-0.003c-0.168,0.13-0.301,0.243-0.445,0.34c-0.081,0.054-0.091,0.105-0.057,0.189
			C-6.894,6.117-6.838,6.28-6.797,6.46c-0.136-0.099-0.275-0.194-0.406-0.3c-0.074-0.06-0.129-0.072-0.21-0.007
			C-7.542,6.256-7.683,6.344-7.855,6.464z"/>
		<path fill="#F1F7F7" d="M-5.949,6.463c0.066-0.194,0.116-0.352,0.176-0.507c0.032-0.081,0.022-0.13-0.053-0.181
			c-0.14-0.097-0.271-0.205-0.443-0.335c0.206,0,0.367-0.003,0.528,0.002c0.075,0.002,0.11-0.023,0.132-0.097
			c0.053-0.179,0.115-0.355,0.186-0.57c0.062,0.204,0.116,0.37,0.163,0.539C-5.235,5.399-5.197,5.438-5.1,5.432
			c0.167-0.01,0.336-0.003,0.546-0.003c-0.161,0.125-0.288,0.237-0.428,0.329c-0.098,0.064-0.105,0.123-0.062,0.223
			c0.066,0.152,0.115,0.311,0.185,0.505c-0.175-0.129-0.32-0.231-0.459-0.341c-0.063-0.05-0.108-0.053-0.174-0.002
			C-5.628,6.248-5.773,6.341-5.949,6.463z"/>
		<path fill="#F1F7F7" d="M8.412,4.728C8.273,4.625,8.133,4.525,7.997,4.419C7.932,4.368,7.884,4.356,7.811,4.414
			C7.679,4.518,7.537,4.608,7.376,4.72c0.025-0.168,0.082-0.303,0.139-0.432c0.061-0.14,0.026-0.218-0.093-0.294
			c-0.12-0.077-0.23-0.17-0.34-0.287c0.154,0,0.308-0.004,0.462,0.002c0.09,0.003,0.136-0.02,0.161-0.116
			C7.752,3.419,7.817,3.25,7.886,3.045c0.059,0.194,0.113,0.353,0.155,0.515C8.069,3.661,8.112,3.709,8.228,3.7
			c0.161-0.012,0.324-0.003,0.528-0.003c-0.169,0.13-0.302,0.244-0.447,0.341c-0.082,0.055-0.088,0.107-0.054,0.19
			c0.065,0.159,0.121,0.322,0.18,0.483C8.427,4.716,8.42,4.722,8.412,4.728z"/>
		<path fill="#F1F7F7" d="M6.504,4.724C6.362,4.62,6.218,4.518,6.079,4.41c-0.058-0.045-0.1-0.051-0.162-0.003
			C5.78,4.511,5.635,4.606,5.455,4.731c0.064-0.188,0.108-0.339,0.167-0.485C5.66,4.151,5.654,4.091,5.561,4.031
			c-0.136-0.088-0.26-0.194-0.427-0.322c0.197,0,0.352-0.004,0.506,0.002C5.73,3.713,5.775,3.689,5.8,3.593
			c0.046-0.174,0.112-0.343,0.181-0.549c0.061,0.2,0.114,0.364,0.159,0.53C6.166,3.666,6.205,3.707,6.309,3.7
			c0.166-0.011,0.333-0.003,0.541-0.003C6.685,3.826,6.556,3.937,6.414,4.03C6.322,4.091,6.316,4.149,6.356,4.242
			C6.42,4.395,6.471,4.553,6.527,4.709C6.52,4.714,6.512,4.719,6.504,4.724z"/>
		<path fill="#F1F7F7" d="M3.311,3.708c0.159,0,0.318-0.004,0.476,0.002c0.076,0.003,0.109-0.025,0.131-0.098
			c0.053-0.179,0.115-0.355,0.186-0.568c0.064,0.207,0.12,0.378,0.169,0.551C4.294,3.672,4.329,3.703,4.413,3.7
			c0.172-0.007,0.345-0.002,0.56-0.002c-0.162,0.126-0.289,0.238-0.43,0.329C4.444,4.091,4.439,4.15,4.482,4.25
			c0.065,0.149,0.114,0.305,0.186,0.502C4.499,4.629,4.36,4.536,4.231,4.43C4.15,4.364,4.092,4.362,4.009,4.428
			C3.883,4.529,3.745,4.615,3.578,4.73c0.066-0.193,0.115-0.352,0.175-0.507C3.785,4.143,3.775,4.093,3.7,4.043
			C3.584,3.966,3.475,3.878,3.366,3.792C3.342,3.772,3.288,3.765,3.311,3.708z"/>
		<path fill="#F1F7F7" d="M2.228,3.045c0.064,0.207,0.121,0.378,0.169,0.553c0.022,0.079,0.06,0.105,0.141,0.102
			C2.71,3.693,2.882,3.697,3.097,3.697c-0.167,0.129-0.3,0.242-0.443,0.339C2.574,4.09,2.561,4.14,2.595,4.225
			c0.065,0.159,0.121,0.322,0.198,0.527C2.631,4.634,2.497,4.548,2.376,4.447C2.286,4.37,2.219,4.354,2.12,4.437
			C2.001,4.538,1.864,4.618,1.701,4.73c0.067-0.194,0.116-0.353,0.176-0.507c0.032-0.082,0.018-0.13-0.055-0.18
			C1.685,3.947,1.555,3.841,1.425,3.709c0.143,0,0.287-0.007,0.43,0.002c0.112,0.007,0.173-0.022,0.202-0.142
			C2.098,3.403,2.162,3.242,2.228,3.045z"/>
		<path fill="#F1F7F7" d="M1.194,3.697C1.024,3.828,0.893,3.939,0.751,4.035C0.665,4.092,0.657,4.145,0.695,4.236
			c0.066,0.157,0.119,0.32,0.192,0.52c-0.177-0.13-0.322-0.232-0.46-0.342C0.364,4.364,0.319,4.36,0.253,4.411
			c-0.136,0.105-0.281,0.198-0.457,0.32c0.066-0.194,0.116-0.352,0.176-0.507c0.031-0.081,0.022-0.13-0.052-0.181
			c-0.14-0.097-0.272-0.205-0.443-0.336c0.207,0,0.367-0.004,0.528,0.002c0.076,0.002,0.11-0.023,0.132-0.096
			c0.053-0.179,0.115-0.355,0.186-0.57c0.062,0.204,0.116,0.37,0.163,0.538C0.509,3.667,0.547,3.706,0.645,3.7
			C0.812,3.691,0.98,3.697,1.194,3.697z"/>
		<path fill="#F1F7F7" d="M-2.067,4.688c0.055-0.157,0.106-0.316,0.165-0.471c0.029-0.075,0.019-0.122-0.05-0.17
			c-0.141-0.098-0.275-0.206-0.406-0.34c0.16,0,0.32-0.004,0.479,0.002c0.082,0.003,0.117-0.025,0.14-0.105
			c0.05-0.175,0.113-0.346,0.184-0.56c0.062,0.202,0.116,0.365,0.161,0.531c0.025,0.093,0.067,0.131,0.17,0.125
			c0.166-0.011,0.332-0.003,0.539-0.003C-0.846,3.823-0.97,3.934-1.109,4.022c-0.106,0.067-0.107,0.133-0.064,0.235
			C-1.109,4.406-1.06,4.56-0.99,4.754c-0.178-0.131-0.325-0.234-0.466-0.344c-0.059-0.046-0.101-0.048-0.162-0.002
			C-1.756,4.511-1.9,4.606-2.041,4.705C-2.05,4.699-2.058,4.694-2.067,4.688z"/>
		<path fill="#F1F7F7" d="M-4.014,4.73c0.066-0.193,0.115-0.352,0.176-0.506c0.032-0.082,0.02-0.13-0.054-0.181
			c-0.139-0.097-0.271-0.204-0.442-0.335c0.207,0,0.368-0.004,0.529,0.002c0.076,0.002,0.11-0.025,0.131-0.098
			c0.053-0.179,0.115-0.355,0.186-0.567c0.064,0.207,0.121,0.378,0.169,0.552c0.022,0.078,0.058,0.106,0.14,0.103
			c0.172-0.007,0.345-0.002,0.559-0.002c-0.166,0.129-0.299,0.241-0.442,0.339C-3.14,4.09-3.156,4.139-3.12,4.224
			c0.065,0.159,0.122,0.322,0.198,0.528c-0.162-0.118-0.296-0.204-0.416-0.305c-0.09-0.076-0.157-0.095-0.257-0.01
			C-3.714,4.538-3.851,4.618-4.014,4.73z"/>
		<path fill="#F1F7F7" d="M-4.548,3.697c-0.178,0.135-0.32,0.246-0.466,0.351c-0.06,0.043-0.076,0.086-0.048,0.157
			c0.067,0.168,0.128,0.338,0.206,0.548c-0.165-0.12-0.299-0.211-0.424-0.312c-0.085-0.068-0.148-0.094-0.245-0.009
			C-5.643,4.536-5.782,4.616-5.947,4.73c0.063-0.187,0.107-0.341,0.168-0.487c0.041-0.099,0.023-0.155-0.066-0.214
			c-0.134-0.09-0.258-0.194-0.423-0.319c0.189,0,0.335-0.006,0.48,0.002c0.106,0.005,0.164-0.02,0.192-0.135
			c0.04-0.167,0.105-0.328,0.173-0.532c0.062,0.203,0.117,0.367,0.161,0.533C-5.235,3.672-5.19,3.706-5.089,3.7
			C-4.924,3.69-4.758,3.697-4.548,3.697z"/>
		<path fill="#F1F7F7" d="M-4.001,6.418c0.049-0.139,0.088-0.283,0.148-0.417c0.055-0.121,0.023-0.191-0.082-0.26
			C-4.06,5.658-4.177,5.56-4.29,5.44c0.156,0,0.312-0.004,0.467,0.002c0.084,0.003,0.128-0.019,0.152-0.108
			c0.048-0.175,0.112-0.346,0.183-0.556c0.052,0.169,0.093,0.303,0.134,0.437C-3.289,5.43-3.289,5.43-3.067,5.429
			c0.137,0,0.274,0,0.452,0c-0.174,0.133-0.31,0.244-0.454,0.344c-0.073,0.051-0.086,0.098-0.053,0.179
			c0.067,0.163,0.124,0.329,0.2,0.535C-3.095,6.36-3.236,6.262-3.37,6.156C-3.44,6.099-3.492,6.09-3.568,6.149
			C-3.7,6.252-3.841,6.343-3.978,6.439C-3.986,6.432-3.993,6.425-4.001,6.418z"/>
		<path fill="#F1F7F7" d="M-2.066,6.417c0.051-0.149,0.096-0.3,0.155-0.445c0.037-0.091,0.029-0.146-0.057-0.204
			C-2.105,5.675-2.232,5.568-2.399,5.44c0.2,0,0.356-0.004,0.512,0.002c0.085,0.003,0.127-0.02,0.151-0.109
			c0.048-0.175,0.112-0.345,0.182-0.554C-1.495,4.969-1.439,5.125-1.4,5.284c0.027,0.111,0.073,0.159,0.195,0.149
			c0.157-0.013,0.317-0.003,0.518-0.003c-0.164,0.127-0.295,0.24-0.438,0.336c-0.084,0.057-0.097,0.109-0.058,0.2
			c0.067,0.157,0.12,0.32,0.193,0.521c-0.176-0.13-0.321-0.231-0.459-0.34C-1.511,6.097-1.555,6.09-1.623,6.142
			c-0.136,0.105-0.281,0.198-0.423,0.297C-2.052,6.432-2.059,6.424-2.066,6.417z"/>
		<path fill="#F1F7F7" d="M0.324,4.774C0.385,4.978,0.438,5.137,0.48,5.299C0.506,5.397,0.549,5.44,0.658,5.432
			C0.821,5.421,0.985,5.429,1.19,5.429C1.026,5.557,0.894,5.67,0.752,5.766c-0.085,0.058-0.095,0.11-0.057,0.201
			c0.066,0.157,0.12,0.32,0.193,0.52c-0.177-0.13-0.321-0.232-0.46-0.341C0.365,6.097,0.32,6.091,0.253,6.143
			c-0.136,0.105-0.281,0.198-0.456,0.32c0.064-0.188,0.109-0.343,0.169-0.492C0.003,5.88-0.005,5.825-0.091,5.767
			C-0.229,5.675-0.356,5.568-0.523,5.44c0.2,0,0.356-0.004,0.512,0.002c0.085,0.003,0.127-0.021,0.151-0.11
			C0.188,5.157,0.253,4.987,0.324,4.774z"/>
		<path fill="#F1F7F7" d="M3.065,5.457c-0.141,0.107-0.279,0.218-0.423,0.32C2.576,5.823,2.56,5.869,2.59,5.944
			c0.066,0.164,0.125,0.331,0.203,0.54C2.631,6.366,2.497,6.281,2.376,6.179C2.285,6.102,2.219,6.086,2.12,6.17
			C2.001,6.27,1.864,6.35,1.701,6.462c0.067-0.194,0.116-0.353,0.176-0.507c0.032-0.082,0.018-0.13-0.055-0.18
			C1.685,5.679,1.555,5.573,1.425,5.441c0.138,0,0.278-0.008,0.415,0.002c0.125,0.01,0.191-0.027,0.222-0.155
			C2.102,5.126,2.164,4.97,2.227,4.776c0.064,0.208,0.122,0.379,0.17,0.554c0.022,0.08,0.06,0.105,0.141,0.102
			C2.71,5.425,2.883,5.429,3.055,5.429C3.058,5.439,3.062,5.448,3.065,5.457z"/>
		<path fill="#F1F7F7" d="M4.634,6.46C4.506,6.367,4.373,6.281,4.253,6.179c-0.09-0.077-0.157-0.094-0.256-0.01
			C3.878,6.27,3.741,6.35,3.578,6.462c0.066-0.194,0.116-0.353,0.176-0.507c0.032-0.082,0.019-0.13-0.055-0.181
			C3.56,5.678,3.428,5.57,3.305,5.439c0.128,0,0.257-0.012,0.382,0.003c0.16,0.019,0.23-0.041,0.264-0.196
			c0.032-0.149,0.094-0.291,0.153-0.469c0.064,0.205,0.121,0.377,0.169,0.551c0.022,0.079,0.058,0.106,0.141,0.103
			c0.172-0.007,0.345-0.002,0.559-0.002C4.806,5.558,4.674,5.671,4.531,5.768C4.452,5.822,4.436,5.87,4.471,5.956
			C4.537,6.115,4.593,6.278,4.653,6.44C4.647,6.446,4.64,6.453,4.634,6.46z"/>
		<path fill="#F1F7F7" d="M5.454,6.463C5.521,6.267,5.57,6.108,5.63,5.954c0.032-0.083,0.017-0.13-0.056-0.18
			C5.437,5.679,5.307,5.573,5.177,5.441c0.143,0,0.287-0.007,0.43,0.002C5.72,5.45,5.781,5.42,5.81,5.301
			c0.041-0.167,0.105-0.327,0.17-0.524c0.064,0.206,0.121,0.378,0.169,0.553c0.022,0.079,0.06,0.105,0.141,0.102
			c0.172-0.006,0.344-0.002,0.561-0.002C6.679,5.562,6.54,5.674,6.394,5.777C6.328,5.824,6.313,5.869,6.343,5.944
			C6.409,6.108,6.468,6.275,6.511,6.46C6.379,6.364,6.243,6.273,6.117,6.17C6.035,6.101,5.974,6.087,5.884,6.161
			C5.759,6.263,5.621,6.347,5.454,6.463z"/>
		<path fill="#F1F7F7" d="M8.414,6.46C8.282,6.364,8.146,6.274,8.022,6.169C7.938,6.098,7.877,6.09,7.789,6.162
			c-0.125,0.101-0.263,0.185-0.43,0.301c0.064-0.187,0.107-0.338,0.168-0.482c0.045-0.106,0.02-0.165-0.07-0.226
			C7.326,5.667,7.204,5.567,7.083,5.44c0.153,0,0.307-0.004,0.46,0.001C7.631,5.445,7.68,5.424,7.705,5.327
			c0.046-0.175,0.112-0.345,0.18-0.549c0.058,0.186,0.118,0.339,0.152,0.497c0.028,0.131,0.091,0.166,0.218,0.157
			c0.152-0.012,0.305-0.003,0.5-0.003c-0.168,0.13-0.301,0.243-0.445,0.34C8.23,5.823,8.22,5.874,8.254,5.958
			C8.319,6.117,8.375,6.28,8.435,6.441C8.428,6.447,8.421,6.454,8.414,6.46z"/>
		<path fill="#F1F7F7" d="M-7.84,4.686c0.05-0.144,0.092-0.292,0.153-0.43c0.049-0.111,0.021-0.174-0.074-0.238
			c-0.13-0.087-0.251-0.187-0.368-0.309c0.151,0,0.302-0.005,0.452,0.002c0.096,0.004,0.145-0.02,0.172-0.122
			c0.044-0.171,0.109-0.336,0.179-0.542c0.052,0.169,0.093,0.302,0.133,0.436c0.066,0.216,0.065,0.216,0.286,0.215
			c0.137,0,0.274,0,0.454,0c-0.179,0.136-0.32,0.247-0.467,0.352c-0.061,0.044-0.074,0.087-0.047,0.157
			C-6.9,4.374-6.839,4.545-6.761,4.755C-6.93,4.631-7.068,4.537-7.197,4.433C-7.275,4.37-7.332,4.354-7.419,4.425
			c-0.125,0.103-0.265,0.188-0.398,0.281C-7.825,4.699-7.832,4.693-7.84,4.686z"/>
		<path fill="#F1F7F7" d="M-3.447,1.86c0.157,0,0.314-0.004,0.47,0.002c0.079,0.003,0.119-0.019,0.142-0.102
			C-2.786,1.585-2.722,1.414-2.651,1.2c0.062,0.202,0.116,0.364,0.16,0.53c0.025,0.093,0.068,0.13,0.17,0.124
			c0.165-0.011,0.332-0.003,0.541-0.003c-0.177,0.134-0.319,0.245-0.465,0.35c-0.06,0.043-0.076,0.085-0.047,0.157
			c0.065,0.163,0.123,0.328,0.157,0.512c-0.133-0.098-0.27-0.193-0.399-0.297C-2.607,2.514-2.66,2.514-2.734,2.571
			c-0.132,0.102-0.272,0.192-0.442,0.311C-3.109,2.688-3.06,2.53-3,2.375c0.031-0.081,0.019-0.13-0.055-0.181
			c-0.137-0.095-0.267-0.2-0.4-0.301C-3.452,1.882-3.449,1.871-3.447,1.86z"/>
		<path fill="#F1F7F7" d="M6.137,8.847c0.152,0,0.304-0.004,0.456,0.001c0.089,0.003,0.136-0.021,0.161-0.117
			c0.045-0.171,0.109-0.336,0.179-0.546c0.062,0.202,0.116,0.364,0.16,0.53c0.025,0.094,0.068,0.13,0.17,0.124
			c0.165-0.01,0.332-0.003,0.539-0.003C7.63,8.968,7.495,9.08,7.35,9.179C7.276,9.23,7.264,9.277,7.297,9.357
			c0.064,0.158,0.119,0.319,0.151,0.498C7.311,9.754,7.171,9.656,7.037,9.55C6.974,9.5,6.928,9.498,6.862,9.549
			c-0.136,0.104-0.28,0.198-0.455,0.319c0.067-0.193,0.117-0.352,0.176-0.506C6.615,9.28,6.603,9.231,6.529,9.18
			c-0.137-0.095-0.267-0.2-0.4-0.301C6.132,8.868,6.134,8.857,6.137,8.847z"/>
		<path fill="#F1F7F7" d="M7.352,2.859C7.201,2.797,7.079,2.689,6.954,2.588C6.871,2.521,6.81,2.508,6.721,2.58
			C6.596,2.682,6.458,2.766,6.292,2.881C6.359,2.688,6.409,2.53,6.468,2.375c0.031-0.081,0.02-0.13-0.054-0.181
			C6.275,2.098,6.144,1.991,6.02,1.86c0.123,0,0.247-0.012,0.367,0.003c0.161,0.02,0.244-0.029,0.277-0.196
			c0.029-0.148,0.093-0.289,0.153-0.465c0.063,0.204,0.121,0.375,0.168,0.549c0.022,0.08,0.06,0.104,0.141,0.101
			c0.172-0.006,0.344-0.002,0.556-0.002C7.518,1.979,7.386,2.092,7.243,2.189C7.164,2.242,7.15,2.29,7.183,2.376
			C7.244,2.535,7.32,2.691,7.35,2.861L7.352,2.859z"/>
		<path fill="#F1F7F7" d="M-0.088,9.854c-0.134-0.099-0.27-0.196-0.402-0.299c-0.065-0.051-0.114-0.062-0.187-0.005
			C-0.808,9.654-0.95,9.745-1.124,9.867c0.063-0.186,0.107-0.337,0.166-0.483c0.039-0.096,0.032-0.155-0.061-0.216
			C-1.155,9.08-1.278,8.974-1.401,8.846c0.126,0,0.253-0.012,0.377,0.003c0.155,0.018,0.237-0.026,0.269-0.189
			c0.03-0.148,0.093-0.29,0.154-0.473c0.064,0.207,0.12,0.376,0.168,0.548c0.021,0.076,0.055,0.108,0.139,0.104
			c0.172-0.008,0.345-0.002,0.561-0.002C0.095,8.968-0.043,9.079-0.188,9.182c-0.066,0.047-0.082,0.091-0.052,0.166
			c0.064,0.159,0.12,0.321,0.18,0.481C-0.07,9.837-0.079,9.846-0.088,9.854z"/>
		<path fill="#F1F7F7" d="M-3.953,9.854C-4.08,9.762-4.212,9.675-4.332,9.575c-0.083-0.069-0.144-0.081-0.234-0.009
			c-0.125,0.101-0.263,0.186-0.429,0.301c0.067-0.194,0.117-0.352,0.177-0.507C-4.786,9.278-4.8,9.23-4.874,9.179
			c-0.137-0.094-0.267-0.2-0.395-0.332c0.154,0,0.307-0.004,0.461,0.002c0.091,0.004,0.135-0.025,0.16-0.118
			c0.045-0.17,0.109-0.336,0.178-0.543c0.052,0.17,0.092,0.302,0.132,0.435c0.065,0.215,0.065,0.215,0.286,0.214
			c0.137,0,0.274,0,0.451,0C-3.773,8.969-3.909,9.08-4.053,9.18c-0.074,0.051-0.084,0.099-0.052,0.178
			c0.064,0.158,0.119,0.319,0.178,0.479C-3.936,9.843-3.945,9.848-3.953,9.854z"/>
		<path fill="#F1F7F7" d="M-7.167,8.847c0.148,0,0.296-0.005,0.444,0.002c0.096,0.004,0.145-0.022,0.172-0.123
			c0.044-0.17,0.109-0.336,0.177-0.538c0.063,0.205,0.12,0.375,0.168,0.548c0.022,0.078,0.057,0.106,0.14,0.103
			c0.172-0.007,0.345-0.002,0.561-0.002C-5.678,8.968-5.817,9.08-5.962,9.182c-0.066,0.047-0.081,0.092-0.051,0.167
			c0.063,0.159,0.12,0.32,0.154,0.504c-0.131-0.096-0.267-0.188-0.393-0.29C-6.328,9.501-6.384,9.497-6.463,9.56
			C-6.59,9.661-6.728,9.748-6.898,9.867c0.063-0.186,0.107-0.339,0.166-0.484c0.04-0.097,0.029-0.155-0.063-0.215
			c-0.135-0.088-0.259-0.194-0.387-0.292C-7.177,8.866-7.172,8.857-7.167,8.847z"/>
		<path fill="#F1F7F7" d="M-5.108,2.88C-5.045,2.695-5.001,2.54-4.94,2.391c0.037-0.092,0.029-0.146-0.058-0.204
			c-0.137-0.092-0.263-0.198-0.428-0.325c0.186,0,0.328-0.007,0.469,0.002c0.113,0.007,0.173-0.026,0.203-0.143
			c0.041-0.165,0.104-0.325,0.169-0.52c0.065,0.208,0.123,0.38,0.17,0.555c0.02,0.075,0.054,0.099,0.13,0.097
			c0.176-0.005,0.352-0.002,0.568-0.002c-0.17,0.131-0.305,0.243-0.449,0.341C-4.24,2.243-4.254,2.289-4.222,2.369
			c0.064,0.158,0.12,0.319,0.152,0.5C-4.206,2.768-4.345,2.67-4.479,2.565C-4.541,2.517-4.587,2.51-4.654,2.562
			C-4.791,2.666-4.935,2.76-5.108,2.88z"/>
		<path fill="#F1F7F7" d="M-0.181,2.859C-0.339,2.796-0.46,2.68-0.592,2.58c-0.074-0.057-0.13-0.073-0.211-0.008
			c-0.129,0.103-0.27,0.192-0.439,0.31c0.064-0.186,0.106-0.338,0.168-0.481c0.046-0.106,0.021-0.165-0.07-0.226
			c-0.13-0.087-0.252-0.188-0.372-0.313c0.154,0,0.308-0.004,0.461,0.002c0.092,0.004,0.135-0.024,0.16-0.118
			C-0.85,1.574-0.786,1.409-0.716,1.2c0.06,0.199,0.114,0.358,0.157,0.52c0.026,0.098,0.069,0.141,0.178,0.133
			c0.162-0.011,0.326-0.003,0.53-0.003c-0.159,0.124-0.285,0.237-0.426,0.327C-0.378,2.243-0.38,2.3-0.341,2.401
			c0.059,0.151,0.131,0.298,0.157,0.46L-0.181,2.859z"/>
		<path fill="#F1F7F7" d="M4.15,1.86c0.158,0,0.316-0.003,0.474,0.001c0.075,0.002,0.11-0.023,0.132-0.097
			c0.052-0.178,0.115-0.354,0.184-0.563C4.999,1.389,5.059,1.54,5.092,1.697C5.12,1.83,5.184,1.863,5.309,1.854
			c0.152-0.011,0.305-0.003,0.498-0.003C5.64,1.98,5.508,2.094,5.363,2.19C5.28,2.245,5.275,2.297,5.308,2.379
			C5.37,2.533,5.425,2.69,5.457,2.867c-0.125-0.09-0.253-0.177-0.374-0.273C5,2.528,4.937,2.498,4.839,2.584
			C4.72,2.687,4.582,2.767,4.418,2.88c0.063-0.185,0.106-0.339,0.167-0.485c0.042-0.1,0.023-0.155-0.065-0.215
			C4.386,2.091,4.262,1.987,4.134,1.889C4.139,1.88,4.145,1.87,4.15,1.86z"/>
		<path fill="#F1F7F7" d="M3.58,2.868C3.448,2.771,3.311,2.677,3.183,2.574C3.112,2.517,3.059,2.511,2.984,2.569
			C2.852,2.672,2.711,2.763,2.54,2.882C2.6,2.708,2.636,2.565,2.698,2.434c0.062-0.132,0.027-0.209-0.089-0.283
			c-0.123-0.078-0.235-0.173-0.341-0.29c0.156,0,0.312-0.004,0.468,0.002C2.823,1.866,2.86,1.835,2.884,1.749
			C2.933,1.575,2.997,1.406,3.066,1.2c0.06,0.199,0.114,0.362,0.158,0.528C3.249,1.82,3.288,1.861,3.393,1.854
			c0.166-0.011,0.333-0.003,0.538-0.003C3.77,1.976,3.647,2.087,3.508,2.175C3.4,2.242,3.401,2.306,3.445,2.408
			c0.061,0.144,0.108,0.293,0.161,0.44C3.597,2.855,3.589,2.862,3.58,2.868z"/>
		<path fill="#F1F7F7" d="M2.031,1.851c-0.177,0.134-0.315,0.244-0.46,0.346c-0.067,0.047-0.08,0.093-0.05,0.167
			c0.063,0.159,0.12,0.32,0.155,0.502C1.559,2.782,1.433,2.709,1.327,2.612c-0.109-0.1-0.193-0.102-0.304-0.005
			C0.915,2.701,0.79,2.774,0.637,2.881c0.063-0.186,0.106-0.339,0.167-0.485C0.844,2.298,0.83,2.241,0.739,2.181
			C0.605,2.092,0.481,1.987,0.36,1.861c0.155,0,0.311-0.004,0.466,0.002c0.085,0.003,0.127-0.019,0.152-0.109
			c0.047-0.175,0.112-0.345,0.181-0.548c0.066,0.207,0.126,0.382,0.175,0.559c0.019,0.07,0.052,0.09,0.12,0.088
			C1.631,1.848,1.808,1.851,2.031,1.851z"/>
		<path fill="#F1F7F7" d="M4.546,9.821c0.053-0.153,0.102-0.308,0.161-0.458c0.031-0.08,0.023-0.13-0.052-0.182
			c-0.139-0.096-0.271-0.204-0.44-0.333c0.192,0,0.339-0.005,0.486,0.002C4.801,8.854,4.854,8.828,4.882,8.72
			C4.925,8.55,4.99,8.387,5.057,8.189c0.064,0.206,0.122,0.378,0.17,0.553c0.02,0.075,0.054,0.099,0.13,0.097
			c0.176-0.005,0.352-0.002,0.568-0.002C5.754,8.968,5.619,9.08,5.475,9.178C5.401,9.229,5.387,9.275,5.42,9.355
			c0.064,0.158,0.119,0.319,0.152,0.499c-0.137-0.101-0.276-0.199-0.41-0.304C5.1,9.502,5.054,9.496,4.987,9.547
			C4.851,9.652,4.706,9.746,4.565,9.844C4.558,9.837,4.552,9.829,4.546,9.821z"/>
		<path fill="#F1F7F7" d="M4.049,8.837C3.877,8.968,3.741,9.08,3.597,9.179C3.523,9.23,3.512,9.278,3.544,9.358
			c0.064,0.158,0.119,0.319,0.152,0.497C3.57,9.762,3.438,9.675,3.318,9.575c-0.082-0.068-0.144-0.083-0.234-0.01
			c-0.125,0.101-0.263,0.186-0.43,0.301C2.722,9.673,2.772,9.515,2.832,9.36C2.863,9.279,2.85,9.23,2.776,9.179
			c-0.137-0.095-0.267-0.2-0.395-0.332c0.153,0,0.307-0.004,0.46,0.002c0.09,0.003,0.136-0.022,0.161-0.117
			C3.046,8.561,3.11,8.395,3.18,8.187c0.062,0.202,0.116,0.365,0.16,0.53c0.025,0.094,0.07,0.128,0.171,0.122
			C3.677,8.829,3.843,8.837,4.049,8.837z"/>
		<path fill="#F1F7F7" d="M0.763,9.828C0.814,9.68,0.859,9.529,0.918,9.384C0.957,9.289,0.95,9.229,0.857,9.168
			C0.722,9.08,0.598,8.974,0.475,8.846c0.126,0,0.253-0.012,0.378,0.003C1.007,8.867,1.089,8.822,1.121,8.66
			c0.03-0.149,0.093-0.29,0.154-0.474c0.062,0.202,0.115,0.367,0.162,0.535c0.024,0.085,0.061,0.125,0.159,0.119
			c0.167-0.01,0.336-0.003,0.544-0.003C1.98,8.961,1.853,9.074,1.713,9.165C1.612,9.229,1.609,9.288,1.652,9.387
			c0.063,0.144,0.109,0.294,0.139,0.466c-0.127-0.093-0.26-0.179-0.38-0.28C1.327,9.502,1.265,9.495,1.177,9.567
			C1.055,9.667,0.919,9.75,0.789,9.84C0.781,9.836,0.772,9.832,0.763,9.828z"/>
		<path fill="#F1F7F7" d="M-2.023,9.852c-0.124-0.09-0.25-0.176-0.369-0.271C-2.476,9.513-2.54,9.485-2.638,9.569
			c-0.118,0.103-0.257,0.183-0.421,0.296C-2.996,9.68-2.952,9.527-2.891,9.38c0.042-0.1,0.023-0.156-0.065-0.215
			C-3.09,9.076-3.214,8.972-3.334,8.846c0.156,0,0.312-0.004,0.467,0.002c0.086,0.003,0.127-0.022,0.151-0.11
			c0.048-0.175,0.112-0.345,0.181-0.55c0.064,0.205,0.121,0.376,0.168,0.549c0.022,0.08,0.06,0.104,0.141,0.101
			c0.172-0.006,0.344-0.002,0.556-0.002c-0.167,0.129-0.3,0.243-0.444,0.339c-0.083,0.055-0.088,0.107-0.055,0.189
			c0.062,0.154,0.116,0.311,0.174,0.467C-2.004,9.838-2.014,9.845-2.023,9.852z"/>
		<path fill="#F1F7F7" d="M-7.001,2.841c0.052-0.153,0.099-0.308,0.159-0.457c0.035-0.087,0.025-0.138-0.055-0.193
			c-0.138-0.094-0.266-0.2-0.435-0.329c0.188,0,0.334-0.005,0.479,0.002c0.106,0.005,0.164-0.023,0.192-0.136
			c0.041-0.166,0.105-0.327,0.172-0.526c0.064,0.206,0.12,0.376,0.168,0.548c0.021,0.077,0.056,0.107,0.14,0.104
			c0.172-0.007,0.345-0.002,0.56-0.002c-0.171,0.131-0.31,0.242-0.455,0.345c-0.066,0.047-0.082,0.092-0.052,0.166
			c0.063,0.159,0.12,0.321,0.155,0.505C-6.106,2.771-6.241,2.68-6.367,2.578C-6.443,2.517-6.499,2.51-6.578,2.574
			c-0.127,0.101-0.265,0.189-0.398,0.282C-6.985,2.851-6.993,2.846-7.001,2.841z"/>
		<polygon fill="#F1F7F7" points="7.35,2.861 7.36,2.866 7.36,2.873 7.352,2.859 		"/>
		<polygon fill="#F1F7F7" points="-0.184,2.861 -0.175,2.867 -0.181,2.859 		"/>
	</g>
</g>
</svg>
