<?xml version="1.0" encoding="utf-8"?>
<!-- Generator: Adobe Illustrator 17.0.2, SVG Export Plug-In . SVG Version: 6.00 Build 0)  -->
<!DOCTYPE svg PUBLIC "-//W3C//DTD SVG 1.1//EN" "http://www.w3.org/Graphics/SVG/1.1/DTD/svg11.dtd">
<svg version="1.1" id="Layer_1" xmlns="http://www.w3.org/2000/svg" xmlns:xlink="http://www.w3.org/1999/xlink" x="0px" y="0px"
	 width="20px" height="20px" viewBox="0 0 20 20" enable-background="new 0 0 20 20" xml:space="preserve">
<g id="Layer_1_1_">
</g>
<g id="Layer_1_2_">
</g>
<g id="VYEeca_1_">
	<g>
		<path fill="#DDD9D9" d="M-2.754,12.356c0-2.559,0-5.119,0-7.678C-2.723,4.68-2.691,4.682-2.66,4.682
			c11.438,0,13.876,0,25.314,0.002c0.083,0,0.103-0.019,0.102-0.102c-0.003-2.522-0.002-5.043-0.002-7.565
			c0.005,0.004,0.018-0.009,0.017,0.009c-0.001,0.023,0,0.046,0,0.069c0,7.621,0,15.241,0.002,22.862
			c0,0.065-0.015,0.079-0.079,0.079c-11.457-0.002-13.914-0.001-25.37-0.003c-0.025,0-0.059,0.02-0.078-0.016
			c11.467,0,13.934,0,25.401,0.002c0.092,0,0.109-0.026,0.109-0.112c-0.002-2.479-0.002-4.957-0.002-7.436
			c0-0.119,0-0.119-0.116-0.119c-11.43,0-13.859,0-25.289,0C-2.685,12.352-2.72,12.355-2.754,12.356z"/>
		<path fill="#844754" d="M22.755-2.983c0,2.522,0,5.043,0.002,7.565c0,0.083-0.02,0.102-0.102,0.102
			C11.216,4.682,8.778,4.682-2.66,4.682c-0.031,0-0.063-0.003-0.094-0.004c0-2.524,0-5.049-0.002-7.573
			c0-0.069,0.009-0.09,0.086-0.09C8.805-2.983,11.28-2.983,22.755-2.983z"/>
		<path fill="#4E597C" d="M-2.754,12.356c0.034-0.001,0.069-0.004,0.103-0.004c11.43,0,13.859,0,25.289,0
			c0.116,0,0.116,0,0.116,0.119c0,2.479,0,4.957,0.002,7.436c0,0.087-0.017,0.112-0.109,0.112
			C11.18,20.017,8.713,20.017-2.754,20.017C-2.754,17.464-2.754,14.91-2.754,12.356z"/>
	</g>
</g>
</svg>
