<?xml version="1.0" encoding="utf-8"?>
<!-- Generator: Adobe Illustrator 17.0.2, SVG Export Plug-In . SVG Version: 6.00 Build 0)  -->
<!DOCTYPE svg PUBLIC "-//W3C//DTD SVG 1.1//EN" "http://www.w3.org/Graphics/SVG/1.1/DTD/svg11.dtd">
<svg version="1.1" id="Layer_1" xmlns="http://www.w3.org/2000/svg" xmlns:xlink="http://www.w3.org/1999/xlink" x="0px" y="0px"
	 width="20px" height="20px" viewBox="0 0 20 20" enable-background="new 0 0 20 20" xml:space="preserve">
<g id="Layer_1_1_">
</g>
<g id="Layer_1_2_">
</g>
<rect x="-0.5" y="-0.75" fill="#007681" width="21.75" height="21.75"/>
<g>
	<path fill="#DDD9D9" d="M15.355,1.797c0.007-0.023-0.013-0.037-0.018-0.055c-0.004-0.017-0.006-0.036,0.013-0.045
		c0.019-0.009,0.023,0.009,0.031,0.02c0.015,0.023,0.027,0.01,0.039-0.004c0.013-0.015,0.01-0.04,0.031-0.05
		c0.02-0.019,0.019,0.07,0.051,0.009c0.007-0.013,0.01,0.012,0.014,0.019c0.029,0.033,0.041,0.027,0.036-0.017
		C15.55,1.67,15.554,1.664,15.555,1.66c0.025-0.011,0.036,0.024,0.06,0.02c-0.005-0.048-0.053-0.053-0.082-0.078
		c0.053-0.039,0.077-0.039,0.127-0.001c0.077,0.059,0.077,0.059,0.138-0.011c0.018-0.029,0.047-0.032,0.088-0.009
		c-0.005-0.041-0.009-0.076-0.012-0.111c0.055,0.031,0.098,0.078,0.142,0.122c-0.039,0.037-0.037,0.079-0.025,0.129
		c0.042-0.025,0.019-0.077,0.058-0.096c0.024,0.009,0.048,0.019,0.067,0.038c0.149,0.139,0.312,0.264,0.45,0.416
		c0.064,0.07,0.148,0.12,0.21,0.192c0.066,0.076,0.133,0.151,0.199,0.226c0,0.053,0.008,0.061,0.044,0.042
		c0.105,0.114,0.214,0.225,0.298,0.357c0.01,0.026,0.022,0.051,0.029,0.077c0.01,0.038,0.034,0.047,0.069,0.038
		c0.031,0.007,0.048,0.032,0.065,0.054c0.137,0.187,0.276,0.372,0.408,0.562c0.142,0.205,0.278,0.413,0.405,0.628
		c0.173,0.292,0.328,0.594,0.475,0.9c0.096,0.199,0.183,0.403,0.262,0.61c0.041,0.107,0.078,0.215,0.119,0.322
		c0.048,0.126,0.093,0.253,0.127,0.384c0.007,0.027,0.024,0.053,0.013,0.084c-0.027,0.001-0.036,0.016-0.031,0.04
		c0.004,0.016,0.014,0.029,0,0.048c-0.042,0.055-0.031,0.126-0.052,0.188c-0.015,0.043,0.001,0.058,0.055,0.067
		c0.019,0.003,0.043,0.012,0.039,0.025c-0.016,0.052,0.019,0.093,0.024,0.14c0.009,0.097,0.077,0.162,0.136,0.231
		c0.021,0.007,0.029,0.007,0.022,0.001c-0.008,0.017,0.005,0.025,0.014,0.035c0.032,0.021,0.022,0.058,0.027,0.086
		c0.019,0.097,0.054,0.193,0.046,0.294c-0.017,0.024,0,0.062-0.038,0.079c-0.015,0.007-0.015,0.031-0.012,0.048
		c0.011,0.077,0.028,0.152,0.071,0.219c0.011,0.016,0.024,0.024,0.044,0.017c0.031,0.146,0.039,0.295,0.058,0.442
		c0.026,0.205,0.025,0.411,0.046,0.616c0.005,0.051,0.012,0.103-0.008,0.153c-0.042,0.004-0.08,0.003-0.123-0.016
		c-0.034-0.015-0.083,0.002-0.112-0.039c-0.017,0.03,0.019,0.051,0,0.074c-0.059,0.069-0.06,0.07-0.018,0.14
		c0.018,0.03,0.031,0.061,0.041,0.094c0.014,0.046,0.028,0.093,0.067,0.127c0.012,0.011,0.026,0.027,0.028,0.042
		c0.007,0.072,0.069,0.099,0.113,0.14c0.019,0.015,0.015,0.036,0.013,0.056c-0.018,0.16-0.021,0.321-0.033,0.481
		c-0.009,0.114-0.021,0.229-0.036,0.342c-0.02,0.151-0.043,0.301-0.066,0.451c-0.028,0.19-0.065,0.379-0.105,0.567
		c-0.003,0.012-0.007,0.022-0.017,0.028c-0.072,0.045-0.148,0.08-0.229,0.105c-0.037,0.028-0.074,0.048-0.126,0.04
		c-0.04-0.006-0.088,0-0.118,0.039c-0.047,0.062-0.111,0.066-0.179,0.054c-0.061-0.01-0.079-0.033-0.072-0.095
		c0.004-0.035,0.003-0.063-0.01-0.098c-0.019-0.052-0.032-0.115-0.021-0.168c0.015-0.072,0.004-0.143,0.017-0.214
		c0.004-0.024-0.003-0.045-0.018-0.065c-0.038-0.05-0.049-0.117-0.1-0.159c-0.013-0.01-0.014-0.025-0.013-0.039
		c0.007-0.066-0.036-0.118-0.052-0.177c-0.011-0.041-0.044-0.082-0.08-0.097c-0.1-0.039-0.112-0.123-0.122-0.209
		c-0.005-0.041,0.017-0.087-0.033-0.116c-0.004-0.06,0.002-0.119,0.018-0.178c0.008-0.094-0.025-0.169-0.098-0.227
		c-0.044-0.035-0.067-0.076-0.066-0.133c0.001-0.05-0.022-0.09-0.054-0.131c-0.056-0.073-0.117-0.145-0.141-0.239
		c-0.012-0.048-0.032-0.095-0.094-0.095c-0.025,0-0.018-0.03-0.033-0.04c-0.052,0.095-0.07,0.095-0.132,0.014
		c-0.015-0.02-0.018-0.042-0.026-0.063c-0.013-0.033-0.032-0.061-0.058-0.085c-0.011-0.01-0.022-0.003-0.032,0.002
		c-0.012,0.032-0.005,0.062,0.021,0.09c0.034,0.05,0.089,0.094,0.07,0.168c-0.002,0.007,0.01,0.02,0.019,0.027
		c0.024,0.02,0.025,0.047,0.034,0.075c0.023,0.076,0.047,0.15,0.1,0.219c0.056,0.074,0.109,0.162,0.09,0.273
		c0.046,0.141,0.111,0.274,0.193,0.397c-0.008,0.062,0.018,0.123-0.005,0.187c-0.022,0.059-0.027,0.125,0.012,0.183
		c0.03,0.044,0.067,0.087,0.104,0.121c0.067,0.06,0.073,0.132,0.076,0.209c0.002,0.058,0.004,0.115,0.012,0.172
		c0.003,0.018,0.007,0.035,0.02,0.046c0.082,0.068,0.175,0.125,0.213,0.234c0.023,0.021,0.045,0.042,0.067,0.064
		c0.004,0.065,0.057,0.096,0.093,0.139c0.034,0.041,0.035,0.08,0.011,0.127c-0.011,0.021-0.037,0.028-0.044,0.063
		c0.05,0.004,0.039,0.052,0.056,0.084c0.048,0.088,0.083,0.102,0.179,0.075c0.039-0.011,0.083-0.041,0.123-0.006
		c0.028,0.024,0.05,0.017,0.078,0.003c0.074-0.037,0.149-0.073,0.231-0.088c-0.003,0.096-0.041,0.185-0.068,0.275
		c-0.098,0.322-0.213,0.638-0.333,0.952c-0.003,0.007-0.011,0.013-0.016,0.02c-0.012-0.018-0.017-0.002-0.024,0.005
		c-0.06,0.053-0.114,0.117-0.182,0.156c-0.119,0.069-0.215,0.164-0.308,0.259c-0.078,0.081-0.147,0.173-0.194,0.278
		c-0.039,0.04-0.079,0.078-0.121,0.115c-0.011,0.021-0.024,0.028-0.045,0.033c-0.08,0.018-0.115,0.08-0.129,0.152
		c-0.009,0.043-0.022,0.08-0.051,0.112c-0.038,0.04-0.056,0.091-0.081,0.139c-0.035,0.069-0.044,0.136,0.008,0.201
		c0.022,0.028,0.028,0.057,0.007,0.087c-0.047,0.067-0.044,0.146-0.057,0.222c-0.016,0.095,0.028,0.163,0.081,0.231
		c-0.087,0.14-0.193,0.265-0.293,0.395c-0.151,0.197-0.318,0.381-0.479,0.569c-0.175,0.204-0.368,0.391-0.563,0.576
		c-0.188,0.178-0.389,0.343-0.587,0.511c-0.243,0.206-0.501,0.388-0.765,0.565c-0.15,0.101-0.3,0.205-0.463,0.284
		c-0.003-0.057-0.042-0.106-0.036-0.167c0.012-0.131-0.004-0.18-0.088-0.292c-0.003-0.004-0.006-0.01-0.008-0.015
		c-0.024-0.084-0.046-0.169-0.022-0.258c0.021-0.019,0.006-0.042,0.009-0.063c0.026-0.071,0.009-0.143,0.007-0.214
		c0.012-0.007,0.014-0.016,0.007-0.028c0.018-0.068-0.006-0.142,0.033-0.208c0.011-0.019-0.009-0.036-0.017-0.054
		c-0.01-0.022-0.036-0.041-0.021-0.07c0.019-0.038-0.001-0.064-0.022-0.093c-0.042-0.055-0.055-0.129-0.044-0.184
		c0.01-0.054-0.006-0.077-0.032-0.111c-0.015-0.02-0.025-0.045-0.037-0.067c-0.003-0.012-0.012-0.014-0.023-0.014
		c-0.005-0.077,0.037-0.149,0.029-0.227c-0.003,0.006,0.001,0,0.011-0.016c-0.009-0.084,0.023-0.154,0.075-0.218
		c0.022-0.028,0.047-0.06,0.052-0.093c0.016-0.112,0.078-0.194,0.155-0.269c0.018-0.018,0.028-0.043,0.037-0.067
		c0.031-0.086,0.035-0.172,0.01-0.261c-0.02-0.071-0.021-0.146,0.01-0.209c0.024-0.049,0.024-0.094,0.016-0.139
		c-0.014-0.08-0.031-0.161-0.06-0.238c0.002-0.008,0-0.015-0.007-0.021c0.002-0.031,0.011-0.068-0.019-0.088
		c-0.051-0.034,0.022-0.058,0.004-0.087c-0.003-0.005-0.007-0.009-0.01-0.014c-0.052-0.065-0.1-0.134-0.143-0.205
		c0.03-0.054-0.034-0.067-0.042-0.104c0.078,0.032,0.123-0.003,0.168-0.068c0.045-0.066,0.1-0.126,0.158-0.183
		c0.1-0.099,0.209-0.191,0.291-0.308c0.033-0.047,0.058-0.101,0.095-0.144c0.096-0.111,0.184-0.229,0.273-0.345
		c0.121-0.158,0.234-0.319,0.327-0.496c0.06-0.114,0.119-0.229,0.174-0.346c0.064-0.135,0.143-0.263,0.184-0.408
		c0.006-0.021,0.023-0.04,0.034-0.06c0.021-0.038,0.054-0.074,0.06-0.113c0.024-0.158,0.1-0.297,0.152-0.445
		c0.039-0.111,0.085-0.219,0.098-0.339c0.008-0.073,0.027-0.146,0.064-0.214c0.026-0.048,0.036-0.103,0.036-0.158
		c0-0.029-0.002-0.058,0.004-0.086c0.029-0.146,0.043-0.295,0.066-0.442c0.018-0.093,0.044-0.183,0.076-0.272
		c-0.019-0.076,0.008-0.148,0.01-0.222c0.006-0.191-0.014-0.38-0.016-0.57c-0.001-0.045-0.034-0.046-0.054-0.066
		C16.798,9,16.866,8.999,16.93,9.049c0.035,0.027,0.081,0.039,0.131,0.034c0.037-0.003,0.08-0.012,0.111,0.027
		c0.062,0.014,0.121,0.003,0.177-0.036c0.007-0.012,0.058-0.002,0.086,0.006c0.029,0.007,0.033,0.01,0.029-0.005
		c-0.013-0.058,0.023-0.031,0.044-0.026c0.016,0.023,0.036,0.04,0.061,0.053c0.068-0.049,0.144-0.003,0.216-0.023
		c0.057-0.016,0.081-0.045,0.105-0.097c0.032-0.071,0.026-0.153,0.073-0.217c0.011-0.015,0.008-0.033,0.009-0.05
		c0.002-0.037,0.013-0.07,0.034-0.103c0.019-0.031,0.044-0.069,0.009-0.11c-0.011-0.013-0.006-0.033,0.003-0.049
		c0.009-0.016,0.004-0.031-0.003-0.048c0.027,0.072,0.006-0.257-0.02-0.266c-0.015-0.005-0.028-0.003-0.035,0.014
		c-0.006,0.014-0.016,0.032-0.028,0.029c-0.063-0.013-0.095,0.041-0.141,0.062c-0.077,0.035-0.156,0.045-0.225-0.021
		c-0.026-0.025-0.057-0.038-0.089-0.05c-0.067-0.025-0.078-0.023-0.11,0.043c-0.016,0.033-0.049,0.038-0.072,0.06
		c-0.01,0.009-0.024,0.006-0.031-0.003c-0.021-0.028-0.056-0.039-0.071-0.074c-0.011-0.026-0.074-0.053-0.103-0.067
		c-0.04-0.019-0.079-0.042-0.116-0.065c-0.012-0.007-0.015-0.056-0.02-0.087c-0.006-0.036-0.008-0.069-0.058-0.068
		c-0.022,0-0.024-0.025-0.024-0.04c-0.001-0.036,0.023-0.006,0.035-0.01c0.016-0.005,0.031-0.021,0.023-0.029
		c-0.031-0.037,0-0.078-0.011-0.117c-0.016-0.038-0.043-0.059-0.08-0.064c-0.016-0.087,0.026-0.139,0.126-0.156
		c0.048,0.004,0.089-0.042,0.142-0.017c0.015,0.007,0.043-0.006,0.053-0.022c0.019-0.032,0.051-0.021,0.078-0.03
		c0.004,0.008-0.126-0.069-0.029-0.062c0.042,0.003,0.085-0.01,0.127,0.007c0.04,0.015,0.075,0.005,0.111-0.024
		c0.064-0.051,0.138-0.088,0.218-0.11c0.016-0.004,0.038-0.009,0.051-0.002c0.058,0.031,0.132,0,0.185,0.051
		c0.008,0.008,0.029,0.01,0.042,0.007c0.06-0.014,0.053,0.052,0.085,0.07c0.037,0.021,0.076-0.045,0.11-0.002
		c0.03,0.038,0.075,0.039,0.113,0.056c0.077,0.01,0.153,0.011,0.231,0.005c0.08,0.033,0.193-0.104,0.168-0.189
		c-0.024-0.084-0.078-0.145-0.154-0.174c-0.085-0.033-0.135-0.105-0.202-0.157c-0.041-0.032-0.073-0.078-0.122-0.102
		c-0.011-0.005-0.017-0.014-0.024-0.024c-0.024-0.065-0.067-0.08-0.129-0.045C17.941,6.756,17.861,6.77,17.79,6.81
		c-0.036,0.02-0.076,0.026-0.126,0.035c0.023-0.045,0.014-0.086-0.006-0.122c-0.022-0.039-0.067-0.039-0.113-0.041
		c0.024-0.073,0.094-0.066,0.143-0.092c-0.023-0.046-0.07-0.081-0.104-0.061c-0.06,0.006-0.113-0.007-0.157-0.04
		c0.012-0.019,0.034-0.008,0.048-0.018c-0.042-0.07-0.107-0.057-0.197,0.037c-0.017,0.034-0.037,0.062-0.066,0.088
		c-0.022,0.02-0.034,0.05-0.036,0.084c-0.003,0.044,0.016,0.101-0.052,0.117c0.003,0.047-0.049,0.079-0.037,0.128
		c0.011,0.043-0.006,0.078-0.034,0.107c-0.037,0.038-0.041,0.092-0.07,0.134c-0.005,0.007-0.011,0.015-0.003,0.023
		c0.055,0.062,0.109,0.125,0.164,0.187c-0.001,0.016-0.017,0.02-0.03,0.027c-0.045,0.023-0.098,0.013-0.144,0.049
		c-0.038,0.029-0.084,0.059-0.142,0.08c0.011-0.043,0.009-0.077-0.026-0.103c-0.068-0.037-0.142-0.043-0.224-0.018
		c-0.019-0.004-0.04,0.004-0.06,0.006c0.03-0.027,0.039-0.054,0.024-0.097c-0.027-0.078-0.047-0.159-0.066-0.241
		c-0.016-0.066-0.025-0.135-0.051-0.199c-0.059-0.143-0.114-0.289-0.141-0.441c-0.019-0.107-0.061-0.203-0.109-0.298
		c-0.07-0.141-0.152-0.277-0.225-0.416c-0.046-0.086-0.088-0.175-0.131-0.262c-0.027-0.054-0.079-0.094-0.093-0.155
		c-0.024-0.101-0.092-0.179-0.141-0.266c-0.022-0.039-0.041-0.073-0.039-0.118c0.038-0.041,0.091-0.047,0.143-0.053
		c0.006-0.001,0.079-0.01,0.027,0.045c-0.012,0.013,0.008,0.029,0.029,0.028c0.028-0.001,0.052-0.044,0.086-0.008
		c0.008,0.009,0.019-0.009,0.022-0.017c0.011-0.029,0.032-0.055,0.022-0.09c-0.009-0.03,0.007-0.047,0.029-0.066
		c0.035-0.03,0.045-0.007,0.054,0.023c0.045-0.026,0.046-0.059,0.031-0.104c-0.046-0.13-0.022-0.255,0.043-0.373
		c0.025-0.046,0.051-0.042,0.086,0.003c0.034,0.044,0.063,0.097,0.131,0.1c0.043,0.002,0.071-0.018,0.056-0.058
		c-0.02-0.054-0.023-0.106-0.015-0.161c0.002-0.016,0.003-0.037-0.016-0.046c-0.075-0.082-0.081-0.145-0.018-0.188
		c0.08-0.02,0.156-0.056,0.242-0.046c0.023,0.003,0.053,0.012,0.072-0.014c0.017-0.023,0.032-0.013,0.051-0.001
		c0.037,0.023,0.075,0.04,0.092-0.023c0.002-0.008,0.009-0.016,0.019-0.014c0.073,0.017,0.131-0.061,0.207-0.033
		c-0.033-0.048-0.062-0.09-0.133-0.071c-0.038,0.01-0.115-0.058-0.119-0.103c-0.003-0.035-0.029-0.035-0.038-0.026
		c-0.033,0.033-0.073,0.024-0.112,0.032c-0.106,0.104-0.225,0.138-0.357,0.101c-0.021-0.028-0.032-0.039-0.05,0.002
		c-0.007,0.017-0.031,0.019-0.043,0.002c-0.013-0.02-0.016-0.044,0.01-0.059c0.016-0.009,0.042,0.002,0.053-0.028
		c-0.043-0.022-0.07-0.065-0.126-0.078c-0.044-0.01-0.084-0.049-0.08-0.108c-0.083-0.126-0.093-0.251-0.03-0.373
		c0.054-0.024,0.067-0.088,0.123-0.115c0.044-0.022,0.044-0.09,0.065-0.136c0.015-0.032,0.005-0.078,0.055-0.088
		c0.005-0.001,0.01-0.014,0.012-0.021c0.017-0.062-0.052-0.173-0.117-0.183c-0.059-0.009-0.119-0.013-0.179-0.018
		c-0.008-0.001-0.025,0.001-0.025,0.001c0,0.05-0.056,0.064-0.068,0.096c-0.02,0.055-0.053,0.116-0.013,0.18
		c0.009,0.015,0.034,0.037,0.016,0.054c-0.039,0.093-0.11,0.148-0.212,0.164c-0.013,0-0.024,0.008-0.025,0.019
		c-0.005,0.04-0.015,0.076-0.057,0.092c0.017,0.048-0.023,0.058-0.05,0.077c-0.011,0.007-0.016,0.018-0.011,0.029
		c0.027,0.061,0.007,0.121-0.001,0.182c-0.005,0.033,0.013,0.061,0.019,0.092c0.005,0.031,0.02,0.06,0.017,0.093
		c-0.002,0.022,0.015,0.041,0.037,0.04c0.101-0.002,0.128,0.084,0.176,0.144c0.005,0.007,0.005,0.017,0.011,0.023
		c0.042,0.045-0.09,0.035-0.027,0.09c0.018,0.016-0.023,0.064-0.073,0.088c-0.033,0.016-0.07-0.01-0.105,0.015
		c-0.022,0.017-0.023,0.01-0.022,0.045c0.003,0.074,0.012,0.149-0.004,0.222c-0.01,0.043-0.006,0.086-0.012,0.127
		c0.018,0.012,0.027-0.011,0.042-0.005c-0.029,0.082-0.082,0.115-0.159,0.101c-0.071-0.001-0.114,0.038-0.112,0.115
		c0.001,0.032-0.016,0.042-0.036,0.05c-0.036,0.014-0.074,0.008-0.111,0.006c-0.016-0.001-0.024-0.012-0.028-0.028
		c-0.018-0.064-0.032-0.13-0.003-0.192c0.011-0.023,0.01-0.028-0.007-0.046c-0.048-0.052-0.083-0.115-0.134-0.166
		c-0.022-0.022-0.035-0.055-0.02-0.088c0.01-0.023,0.004-0.043-0.012-0.054c-0.052-0.036-0.056-0.088-0.051-0.141
		c-0.019-0.014-0.03-0.004-0.042,0.003c-0.116,0.067-0.232,0.135-0.35,0.199c-0.027,0.015-0.067,0.028-0.089-0.015
		c-0.051-0.008-0.094-0.033-0.13-0.075c-0.013-0.02-0.02-0.044,0.005-0.062c0.044-0.046,0.037-0.083-0.021-0.11
		c-0.026,0.008-0.039-0.005-0.053-0.014c-0.023-0.014-0.018-0.034,0.002-0.049c0.08-0.06,0.08-0.06,0.104-0.146
		c-0.053,0.04-0.055,0.042-0.113-0.014c-0.018-0.018-0.048-0.003-0.06-0.036c0.001-0.025,0.079-0.046,0.014-0.088
		c0.016-0.043,0.052-0.051,0.107-0.026c0.035,0.011,0.071,0.016,0.1-0.016c-0.04-0.004-0.077-0.041-0.124,0
		c-0.016,0.013-0.061-0.024-0.101-0.021c-0.019,0.002-0.007-0.051-0.035-0.071c-0.01-0.007,0.001-0.028,0.019-0.029
		c0.037-0.003,0.075-0.004,0.112-0.006c-0.004-0.023-0.026-0.015-0.04-0.021c-0.015-0.006-0.039-0.002-0.041-0.024
		c0.05-0.039,0.109-0.057,0.176-0.054c-0.002-0.026-0.021-0.02-0.031-0.027c-0.01-0.007-0.016-0.016-0.014-0.029
		c0.003-0.015,0.014-0.016,0.026-0.018c0.003,0,0.006,0,0.009,0c0.076-0.015,0.08-0.024,0.038-0.086
		c0.008-0.019,0.026-0.01,0.038-0.01c0.069,0,0.108-0.035,0.121-0.099c0.006-0.029,0.015-0.034,0.045-0.033
		c0.068,0.003,0.068-0.001,0.097,0.041c0.019,0.019,0.04,0.02,0.062,0.004c0.005-0.014,0.011-0.027,0.016-0.041
		c0.044-0.005,0.052-0.04,0.055-0.08c-0.03,0.026-0.061,0.052-0.091,0.078c-0.039-0.005-0.057-0.015-0.025-0.056
		c0.032-0.042,0.057-0.09,0.084-0.135c0.015-0.001,0.025-0.008,0.032-0.019c0.008,0,0.012-0.004,0.013-0.012
		c0.011-0.062,0.066-0.027,0.099-0.041c-0.034-0.071-0.034-0.071,0.034-0.109c0.007-0.004,0.015-0.008,0.023-0.012
		c0.038-0.081,0.085-0.157,0.14-0.229c0.04-0.029,0.077-0.046,0.077-0.102c0-0.039,0.04-0.024,0.058-0.036
		c0.002-0.051-0.055-0.077-0.052-0.127c0.031-0.023,0.053,0.006,0.079,0.014c0.002,0.006,0.005,0.011,0.007,0.017
		c0.004-0.007,0.001-0.012-0.008-0.016c-0.01-0.048,0.041-0.043,0.066-0.065c-0.037-0.02-0.08,0.036-0.096-0.01
		c0.024-0.028,0.049-0.054,0.077-0.078c-0.018-0.058,0.033-0.097,0.037-0.148c0.003-0.031,0.008-0.042,0.04-0.023
		c0.024,0.015,0.028-0.026,0.049-0.023c0.002,0.001,0.004,0.002,0.006,0.003C15.359,1.798,15.357,1.798,15.355,1.797
		C15.362,1.775,15.357,1.798,15.355,1.797z M17.835,4.052c-0.02-0.065-0.02-0.065-0.076-0.026c0.033,0,0.056,0.012,0.077,0.025
		c0.016,0.038,0.011,0.061-0.038,0.056c-0.014-0.002-0.029-0.023-0.043,0.002c0.024,0.025,0.047,0.05,0.07,0.075
		c0.02,0.022,0.046,0.033,0.072,0.045c0.036,0.017,0.057-0.017,0.065-0.038C17.966,4.111,17.923,4.065,17.835,4.052
		C17.815,3.987,17.876,4.065,17.835,4.052z M17.368,3.323c-0.006-0.014,0.053,0.048,0.05,0.048c0.026,0,0.032,0.021,0.035,0.042
		c0.003,0.021-0.008,0.03-0.028,0.035c-0.025,0.006-0.045,0.019-0.058,0.046c0.073,0.055,0.14,0.111,0.198,0.18
		c0.013-0.094-0.011-0.176-0.072-0.246C17.467,3.335,17.468,3.335,17.368,3.323z M17.48,14.012
		c-0.023-0.017-0.041,0.019-0.058-0.001c-0.013-0.015-0.028-0.031-0.033-0.049c-0.005-0.019-0.004-0.039-0.02-0.054
		c-0.012-0.011-0.025-0.021-0.035-0.004c-0.019,0.034-0.042,0.024-0.072,0.019c-0.07-0.012-0.13,0.025-0.137,0.086
		c-0.004,0.033-0.009,0.062-0.027,0.089c-0.007,0.01-0.01,0.024-0.003,0.033c0.039,0.045,0.012,0.085-0.007,0.125
		c-0.023,0.05-0.008,0.094,0.02,0.136c0.014,0.02,0.023,0.026,0.043-0.002c0.038-0.055,0.078-0.06,0.12-0.034
		c0.026,0.015,0.01,0.053,0.045,0.071c0-0.052-0.001-0.096,0.065-0.094c0.028,0.001,0.031-0.024,0.009-0.042
		c-0.036-0.03-0.031-0.057,0.002-0.085c0.004-0.003,0.006-0.01,0.006-0.016C17.404,14.121,17.458,14.075,17.48,14.012
		C17.457,13.995,17.458,14.075,17.48,14.012z M18.337,6.358c-0.105-0.007-0.191,0.023-0.275,0.071
		c-0.031,0.018-0.069,0.044-0.112,0.028c-0.021-0.008-0.031,0.011-0.043,0.022c-0.041,0.041-0.088,0.051-0.142,0.032
		c-0.013-0.005-0.028-0.008-0.042-0.008c-0.024,0.001-0.03,0.019-0.016,0.035c0.022,0.022,0.047,0.042,0.074,0.059
		c0.014,0.009,0.034,0.012,0.035,0.033c0.002,0.049,0.034,0.045,0.071,0.052C17.938,6.691,17.994,6.65,18.04,6.7
		c0.002,0.003,0.017-0.003,0.024-0.008c0.057-0.037,0.119-0.069,0.132-0.148c-0.016-0.022-0.067-0.01-0.06-0.057
		c0.023-0.016,0.063,0.005,0.072-0.017C18.233,6.414,18.295,6.408,18.337,6.358C18.231,6.352,18.295,6.408,18.337,6.358z
		 M16.813,15.197c0.033,0,0.065,0.001,0.098,0.003c0.018-0.024-0.01-0.038-0.018-0.058c-0.026-0.063-0.09-0.118-0.047-0.198
		c0.006-0.011,0.002-0.026-0.007-0.031c-0.028-0.017-0.032-0.056-0.062-0.07c-0.035-0.016-0.035-0.039-0.022-0.07
		c0.041-0.097,0.039-0.201,0.041-0.303c0-0.018-0.002-0.036-0.024-0.04c-0.026-0.005-0.032,0.014-0.041,0.034
		c-0.025,0.053,0.001,0.117-0.037,0.168c0.006,0.04,0.007,0.08,0.002,0.12c-0.012,0.068-0.011,0.15,0.035,0.195
		C16.804,15.02,16.802,15.104,16.813,15.197C16.828,15.207,16.802,15.104,16.813,15.197z M17.208,3.696
		c-0.003-0.005-0.011-0.017-0.018-0.03c-0.042-0.078-0.117-0.123-0.179-0.18c-0.034-0.031-0.086-0.023-0.122,0.009
		c-0.019,0.017-0.027,0.037-0.006,0.059c0.017,0.019,0.045,0.031,0.05,0.057c0.014,0.069,0.088,0.098,0.104,0.166
		c0.001,0.006,0.012,0.011,0.02,0.014c0.019,0.007,0.117-0.035,0.127-0.057C17.191,3.721,17.212,3.723,17.208,3.696
		C17.205,3.691,17.212,3.723,17.208,3.696z M17.136,15.335c-0.009,0.057-0.021,0.112-0.024,0.167
		c-0.003,0.053-0.007,0.103-0.051,0.14c-0.008,0.007-0.021,0.015-0.015,0.028c0.029,0.065,0.007,0.131,0.007,0.196
		c0,0.026,0.002,0.052,0.007,0.077c0.004,0.019,0.022,0.026,0.04,0.025c0.014,0,0.017-0.014,0.016-0.026
		c-0.012-0.155,0.017-0.304,0.062-0.452C17.193,15.441,17.221,15.376,17.136,15.335C17.127,15.392,17.221,15.376,17.136,15.335z
		 M19.025,7.904c0.025,0.048,0.044,0.074,0.052,0.109c0.012,0.053,0.047,0.101,0.072,0.152c0.014,0.027,0.05,0.028,0.075,0.003
		c0.015-0.015,0.042-0.037,0.015-0.057c-0.049-0.038-0.067-0.097-0.104-0.143C19.11,7.938,19.081,7.921,19.025,7.904
		C19.05,7.953,19.081,7.921,19.025,7.904z M14.965,4.065c0.067-0.013,0.131-0.029,0.147-0.102c0.013-0.058-0.032-0.078-0.078-0.097
		c-0.011,0.032,0.012,0.08-0.023,0.09C14.943,3.974,14.958,4.016,14.965,4.065C15.033,4.052,14.958,4.016,14.965,4.065z
		 M17.769,13.581c0.033-0.024,0.035-0.049,0.022-0.068c-0.03-0.041-0.027-0.085-0.023-0.131c0.002-0.025-0.003-0.051-0.008-0.076
		c-0.003-0.013-0.017-0.016-0.027-0.007c-0.025,0.023-0.04,0.144-0.017,0.169C17.744,13.498,17.754,13.536,17.769,13.581
		C17.802,13.557,17.754,13.536,17.769,13.581z M18.87,7.813c-0.025,0.031-0.054,0.042-0.09,0.038
		c-0.011-0.001-0.023,0.001-0.034,0.005c-0.018,0.006-0.028,0.021-0.023,0.04c0.004,0.018,0.023,0.02,0.035,0.016
		c0.036-0.013,0.072-0.004,0.116-0.002C18.861,7.875,18.865,7.846,18.87,7.813C18.846,7.844,18.865,7.846,18.87,7.813z
		 M16.714,4.185c0.03-0.05,0-0.089-0.01-0.129c-0.005-0.02-0.015-0.042-0.041-0.033c-0.03,0.01-0.023,0.034-0.016,0.057
		C16.659,4.119,16.677,4.154,16.714,4.185C16.744,4.134,16.677,4.154,16.714,4.185z M17.392,3.185
		c-0.05-0.036-0.072-0.096-0.144-0.081C17.283,3.153,17.298,3.22,17.392,3.185z M16.747,14.176
		c-0.032,0.017-0.033,0.049-0.035,0.081c-0.001,0.024,0.015,0.03,0.034,0.025c0.032-0.009,0.045-0.035,0.04-0.067
		C16.784,14.195,16.774,14.177,16.747,14.176C16.715,14.193,16.774,14.177,16.747,14.176z M17.026,13.774
		c0.031-0.037,0.09-0.053,0.089-0.115C17.086,13.698,17.021,13.709,17.026,13.774z M18.001,12.284
		c0.018-0.015,0.037-0.031,0.042-0.057c0.005-0.024-0.011-0.029-0.03-0.028c-0.023,0.001-0.045,0-0.051,0.031
		C17.956,12.262,17.981,12.267,18.001,12.284C18.019,12.269,17.981,12.267,18.001,12.284z M16.781,14.05
		c0,0.017,0.012,0.027,0.021,0.023c0.03-0.016,0.05-0.044,0.069-0.072c0.002-0.016-0.006-0.023-0.025-0.021
		C16.811,13.992,16.804,14.029,16.781,14.05C16.781,14.067,16.804,14.029,16.781,14.05z M16.469,15.305
		c0.039-0.034,0.079-0.042,0.083-0.098C16.506,15.221,16.464,15.225,16.469,15.305z M15.218,4.001
		c-0.037,0.043-0.033,0.087-0.028,0.131C15.186,4.088,15.247,4.062,15.218,4.001z M15.568,3.903
		c-0.015-0.037-0.043-0.038-0.072-0.036c-0.009,0.001-0.013,0.012-0.008,0.019C15.516,3.913,15.543,3.918,15.568,3.903
		C15.553,3.866,15.561,3.907,15.568,3.903z M17.273,13.725c-0.001-0.017-0.01-0.027-0.027-0.027c-0.016,0-0.03,0.008-0.03,0.024
		c0,0.023,0.021,0.025,0.037,0.026C17.267,13.749,17.272,13.737,17.273,13.725C17.272,13.708,17.272,13.737,17.273,13.725z
		 M17.686,3.771c0.024,0.04,0.05,0.048,0.077,0.023C17.755,3.76,17.729,3.752,17.686,3.771C17.695,3.798,17.71,3.751,17.686,3.771z
		 M19.037,7.552c0.038,0.031,0.038,0.031,0.073,0.025C19.098,7.547,19.076,7.543,19.037,7.552z M17.117,15.09
		c-0.007-0.012-0.011-0.029-0.03-0.033c-0.011-0.003-0.016,0.006-0.016,0.014c0,0.016,0.001,0.035,0.02,0.04
		C17.104,15.115,17.11,15.103,17.117,15.09C17.11,15.078,17.11,15.103,17.117,15.09z M17.999,8.992
		c-0.023,0.01-0.028,0.028-0.015,0.054c0.012-0.001,0.02-0.008,0.022-0.019C18.008,9.015,18.011,9.001,17.999,8.992
		C17.987,8.99,18.011,9.001,17.999,8.992z M17.431,14.534c-0.002-0.004-0.005-0.012-0.008-0.012
		c-0.03,0.009-0.037,0.021-0.021,0.039C17.417,14.558,17.424,14.546,17.431,14.534C17.428,14.53,17.424,14.546,17.431,14.534z"/>
	<path fill="#DDD9D9" d="M1.621,3.009c0.083,0.06,0.167,0.067,0.251,0.02C1.918,3.004,1.95,3.015,1.968,3.063
		C1.958,3.099,1.937,3.12,1.904,3.127C1.883,3.163,1.822,3.192,1.844,3.233c0.025,0.046,0.073,0.002,0.107-0.009
		C2.043,3.171,2.14,3.128,2.24,3.095c0.069,0.055,0.094,0.13,0.076,0.223c0.081-0.03,0.075-0.098,0.079-0.15
		C2.399,3.118,2.42,3.089,2.452,3.06c0.049-0.044,0.111-0.073,0.155-0.136C2.526,2.927,2.479,2.991,2.395,3.022
		C2.437,2.969,2.471,2.935,2.49,2.891C2.497,2.876,2.51,2.869,2.523,2.864C2.704,2.8,2.77,2.929,2.772,2.928
		c0.005,0.006,0.01,0.011,0.016,0.017c0.067-0.029,0.129-0.019,0.185,0.028C3.007,2.981,3.04,2.986,3.073,2.954
		c0.032-0.03,0.072-0.048,0.124-0.03c0.071,0.007,0.118-0.019,0.142-0.077C3.34,2.828,3.342,2.807,3.35,2.788
		c0.025-0.061,0.045-0.065,0.09-0.016c0.213,0.229-0.086,0.299,0.201,0.019C3.73,2.75,3.793,2.688,3.83,2.604
		C3.804,2.596,3.794,2.626,3.773,2.622c-0.002-0.004-0.008-0.01-0.007-0.013c0.006-0.016,0.02-0.032,0.02-0.047
		C3.785,2.513,3.805,2.487,3.855,2.481c0.05-0.007,0.045-0.05,0.057-0.085C3.878,2.389,3.865,2.422,3.84,2.424
		c-0.1-0.066-0.013-0.081-0.145-0.008c0.016-0.044,0.044-0.083-0.001-0.119c-0.012-0.01-0.011-0.04,0.004-0.047
		c0.06-0.025,0.04-0.083,0.055-0.125c0.028-0.078,0.029-0.084,0.115-0.093C3.84,1.984,3.838,1.946,3.903,1.928
		c0.019-0.005,0.023-0.031,0.028-0.051c0.026-0.099,0.033-0.2,0.05-0.3C3.992,1.51,4.015,1.439,4.103,1.426
		c0.043-0.029,0.09-0.049,0.141-0.061c0.07,0.02,0.142,0.01,0.223,0.022C4.396,1.554,4.278,1.652,4.114,1.682
		c-0.067,0.022-0.07,0.024-0.071,0.098c0,0.044-0.109,0.1-0.078,0.142C3.993,1.959,4.012,2.01,4.058,2.022
		c0.063,0.023,0.11,0.062,0.143,0.117c-0.008,0.03-0.036,0.029-0.056,0.029c-0.052,0.006-0.063,0.023-0.032,0.05
		c-0.006,0-0.102,0.132-0.046,0.171c0.04,0.006,0.069,0.029,0.085,0.07C4.145,2.521,4.16,2.582,4.153,2.647
		c0.032-0.052,0.095-0.078,0.103-0.146c0.006-0.058,0.046-0.097,0.091-0.127C4.499,2.27,4.22,2.701,4.303,2.602
		c-0.032,0.038-0.03,0.07-0.021,0.109c0.01,0.041,0.052,0.066,0.054,0.113c0.001,0.022,0.046,0.02,0.05,0.014
		C4.466,2.776,4.523,2.697,4.558,2.6c0.019-0.032,0.036-0.066,0.053-0.099c0.01-0.02,0.017-0.042,0.042-0.052
		C4.704,2.43,4.715,2.386,4.702,2.343c-0.012-0.039,0-0.074-0.001-0.11c0.042-0.076,0.107-0.099,0.196-0.07
		C4.93,2.155,4.943,2.2,4.94,2.216c-0.013,0.07,0.027,0.054,0.065,0.046c0.005-0.001,0.01,0.003,0.02,0.006
		C5.03,2.299,5.003,2.318,4.989,2.34c-0.016,0.026-0.043,0.044-0.01,0.079c0.014,0.015-0.011,0.028-0.024,0.039
		c-0.073,0.06-0.074,0.127,0.002,0.176C5.01,2.696,4.992,2.752,4.904,2.802C4.83,2.836,4.755,2.873,4.699,2.937
		c-0.034,0.04-0.057,0.037-0.092-0.001c-0.009-0.01-0.006-0.028-0.022-0.034c-0.024-0.013-0.034-0.005-0.03,0.024
		c0.011,0.029,0.033,0.052,0.049,0.074C4.593,3.026,4.57,3.024,4.559,3.036C4.509,3.03,4.46,3.021,4.411,3.01
		C4.39,3.02,4.38,3.024,4.386,3.052c0.015,0.07-0.049,0.105-0.076,0.157C4.302,3.222,4.281,3.22,4.273,3.206
		c-0.035-0.059-0.086-0.051-0.14-0.04C4.119,3.169,4.104,3.167,4.09,3.164C4.034,3.167,3.989,3.2,3.958,3.261
		c0.101-0.007,0.198-0.052,0.305-0.015c-0.02,0.038-0.057,0.065-0.061,0.116C4.198,3.409,4.107,3.454,4.058,3.444
		C3.986,3.429,3.937,3.462,3.91,3.543c0.007,0.058-0.04,0.065-0.075,0.09C3.797,3.66,3.867,3.706,3.827,3.742
		c-0.024,0.022-0.049,0.053-0.078,0.05c-0.048-0.006-0.069,0.013-0.092,0.05C3.622,3.869,3.588,3.898,3.554,3.927
		C3.575,3.843,3.357,4.175,3.365,4.17c-0.1,0.061-0.112,0.18-0.175,0.265C3.135,4.433,3.102,4.464,3.073,4.509
		c-0.045,0.07-0.07,0.152-0.119,0.219C2.881,4.827,2.804,4.923,2.727,5.02C2.679,5.081,2.616,5.129,2.58,5.2
		C2.523,5.313,2.452,5.418,2.38,5.521C2.34,5.579,2.34,5.607,2.382,5.667c-0.049-0.008-0.05,0.06-0.099,0.05
		c0.042,0.079,0.042,0.079,0.019,0.159C2.297,5.922,2.314,5.93,2.355,5.902C2.36,5.906,2.365,5.911,2.37,5.915
		C2.362,5.924,2.354,5.934,2.346,5.943C2.294,5.933,2.26,5.95,2.239,6.002C2.198,6.104,2.162,6.209,2.105,6.302
		c-0.101,0.164-0.15,0.348-0.221,0.523C1.843,6.926,1.809,7.03,1.786,7.137c-0.021,0.095-0.04,0.19-0.063,0.284
		C1.705,7.497,1.704,7.577,1.681,7.649c-0.065,0.209-0.063,0.426-0.077,0.64c-0.018,0.285,0.024,0.57,0.016,0.856
		c0,0.011,0,0.023,0.002,0.035c0.029,0.137,0.043,0.277,0.092,0.411c0.02,0.054,0.054,0.101,0.066,0.158
		C1.755,9.815,1.739,9.884,1.732,9.956c0.034,0.09,0.039,0.163-0.049,0.23c-0.074,0.056-0.047,0.155-0.051,0.232
		c-0.003,0.057,0.007,0.116-0.011,0.174c-0.024,0.116,0.003,0.211,0.081,0.285c0.018,0.046,0.067,0.073,0.074,0.128
		c0.007,0.057,0.035,0.097,0.103,0.089c0.006-0.001,0.013,0.009,0.02,0.014c0.005,0.012,0.016,0.014,0.027,0.016
		c0.009,0.007,0.012,0.016,0.008,0.027c0.069,0.096,0.082,0.188,0.037,0.276c-0.017,0.004-0.034,0.003-0.05-0.005
		c-0.067,0.022-0.143,0.008-0.207,0.048c-0.012,0.008-0.036,0.007-0.05,0.001c-0.037-0.017-0.078-0.02-0.116-0.022
		c-0.062-0.003-0.1-0.056-0.153-0.065c-0.082-0.013-0.16-0.036-0.236-0.069c-0.067-0.04-0.121-0.107-0.21-0.105
		c-0.08-0.053-0.152-0.116-0.216-0.188c-0.078-0.056-0.107-0.14-0.053-0.214c0.06-0.083,0.03-0.156-0.002-0.226
		c-0.036-0.079-0.072-0.161-0.131-0.228c-0.056-0.063-0.111-0.127-0.164-0.193c-0.057-0.04-0.059-0.061-0.014-0.117
		c0.024-0.029,0.015-0.045-0.011-0.062c0.052,0.034-0.143-0.175-0.152-0.19C0.177,9.743,0.147,9.692,0.117,9.64
		c-0.01-0.122-0.048-0.232-0.115-0.33c-0.039,0.008-0.077,0.021-0.117,0.002c-0.01-0.005-0.021,0.007-0.026,0.018
		c-0.013,0.028-0.032,0.053-0.012,0.088c0.028,0.047,0.012,0.115,0.054,0.152c0.036,0.031,0.038,0.061,0.041,0.102
		c0.032,0.053,0.05,0.109,0.054,0.17c0.051,0.049,0.026,0.131,0.079,0.178c-0.002,0.112,0.02,0.217,0.066,0.314
		c0.079,0.049,0.082,0.109,0.009,0.182c0.018-0.08-0.039-0.126-0.085-0.167c-0.059-0.053-0.083-0.108-0.074-0.185
		c0.008-0.069-0.018-0.126-0.088-0.15c-0.076-0.026-0.113-0.092-0.17-0.143c0.036-0.02,0.078-0.005,0.099-0.043
		c0.032-0.059,0.021-0.124,0.019-0.186C-0.15,9.599-0.186,9.574-0.225,9.555c-0.05-0.025-0.084-0.071-0.081-0.124
		c0.01-0.168-0.062-0.341-0.203-0.424c-0.038-0.022-0.088-0.032-0.137-0.03c0.012-0.069,0.012-0.069-0.02-0.101
		C-0.661,8.632-0.639,8.39-0.6,8.148c0.025-0.179,0.051-0.358,0.085-0.536c0.041-0.214,0.086-0.428,0.14-0.639
		c0.007-0.028,0.012-0.056,0.032-0.079C-0.309,6.915-0.27,6.883-0.241,6.9c0.015,0.023-0.006,0.05,0.024,0.068
		C-0.204,6.922-0.143,6.89-0.19,6.831c-0.008-0.01-0.003-0.023,0.008-0.03c0.019-0.061,0.014-0.119-0.013-0.176
		c-0.039,0.02-0.039-0.036-0.068-0.035c-0.007-0.027,0.007-0.051,0.014-0.075c0.104-0.33,0.219-0.656,0.349-0.977
		c0.118-0.291,0.261-0.571,0.404-0.851c0.123-0.242,0.263-0.474,0.406-0.704c0.01-0.017,0.017-0.038,0.043-0.037
		C0.994,3.983,1.039,3.95,1.083,3.952C1.038,3.95,1.248,3.776,1.196,3.802c0.012-0.006,0.022,0.002,0.031,0.017
		C1.194,3.834,1.161,3.852,1.136,3.896C1.208,3.87,1.259,3.822,1.334,3.825C1.247,3.654,1.432,3.828,1.458,3.7
		c0.008-0.041,0.04-0.062,0.06-0.092c0.011-0.016,0.029-0.032,0.005-0.054C1.47,3.592,1.414,3.586,1.356,3.559
		c0.027-0.04,0.082-0.029,0.113-0.068C1.381,3.477,1.3,3.492,1.225,3.537c0.002-0.04,0.03-0.069,0.052-0.098
		c0.097-0.132,0.198-0.261,0.298-0.391C1.587,3.032,1.6,3.016,1.621,3.009C1.671,3.027,1.6,3.016,1.621,3.009z M1.56,4.191
		C1.55,4.162,1.557,4.143,1.562,4.124c0.006-0.025-0.036-0.059-0.067-0.056C1.464,4.072,1.472,4.092,1.476,4.113
		c0.039,0.093,0.012,0.159-0.081,0.197C1.393,4.318,1.384,4.323,1.377,4.329C1.326,4.37,1.281,4.423,1.204,4.411
		C1.183,4.417,1.179,4.429,1.193,4.447c0.023,0.021,0.07,0.012,0.075,0.06C1.27,4.537,1.462,4.45,1.49,4.419
		c0.065-0.034,0.126-0.074,0.182-0.12c0.036-0.05,0.082-0.092,0.132-0.123C1.9,4.117,1.966,4.029,2.051,3.958
		C2.03,3.942,2.014,3.949,1.998,3.955C1.919,3.981,1.854,4.034,1.802,4.091C1.734,4.167,1.652,4.179,1.56,4.191
		C1.55,4.162,1.652,4.179,1.56,4.191z M2.026,4.614C1.987,4.607,1.949,4.603,1.914,4.626C1.894,4.639,1.872,4.65,1.85,4.638
		C1.813,4.617,1.796,4.641,1.78,4.665C1.744,4.721,1.695,4.763,1.64,4.801C1.608,4.824,1.583,4.857,1.556,4.886
		c-0.028,0.03,0.041,0.05,0.063,0.018C1.735,4.781,1.871,4.684,2.026,4.614C1.987,4.607,1.936,4.618,2.026,4.614z M2.269,5.067
		c0.002,0.044,0.018,0.048,0.049,0.011c0.035-0.064,0.071-0.127,0.107-0.191C2.437,4.867,2.258,4.661,2.269,5.067
		C2.267,5.081,2.267,4.977,2.269,5.067z M1.283,4.107C1.248,4.112,1.224,4.124,1.211,4.116c-0.082-0.047-0.12,0.018-0.177,0.06
		C1.127,4.191,1.202,4.176,1.283,4.107C1.248,4.112,1.202,4.176,1.283,4.107z M0.483,7.762C0.429,7.819,0.486,7.85,0.508,7.893
		c0.055-0.045,0.06-0.078,0.016-0.097C0.484,7.818,0.503,7.766,0.483,7.762C0.429,7.819,0.503,7.766,0.483,7.762z M2.364,4.745
		c-0.032,0.016-0.052,0.023-0.07,0.036c-0.01,0.035,0.002,0.048,0.037,0.04C2.348,4.804,2.356,4.784,2.364,4.745
		C2.333,4.761,2.356,4.784,2.364,4.745z M2.164,5.173C2.19,5.263,2.197,5.051,2.164,5.173C2.166,5.182,2.167,5.159,2.164,5.173z
		 M2.668,2.891C2.754,2.843,2.582,2.88,2.668,2.891C2.674,2.888,2.652,2.889,2.668,2.891z"/>
	<path fill="#DDD9D9" d="M10.582,1.465c0,0.013,0,0.026,0,0.039c-0.026,0.02-0.025,0.023,0.004,0.009
		c0.046,0.01,0.091,0.011,0.131-0.019c0.105-0.017,0.208-0.007,0.311,0.031c-0.03,0.061-0.069,0.116-0.119,0.164
		c-0.055,0.064-0.129,0.093-0.224,0.085c-0.053-0.003-0.222,0.157-0.267,0.164c-0.004-0.03-0.009-0.058-0.05-0.056
		c-0.02,0.001-0.04-0.001-0.059-0.009c-0.094-0.038-0.197-0.058-0.293-0.055C9.856,1.823,9.712,1.757,9.558,1.751
		C9.479,1.748,9.403,1.716,9.32,1.742c-0.099,0.03-0.206,0.012-0.307,0.036c-0.019,0.004-0.041,0.001-0.06-0.003
		c-0.096-0.021-0.194-0.017-0.29-0.03C8.591,1.735,8.52,1.759,8.449,1.759c-0.127,0-0.252,0.011-0.376,0.038
		c-0.011-0.019-0.001-0.063-0.05-0.038C7.971,1.765,7.921,1.757,7.874,1.734C7.851,1.709,7.825,1.685,7.778,1.695
		C7.821,1.746,7.859,1.795,7.9,1.84c0.018,0.021,0.027,0.044,0.007,0.061c-0.068,0.058-0.14,0.111-0.236,0.11
		C7.538,2.009,7.693,1.951,7.701,1.94C7.639,1.957,7.597,1.939,7.575,1.886C7.594,1.841,7.619,1.8,7.623,1.749
		C7.625,1.715,7.659,1.7,7.693,1.698c0.018-0.001,0.039,0.016,0.054-0.011c-0.01-0.019-0.03-0.024-0.048-0.03
		C7.676,1.651,7.665,1.636,7.665,1.615c0.057-0.087,0.144-0.091,0.263-0.013C7.966,1.629,8.01,1.65,8.057,1.658
		C8.073,1.63,7.993,1.613,8.053,1.583C8.038,1.572,8.029,1.556,8.027,1.536C8.03,1.517,8.073,1.529,8.054,1.499
		C8.03,1.461,8.073,1.476,8.08,1.463C8.048,1.404,7.991,1.378,7.908,1.386C7.824,1.32,7.764,1.323,7.729,1.394
		C7.58,1.648,7.627,1.161,7.649,1.213c-0.012-0.03-0.004-0.038,0.025-0.047c0.05-0.016,0.063-0.07,0.043-0.119
		c-0.016-0.039-0.035-0.077-0.043-0.12C7.661,0.859,7.638,0.838,7.575,0.82C7.6,0.798,7.617,0.775,7.624,0.743
		c0.006-0.028,0-0.035-0.023-0.053C7.55,0.649,7.49,0.613,7.468,0.546C7.423,0.507,7.373,0.478,7.317,0.46
		c-0.047-0.042-0.1-0.064-0.158-0.067C7.125,0.366,7.102,0.38,7.078,0.408C7.062,0.428,7.041,0.442,7.033,0.399
		c-0.003-0.018-0.02-0.028-0.029-0.013c-0.07,0.021-0.133,0.056-0.187,0.104C6.798,0.49,6.792,0.477,6.783,0.465
		c-0.023-0.031-0.05-0.033-0.084-0.002C6.68,0.481,6.671,0.508,6.642,0.472c-0.016-0.02-0.032,0-0.038,0.015
		C6.597,0.503,6.599,0.522,6.595,0.538c-0.002,0.011-0.007,0.029-0.012,0.03C6.495,0.608,6.434,0.59,6.401,0.515
		C6.356,0.473,6.324,0.424,6.304,0.366c0.05-0.02,0.101-0.036,0.153-0.048c0.023-0.038,0.08-0.067,0.131-0.077
		c0.048-0.01,0.094-0.027,0.141-0.039c0.031,0.006,0.06,0,0.085-0.019c0.102-0.11-0.296,0.036-0.169-0.001
		C6.6,0.196,6.565,0.195,6.56,0.137C6.523,0.143,6.53,0.173,6.518,0.191C6.49,0.235,6.424,0.251,6.387,0.214
		C6.368,0.196,6.348,0.182,6.328,0.166c-0.03-0.023-0.055-0.059-0.046-0.097c0.01-0.038,0.037-0.067,0.08-0.083
		C6.485-0.06,6.616-0.085,6.734-0.148C6.803-0.16,6.87-0.18,6.934-0.206c0.069-0.051,0.115-0.119,0.129-0.205
		c0.003-0.018-0.002-0.034-0.014-0.048C7.154-0.506,7.269-0.52,7.38-0.544c0.236-0.052,0.473-0.094,0.712-0.125
		C8.309-0.697,8.526-0.721,8.743-0.74c0.38-0.034,0.76-0.039,1.14-0.026c0.203,0.007,0.407,0.019,0.61,0.043
		c0.26,0.021,0.518,0.058,0.773,0.11c-0.02,0.004-0.04,0.007-0.059,0.013c-0.011,0.003-0.02,0.009-0.019,0.024
		c0.012,0.106-0.032,0.192-0.097,0.274c-0.026-0.01-0.052-0.022-0.079-0.03c-0.026-0.008-0.045,0.005-0.052,0.032
		c0.05,0.056,0.117,0.082,0.201,0.078c0.009,0.01,0.03,0.013,0.022,0.031c-0.008,0.015-0.025,0.026-0.042,0.012
		c-0.02-0.016-0.03-0.013-0.035,0.011c-0.004,0.018-0.021,0.044,0.008,0.051c0.03,0.007,0.063,0.035,0.096,0.001
		c0.023-0.024,0.042-0.013,0.054,0.012c0.014,0.028,0.036,0.053,0.035,0.087c0.003,0.057-0.021,0.073-0.072,0.047
		c-0.049-0.038-0.105-0.041-0.17-0.03c0.025,0.06-0.014,0.095-0.053,0.132c0.031,0.018,0.05,0.016,0.076,0
		c0.036-0.023,0.065-0.011,0.078,0.028c0.014,0.041,0.022,0.083,0.037,0.124c0.016,0.045,0.005,0.082-0.022,0.119
		c-0.028-0.026-0.038-0.028-0.16-0.032c0.059,0.014,0.087,0.048,0.075,0.108c-0.005,0.009-0.005,0.009,0,0
		c0.055,0.006,0.078,0.072,0.143,0.061c0.026-0.004,0.046,0.007,0.054,0.031c-0.012,0.051-0.042,0.066-0.088,0.044
		c-0.052-0.052-0.086-0.054-0.102-0.005c0.017,0.027-0.044,0.034-0.021,0.064c0.016,0.021,0.053,0.001,0.065,0.032
		c0.002,0.005,0.005,0.01,0.008,0.015c-0.032,0.067-0.136,0.127-0.21,0.121c-0.027-0.022-0.063-0.026-0.094-0.029
		c-0.049-0.005-0.075-0.024-0.068-0.093c-0.022,0.042-0.026,0.066-0.06,0.078c-0.041,0.015-0.074,0.051-0.11,0.078
		c-0.035,0.016-0.069,0.031-0.104,0.046c-0.025,0.027,0.013,0.054,0.034,0.073c0.05,0.03,0.095,0.032,0.137,0.007
		c0.071-0.009,0.082,0.011,0.031,0.06c-0.004,0.005-0.003,0.01,0.003,0.014c0.072-0.007,0.072-0.007,0.148,0.036
		c0.2,0.114-0.108-0.061,0.098,0.059c-0.001,0.023,0.007,0.036,0.032,0.031c0.002,0.008,0.004,0.015,0.006,0.023
		c0.003,0.02,0.017,0.012,0.029,0.012c0.006,0.016,0.008,0.037,0.019,0.048c0.06,0.054,0.026,0.131,0.049,0.194
		c-0.038,0.053-0.093,0.054-0.166,0.003c-0.053-0.023-0.082-0.069-0.117-0.11c-0.031-0.036-0.035-0.094-0.091-0.11
		c-0.087-0.084-0.231-0.041-0.323-0.102c0.009,0.058,0.009,0.058-0.023,0.099c0.038,0.002,0.07-0.014,0.103-0.019
		c0.074-0.012,0.138,0.017,0.205,0.036c0.002,0.02,0.01,0.04,0.001,0.06c-0.022,0.001-0.047-0.012-0.065,0.011
		c-0.01,0.005-0.02,0.01-0.048,0.025c0.048,0,0.089-0.028,0.104,0.021c0.01,0.035-0.004,0.054-0.037,0.063
		c-0.016,0.002-0.033,0.001-0.049-0.003c-0.048-0.027-0.096-0.004-0.143,0.001c-0.059,0.006-0.059,0.007-0.062-0.056
		c0.053-0.008,0.106-0.015,0.159-0.023c-0.054,0-0.116-0.048-0.159,0.024c-0.03,0.01-0.039,0.03-0.026,0.059
		c0.012,0.028,0.031,0.034,0.061,0.028C10.47,1.474,10.525,1.459,10.582,1.465C10.582,1.478,10.525,1.459,10.582,1.465z
		 M11.047,0.669c-0.027-0.004-0.045-0.029-0.074-0.042C10.973,0.695,11.008,0.687,11.047,0.669z M10.966,0.412
		C10.948,0.31,10.937,0.503,10.966,0.412C10.964,0.401,10.963,0.42,10.966,0.412z"/>
	<path fill="#DDD9D9" d="M5.694,19.072c-0.141-0.058-0.28-0.118-0.42-0.179c-0.028-0.012-0.06-0.021-0.081-0.047
		c-0.001-0.006-0.001-0.011-0.002-0.017c-0.006-0.068-0.006-0.069-0.077-0.072c-0.02-0.001-0.032-0.012-0.042-0.025
		c-0.027-0.033-0.043-0.072-0.033-0.113c0.02-0.081-0.001-0.151-0.039-0.221c-0.012-0.022-0.017-0.048-0.034-0.069
		c-0.017-0.021-0.014-0.042-0.006-0.071c0.015-0.053,0.056-0.109,0.038-0.162c-0.026-0.076,0.001-0.142,0.013-0.211
		c0.019-0.111,0.037-0.221-0.026-0.324c-0.006-0.074-0.018-0.147-0.037-0.218c-0.018-0.016-0.009-0.036-0.007-0.056
		c0.018-0.157-0.05-0.417,0-0.561c0.01-0.029,0.011-0.058-0.017-0.078c-0.027-0.019-0.021-0.036-0.003-0.056
		c0.01-0.011,0.014-0.026,0.012-0.04C4.921,16.406,4.97,16.259,4.92,16.11c-0.134-0.239-0.336-0.4-0.606-0.484
		c-0.089-0.074-0.17-0.146-0.18-0.27c0.004-0.024,0.01,0.123,0,0c0.004-0.024-0.006-0.043-0.02-0.063
		c-0.046-0.066-0.092-0.134-0.132-0.203c-0.02-0.034-0.03-0.074-0.04-0.112c-0.033-0.128-0.099-0.233-0.199-0.323
		c-0.061-0.055-0.128-0.104-0.177-0.172c-0.024-0.034-0.081-0.037-0.091-0.075c-0.009-0.033-0.009-0.07-0.022-0.105
		c-0.041-0.114-0.032-0.137,0.074-0.209c0.005,0.029,0.017,0.055,0.036,0.077c0.124,0.135,0.236,0.282,0.353,0.423
		c0.11,0.132,0.196,0.285,0.35,0.376c0.004,0.003,0.006,0.01,0.01,0.014c0.045,0.057,0.102,0.101,0.16,0.144
		c0.067,0.05,0.136,0.099,0.189,0.163c0.078,0.095,0.166,0.173,0.266,0.244c0.187,0.134,0.38,0.258,0.574,0.381
		c0.09,0.057,0.183,0.108,0.274,0.162c0.114,0.068,0.236,0.119,0.35,0.185c0.056,0.033,0.124,0.045,0.185,0.071
		c0.124,0.052,0.244,0.114,0.383,0.118c0.019,0.001,0.04,0.008,0.058,0.017c0.093,0.049,0.198,0.056,0.297,0.08
		c0.099,0.025,0.202,0.038,0.301,0.067c0.155,0.046,0.314,0.073,0.473,0.089c0.16,0.016,0.323,0.001,0.485,0
		c0.038,0.076-0.007,0.129-0.053,0.18c-0.021,0.023-0.046,0.02-0.071,0.01c-0.01-0.004-0.027-0.017-0.028-0.016
		c-0.041,0.059-0.107,0.014-0.158,0.037c-0.03,0.028-0.063,0.051-0.099,0.071c-0.037,0.002-0.071,0.024-0.11,0.019
		c-0.008-0.001-0.02,0-0.024,0.005c-0.061,0.075-0.161,0.083-0.235,0.136c-0.039,0.028-0.05,0.061-0.051,0.108
		c-0.002,0.087,0.052,0.162,0.045,0.25c-0.004,0.051-0.009,0.091-0.058,0.124c-0.077,0.051-0.093,0.141-0.119,0.222
		c-0.035,0.11-0.012-0.055-0.093-0.073c-0.011,0.075-0.085,0.111-0.112,0.178c-0.006,0.015-0.023,0.027-0.013,0.046
		c0.021,0.042-0.002,0.07-0.029,0.098c-0.017,0.019-0.033,0.04-0.045,0.063c-0.041,0.078-0.098,0.103-0.18,0.072
		c-0.016-0.006-0.032-0.019-0.049-0.012c-0.037,0.017-0.068,0-0.098-0.016c-0.076-0.042-0.161-0.071-0.207-0.152
		C6.448,18.08,6.47,18.101,6.479,18.12c0.028,0.055,0.075,0.093,0.118,0.135c0.018,0.018,0.036,0.028,0.029,0.063
		c-0.008,0.037,0.032,0.055,0.063,0.072c0.055,0.03,0.056,0.036,0.03,0.093c-0.011,0.023-0.024,0.046-0.034,0.07
		c-0.021,0.051-0.063,0.078-0.114,0.081c-0.115,0.005-0.231,0.004-0.346,0.003c-0.018,0-0.035-0.013-0.051-0.02
		c-0.011,0.013-0.013,0.028-0.005,0.034c0.045,0.036,0.04,0.09,0.048,0.137c0.015,0.089-0.039,0.13-0.125,0.098
		c-0.043-0.016-0.072-0.057-0.123-0.069c-0.012,0.026-0.017,0.051,0.002,0.078C6.002,18.94,6.025,18.997,6.093,19
		c0.02,0.001,0.041-0.005,0.057,0.013c0.022,0.042,0.012,0.058-0.031,0.049c-0.013-0.01-0.033-0.034-0.04-0.019
		c-0.012,0.03-0.053,0.036-0.053,0.072 M4.934,15.687c0.001,0.039,0.025,0.047,0.061,0.039c-0.005-0.011-0.014-0.018-0.024-0.022
		c-0.012-0.006-0.025-0.01-0.038-0.015c-0.005-0.013-0.009-0.027-0.016-0.039c-0.042-0.068-0.068,0.028-0.025,0.035
		C4.905,15.687,4.92,15.687,4.934,15.687C4.935,15.726,4.92,15.687,4.934,15.687z M5.224,16.095
		c0.012,0.001,0.015-0.007,0.014-0.016c-0.01-0.028-0.021-0.031-0.034-0.009C5.206,16.082,5.212,16.091,5.224,16.095
		C5.236,16.096,5.212,16.091,5.224,16.095z"/>
	<path fill="#DDD9D9" d="M13.745-1.332c0.03-0.004,0.067-0.024,0.069,0.032C13.787-1.304,13.764-1.313,13.745-1.332z"/>
	<path fill="#DDD9D9" d="M12.916,13.138c-0.068-0.046-0.146-0.04-0.222-0.041c-0.026,0-0.042,0.015-0.06,0.029
		c-0.029,0.022-0.059,0.044-0.091,0.062c-0.091,0.051-0.174,0.025-0.248-0.036c-0.04-0.033-0.088-0.057-0.105-0.118
		c-0.009-0.033-0.054-0.056-0.09-0.073c-0.055-0.052-0.113-0.1-0.175-0.143c-0.028,0.001-0.052-0.024-0.053-0.057
		c-0.001-0.014-0.006-0.021-0.021-0.018c-0.004-0.003-0.009-0.004-0.014-0.003c0-0.008-0.001-0.015-0.001-0.023
		c0.008,0,0.008-0.003,0.001-0.009c-0.001-0.013-0.001-0.026-0.002-0.04c0.01-0.786-0.039,0.135-0.023-0.06
		c0.001-0.007-0.005-0.009-0.011-0.008c-0.004-0.005-0.008-0.01-0.012-0.016c-0.003-0.006-0.005-0.013-0.008-0.019
		c0.007-0.063,0.007-0.063-0.01-0.086c-0.054-0.007-0.075-0.059-0.066-0.09c0.013-0.045,0.001-0.059-0.034-0.074
		c-0.008-0.004-0.017-0.02-0.015-0.029c0.012-0.07-0.043-0.091-0.087-0.121c-0.012-0.008-0.028-0.018-0.025-0.032
		c0.013-0.061-0.025-0.075-0.071-0.092c-0.061-0.097-0.091-0.205-0.089-0.324c-0.028-0.071-0.001-0.112,0.037-0.162
		c0.017-0.022,0.05-0.044,0.033-0.082c0.004-0.005,0.003-0.009-0.002-0.013c0.008-0.06,0.01-0.121,0.047-0.174
		c0.018-0.025,0.006-0.06,0.001-0.09c0.004-0.004,0.004-0.008,0.001-0.013c0.009-0.039-0.017-0.078,0.01-0.119
		c0.018-0.027-0.023-0.06-0.023-0.094c0.002-0.005,0.001-0.008-0.004-0.011c0.001-0.022,0.003-0.044,0.004-0.066
		c0.003-0.013,0.065,0.036,0.007-0.065c-0.013-0.018-0.022-0.125-0.015-0.115c-0.014-0.118,0.01-0.223,0.073-0.317
		c0.04-0.067,0.066-0.142,0.109-0.209c0.055-0.085,0.088-0.184,0.132-0.276c0.01-0.02,0.019-0.041,0.035-0.058
		c0.05-0.054,0.098-0.109,0.129-0.176c0.007-0.016,0.021-0.018,0.034-0.022c0.011,0.004,0.024,0.01,0.033,0.001
		c0.049-0.057,0.111-0.099,0.169-0.144c0.068-0.053,0.114-0.117,0.159-0.187c0.047-0.073,0.073-0.143,0.032-0.232
		c0-0.091,0.021-0.177,0.06-0.258c0.01-0.093,0.071-0.14,0.149-0.17c0.131-0.049,0.211-0.138,0.246-0.274
		c0.012-0.047,0.025-0.1,0.067-0.136c0.027-0.023,0.044-0.03,0.066,0.01c0.044,0.082,0.052,0.084,0.143,0.071
		c0.047-0.007,0.099,0.02,0.141-0.021c0.057-0.057,0.087,0.158,0.193-0.016c0.025-0.041,0.063-0.062,0.111-0.072
		c0.092-0.02,0.173-0.069,0.253-0.116c0.03-0.017,0.054-0.025,0.088-0.019c0.115-0.01,0.23-0.016,0.345-0.018
		c0.049,0.005,0.096,0.008,0.14-0.015c0.037-0.019,0.065-0.018,0.089,0.017c0.017,0.026,0.035,0.03,0.05-0.002
		c0.01-0.021,0.026-0.015,0.044-0.014c0.08,0.004,0.16,0.016,0.236-0.028c0.033-0.02,0.069,0,0.088,0.031
		c0.017,0.026,0.032,0.033,0.063,0.028c0.038-0.007,0.053,0.015,0.036,0.048c-0.013,0.025-0.034,0.047-0.05,0.07
		c-0.025,0.035-0.029,0.062,0.002,0.103c0.026,0.036,0.023,0.089,0.003,0.135c-0.014,0.032-0.032,0.06-0.054,0.087
		c-0.031,0.039-0.031,0.081,0.007,0.097c0.073,0.032,0.11,0.106,0.18,0.139c0.021,0.01,0.043,0.024,0.064,0.02
		c0.089-0.019,0.153,0.037,0.225,0.069c0.035,0.016,0.089,0.022,0.08,0.085c-0.002,0.013,0.01,0.02,0.023,0.021
		c0.03,0.003,0.041,0.03,0.058,0.048c0.036,0.038,0.071,0.065,0.128,0.076c0.063,0.012,0.122,0.048,0.186,0.066
		c0.028,0.008,0.057,0.015,0.086,0.02c0.022,0.02,0.045,0.03,0.07,0.004c0.018-0.019,0.037-0.036,0.053-0.056
		c0.042-0.05,0.045-0.073,0.008-0.129c-0.016-0.025-0.011-0.04-0.002-0.068c0.028-0.082,0.106-0.097,0.164-0.139
		c0.004-0.003,0.012-0.007,0.016-0.006c0.068,0.037,0.161,0.027,0.206,0.101c0.017,0.029,0.029,0.033,0.057,0.033
		c0.031,0,0.071-0.017,0.088,0.03c0.026,0.038,0.065,0.019,0.098,0.022c0.002,0.026,0.007,0.049,0.038,0.054
		c0.02,0.02,0.054,0.021,0.054,0.066c0.003,0.19,0.023,0.379,0.016,0.57c-0.002,0.074-0.029,0.146-0.01,0.222
		c-0.032,0.089-0.058,0.179-0.076,0.272c-0.024,0.147-0.037,0.296-0.066,0.442c-0.006,0.028-0.004,0.058-0.004,0.086
		c0,0.056-0.01,0.11-0.036,0.158c-0.037,0.067-0.056,0.14-0.064,0.214c-0.013,0.12-0.059,0.228-0.098,0.339
		c-0.052,0.148-0.128,0.287-0.152,0.445c-0.006,0.04-0.039,0.076-0.06,0.113c-0.011,0.02-0.028,0.038-0.034,0.06
		c-0.041,0.145-0.12,0.273-0.184,0.408c-0.055,0.116-0.114,0.231-0.174,0.346c-0.093,0.177-0.206,0.339-0.327,0.496
		c-0.089,0.116-0.177,0.233-0.273,0.345c-0.037,0.043-0.062,0.097-0.095,0.144c-0.082,0.116-0.191,0.208-0.291,0.308
		c-0.058,0.057-0.113,0.117-0.158,0.183c-0.045,0.065-0.089,0.1-0.168,0.068c0,0-0.001-0.001-0.001-0.001
		c0.002-0.027-0.012-0.035-0.036-0.033c-0.005-0.006-0.01-0.013-0.015-0.019c-0.025,0.209-0.048-0.198-0.04-0.088
		c0.014-0.023,0.016-0.047-0.015-0.05c-0.037-0.004-0.032-0.035-0.044-0.055c-0.02-0.034,0.021-0.03,0.032-0.046
		c0.023-0.032,0.037-0.068,0.048-0.106c0.003-0.015,0.01-0.026,0.021-0.034c0.005-0.022,0.014-0.04,0.029-0.054
		c0.015-0.003,0.015-0.009,0.004-0.018c-0.02-0.06-0.013-0.114,0.016-0.172c0.03-0.06,0.036-0.131,0.052-0.197
		c0.012-0.049-0.033-0.094-0.04-0.145c-0.001-0.009-0.034-0.014-0.053-0.019c-0.033-0.009,0.018-0.062-0.034-0.061
		c-0.025,0-0.054,0.004-0.075-0.015c-0.024-0.022-0.039-0.01-0.058,0.007c-0.042,0.037-0.099,0.041-0.15,0.053
		c-0.05,0.011-0.108-0.08-0.092-0.136c-0.007-0.085-0.048-0.146-0.122-0.185c-0.043-0.026-0.098-0.014-0.139-0.045
		c-0.002-0.002-0.013,0.009-0.02,0.013c-0.056,0.031-0.126,0.036-0.171,0.088c-0.027,0.031-0.056-0.017-0.078,0.001
		c-0.049,0.041-0.039-0.04-0.077-0.029c0.027,0.05,0.012,0.075-0.046,0.075c-0.036,0.022-0.076,0.019-0.116,0.022
		c-0.072,0.004-0.133,0.047-0.202,0.062c-0.022,0.005-0.042,0.018-0.063,0.027C13,13.14,12.958,13.139,12.916,13.138
		C12.848,13.092,12.958,13.139,12.916,13.138z M15.243,11.761c-0.007-0.028-0.012-0.061-0.057-0.035
		c0.015,0.025,0.03,0.049,0.044,0.073c0.01,0.021,0.021,0.045,0.049,0.036c0.032-0.01,0.059-0.018,0.086,0.01
		c0.024,0.002,0.033-0.009,0.026-0.035c-0.01-0.014-0.025-0.028-0.043-0.023C15.308,11.797,15.278,11.77,15.243,11.761
		C15.236,11.733,15.278,11.77,15.243,11.761z"/>
	<path fill="#DDD9D9" d="M3.791,9.705c0,0.023-0.007,0.048,0.001,0.069c0.032,0.084-0.009,0.158-0.034,0.232
		c-0.008,0.024-0.015,0.053-0.034,0.081C3.66,10.052,3.63,9.998,3.615,9.933C3.605,9.883,3.589,9.839,3.531,9.828
		C3.517,9.769,3.581,9.733,3.578,9.681c-0.037-0.023-0.036,0.035-0.07,0.022C3.501,9.674,3.513,9.646,3.52,9.615
		c0.012-0.05,0.036-0.107-0.028-0.144C3.476,9.462,3.476,9.442,3.47,9.426C3.45,9.365,3.434,9.36,3.38,9.398
		C3.325,9.436,3.295,9.44,3.254,9.39c-0.03-0.037-0.103-0.014-0.105-0.082c0-0.001-0.012-0.005-0.016-0.003
		C3.095,9.328,3.045,9.301,3.01,9.337c-0.01,0.011-0.027,0.021-0.033,0c-0.01-0.032-0.019-0.026-0.037-0.007
		c-0.014,0.015-0.032,0.01-0.047,0.001C2.869,9.316,2.839,9.313,2.82,9.328c-0.034,0.027-0.074,0.03-0.121,0.038
		C2.732,9.408,2.782,9.399,2.812,9.43C2.799,9.441,2.788,9.45,2.777,9.459C2.757,9.457,2.739,9.461,2.73,9.482
		C2.643,9.434,2.641,9.445,2.623,9.514C2.609,9.512,2.599,9.519,2.591,9.53c-0.035,0.002-0.064,0.008-0.095-0.03
		C2.479,9.478,2.44,9.422,2.386,9.46C2.309,9.431,2.24,9.447,2.174,9.492c-0.014,0.009-0.028,0.005-0.041,0
		C2.116,9.484,2.109,9.49,2.1,9.504c-0.036,0.058-0.071,0.117-0.15,0.121c-0.005,0-0.011,0.006-0.013,0.01
		C1.902,9.698,1.831,9.709,1.78,9.748C1.769,9.692,1.734,9.645,1.714,9.591C1.666,9.457,1.652,9.317,1.623,9.179
		C1.62,9.168,1.62,9.156,1.621,9.145c0.008-0.286-0.035-0.571-0.016-0.856c0.014-0.214,0.012-0.43,0.077-0.64
		c0.022-0.073,0.023-0.153,0.042-0.228c0.023-0.094,0.042-0.19,0.063-0.284C1.809,7.03,1.843,6.926,1.884,6.825
		c0.071-0.175,0.12-0.359,0.221-0.523c0.057-0.092,0.093-0.198,0.135-0.299C2.26,5.95,2.294,5.933,2.346,5.943
		c0.022,0.072,0.075,0.135,0.054,0.219C2.439,6.195,2.46,6.18,2.463,6.116C2.45,6.079,2.437,6.04,2.435,6.001
		C2.433,5.954,2.409,5.93,2.37,5.915C2.365,5.911,2.36,5.906,2.355,5.902c0.008,0.047,0.036-0.286,0.027-0.235
		C2.34,5.607,2.34,5.579,2.38,5.521C2.452,5.418,2.523,5.313,2.58,5.2c0.036-0.071,0.099-0.119,0.147-0.18
		c0.077-0.097,0.154-0.193,0.227-0.292c0.049-0.067,0.074-0.149,0.119-0.219c0.029-0.044,0.062-0.075,0.117-0.073
		C3.209,4.472,3.193,4.51,3.197,4.547c0.002,0.025,0.012,0.037,0.039,0.028c0.03-0.009,0.061-0.015,0.097-0.023
		c0.04,0.093,0.038,0.193,0.041,0.297c0.091-0.052,0.177-0.045,0.258,0.018C3.65,4.89,3.675,4.887,3.7,4.885
		c0.008,0.008,0.017,0.023,0.024,0.023C3.781,4.904,3.79,4.942,3.792,4.984c0.001,0.028-0.001,0.054,0.04,0.043
		c0.005-0.001,0.014-0.002,0.016,0.001c0.05,0.065,0.141,0.048,0.197,0.1c0.023,0.022,0.049,0.006,0.074,0.002
		c0.064-0.01,0.124,0.002,0.183,0.023c0.058,0.084,0.046,0.178-0.035,0.283c-0.018,0.02-0.012,0.045-0.011,0.068
		C4.254,5.512,4.252,5.518,4.251,5.524C4.245,5.541,4.247,5.553,4.257,5.56C4.263,5.565,4.27,5.57,4.276,5.576
		C4.317,5.625,4.335,5.713,4.37,5.769c0.031,0.051,0.072,0.06,0.113,0.02c0.017-0.016,0.03-0.034,0.056-0.035
		c0.007,0,0.018-0.009,0.019-0.014c0.006-0.065,0.069-0.113,0.049-0.187c-0.009-0.035,0.002-0.073,0.01-0.11
		c0.009-0.044,0.031-0.092-0.013-0.138C4.581,5.28,4.608,5.195,4.642,5.175c0.12-0.068,0.212-0.164,0.285-0.279
		c0.01-0.016,0.03-0.017,0.043-0.027c0.022-0.015,0.022-0.017-0.009-0.042c-0.018-0.014-0.007-0.03-0.008-0.045
		c-0.007-0.147,0.098-0.25-0.079-0.406c-0.045-0.04-0.043-0.093,0.009-0.112c0.071-0.026,0.072-0.103,0.125-0.138
		C5.022,4.117,5.024,4.1,5.011,4.082C4.997,4.062,5.002,4.037,5.002,4.014c0-0.071-0.006-0.141,0.055-0.198
		C5.079,3.797,5.114,3.755,5.06,3.72C5.05,3.714,5.053,3.688,5.067,3.683C5.1,3.67,5.121,3.631,5.167,3.646
		c0.116,0.039,0.215,0.022,0.298-0.052c0.052-0.032,0.095-0.03,0.132,0.019C5.626,3.65,5.663,3.684,5.675,3.731
		c0.031,0.126,0.113-0.033,0.147,0.045c0.007,0.015-0.031,0.019-0.014,0.048c0.03,0,0.065,0.021,0.104-0.008
		c-0.058,0.039-0.03,0.12-0.086,0.156c0.008,0.061-0.001,0.121-0.005,0.182c-0.002,0.025,0.032,0.034,0.06,0.038
		c0.035,0.02,0.064,0.047,0.085,0.08C6.034,4.229,6.02,4.31,6.054,4.326C6.085,4.307,6.127,4.295,6.137,4.25
		c0.101-0.076,0.167-0.179,0.199-0.31c0.015-0.02-0.009-0.069,0.039-0.061c0.04,0.006,0.006,0.044,0.019,0.065
		C6.411,3.97,6.41,3.995,6.395,4.024C6.379,4.08,6.396,4.117,6.447,4.138c0.037,0.01,0.033,0.056,0.047,0.085
		C6.513,4.262,6.452,4.26,6.438,4.292C6.462,4.318,6.495,4.278,6.52,4.311c0.039,0.064,0.047,0.131,0.023,0.201
		c0.026,0.012,0.037,0.042,0.068,0.049c0.032,0.032,0.027,0.054-0.013,0.065c-0.025,0.006-0.05,0.01-0.068,0.014
		C6.511,4.702,6.583,4.724,6.585,4.778C6.585,4.801,6.606,4.8,6.622,4.806C6.701,4.834,6.7,4.834,6.7,4.93
		c0.043,0,0.081,0.033,0.128,0.012C6.844,4.935,6.852,4.943,6.86,4.96c0.036,0.079,0.037,0.078,0.1,0.024
		c0.003,0.004,0.01,0.011,0.009,0.013c0.043,0.055,0.029,0.094-0.044,0.115c-0.066,0.022-0.12,0.063-0.178,0.1
		C6.733,5.221,6.719,5.228,6.701,5.231C6.635,5.24,6.635,5.242,6.667,5.317c0.049-0.07,0.136-0.082,0.192-0.141
		c0.027-0.029,0.081-0.02,0.109-0.058c0.052-0.002,0.095,0.021,0.127,0.07c0.028,0.001,0.05,0.013,0.065,0.037
		C7.173,5.301,7.154,5.366,7.103,5.42C7.046,5.476,6.972,5.499,6.9,5.52C6.827,5.542,6.792,5.589,6.775,5.655
		C6.752,5.696,6.722,5.729,6.684,5.756C6.649,5.784,6.603,5.808,6.559,5.813c-0.023,0.003-0.046-0.01-0.065,0.015
		c-0.016,0.02-0.208-0.011-0.246-0.005c-0.165-0.021-0.309,0.02-0.432,0.123C5.731,6.048,5.635,6.139,5.529,6.22
		C5.524,6.229,5.512,6.237,5.502,6.239C5.453,6.25,5.49,6.278,5.489,6.298c-0.033,0.06-0.082,0.11-0.106,0.175
		C5.348,6.478,5.313,6.483,5.303,6.534C5.343,6.528,5.366,6.508,5.39,6.49c0.054-0.054,0.09-0.12,0.13-0.183
		C5.528,6.305,5.54,6.306,5.544,6.3c0.07-0.1,0.172-0.161,0.27-0.227c0.072-0.048,0.149-0.079,0.24-0.07
		c0.031,0.003,0.044,0.02,0.063,0.037C6.16,6.079,6.041,6.188,6.025,6.227C5.971,6.353,5.905,6.165,5.908,6.3
		c0,0.01-0.01,0.021,0.002,0.037c0.035,0.008,0.056-0.031,0.088-0.038c0.039-0.013,0.052,0.001,0.039,0.04
		C6.018,6.37,6.024,6.412,5.989,6.433c0.019,0.023,0.043,0.003,0.062,0.018C5.997,6.541,6.02,6.592,6.122,6.603
		C6.13,6.632,6.09,6.629,6.096,6.657c0.05,0.004,0.1,0.014,0.134,0.063c0.033-0.027,0.055-0.068,0.098-0.082
		c0.019,0.022-0.008,0.055,0.024,0.07c0.016,0.079-0.034,0.134-0.151,0.165C6.162,6.887,6.112,6.879,6.094,6.931
		C6.091,6.939,6.088,6.936,6.081,6.932c-0.063-0.039-0.232,0.297-0.31,0.089C5.758,6.986,5.779,6.96,5.801,6.938
		c0.052-0.09,0.126-0.134,0.222-0.13c0.015,0.015,0.034,0.004,0.046-0.009C6.086,6.781,6.101,6.76,6.12,6.736
		C6.065,6.73,6.019,6.742,5.963,6.757C5.98,6.72,5.99,6.692,6.005,6.665c0.003-0.038-0.011-0.044-0.042-0.017
		C5.959,6.703,5.909,6.728,5.885,6.77C5.879,6.781,5.868,6.793,5.852,6.777c-0.021-0.02-0.039-0.018-0.044,0.002
		C5.777,6.824,5.737,6.837,5.687,6.818c0.024,0.06-0.007,0.099-0.052,0.141c-0.034,0.032-0.072-0.01-0.098,0.021
		C5.514,6.961,5.495,6.968,5.49,6.994C5.429,7.033,5.371,7.076,5.316,7.124C5.315,7.138,5.314,7.153,5.3,7.161
		c-0.051,0.03-0.025,0.108-0.085,0.133C5.204,7.3,5.214,7.315,5.219,7.325c0.01,0.023,0.043,0.019,0.051,0.048
		C5.244,7.385,5.222,7.427,5.188,7.378C5.147,7.374,5.131,7.393,5.139,7.436c0.309-0.019-0.385,0.067-0.317,0.197
		c0.025,0.048,0.001,0.094-0.03,0.126C4.765,7.82,4.718,7.853,4.65,7.858C4.613,7.843,4.589,7.863,4.604,7.896
		c0.04,0.088-0.002,0.156-0.044,0.225C4.526,8.125,4.53,8.053,4.479,8.081C4.463,8.09,4.466,8.062,4.465,8.05
		C4.457,7.974,4.497,7.915,4.541,7.86C4.555,7.842,4.576,7.83,4.577,7.797C4.55,7.804,4.528,7.82,4.506,7.828
		C4.477,7.839,4.439,7.852,4.447,7.9c0.002,0.015-0.009,0.034-0.018,0.048C4.381,8.024,4.375,8.099,4.426,8.177
		c0.008,0.012,0.008,0.024-0.007,0.036C4.371,8.248,4.373,8.264,4.423,8.297c0.024,0.062,0.012,0.105-0.038,0.13
		c0.064,0.091,0.091,0.031-0.013,0.061c-0.01,0.003-0.02,0.007-0.03,0.011C4.372,8.543,4.33,8.557,4.313,8.588
		C4.246,8.707,4.239,8.726,4.132,8.782c-0.056,0.03-0.1,0.069-0.137,0.119c-0.019,0.027-0.043,0.043-0.071,0.06
		c-0.108,0.087-0.181,0.196-0.22,0.327C3.701,9.293,3.697,9.3,3.699,9.304C3.751,9.433,3.73,9.578,3.791,9.705
		C3.791,9.728,3.73,9.578,3.791,9.705z M5.28,5.765c0.021,0.043,0.021,0.043,0.06-0.01C5.316,5.736,5.299,5.759,5.279,5.766
		C5.269,5.75,5.299,5.727,5.267,5.712C5.219,5.754,5.154,5.78,5.128,5.849C5.187,5.836,5.238,5.808,5.28,5.765
		C5.301,5.807,5.25,5.772,5.28,5.765z M3.824,7.4C3.811,7.432,3.78,7.443,3.755,7.462c-0.01,0.008-0.022,0.033-0.009,0.034
		C3.789,7.501,3.778,7.56,3.815,7.562c0.035,0.002,0.068-0.01,0.099-0.028c0.02-0.012,0.039-0.025,0.052-0.045
		c0.012-0.019,0.03-0.028,0.05-0.03c0.113-0.022,0.2-0.081,0.259-0.177c0.003-0.046,0.021-0.046,0.053-0.057
		c0.055-0.02,0.112,0.007,0.166-0.015c0.067-0.026,0.142-0.045,0.155-0.131c0.005-0.034,0.061-0.044,0.034-0.092
		C4.634,7.039,4.58,7.068,4.507,7.042c-0.014-0.005-0.034,0.004-0.052,0.02c0.01,0.007,0.073,0.041,0.064,0.058
		C4.51,7.137,4.496,7.138,4.482,7.132C4.324,7.084,4.246,7.115,4.247,7.226C4.265,7.239,4.254,7.258,4.231,7.26
		c-0.126,0.011-0.236,0.066-0.33,0.163C3.889,7.434,3.87,7.439,3.853,7.441C3.819,7.445,3.815,7.425,3.822,7.398
		c0.014-0.002,0.026-0.009,0.036-0.02C3.88,7.357,3.882,7.342,3.862,7.332C3.838,7.348,3.826,7.371,3.824,7.4
		C3.811,7.432,3.828,7.386,3.824,7.4z M3.327,6.625C3.332,6.63,3.336,6.634,3.341,6.639c-0.002,0.026-0.01,0.056,0.037,0.037
		C3.41,6.663,3.444,6.662,3.442,6.712C3.441,6.74,3.458,6.743,3.48,6.748c0.088-0.004,0.167-0.034,0.238-0.09
		C3.704,6.723,3.854,6.77,3.767,6.797c-0.061,0.019-0.124,0-0.189,0.029C3.499,6.86,3.429,6.892,3.393,6.972
		C3.38,7.001,3.352,7.013,3.336,7.037c-0.01,0.016-0.025,0.03-0.007,0.051c0.023-0.031,0.053-0.054,0.09-0.068
		c-0.095,0.144-0.14,0.305-0.134,0.484C3.287,7.537,3.32,7.549,3.349,7.529C3.364,7.52,3.381,7.508,3.386,7.493
		c0.016-0.044,0.043-0.081,0.068-0.12C3.469,7.349,3.478,7.32,3.47,7.291C3.439,7.184,3.517,7.108,3.543,7.017
		C3.545,7.01,3.554,7,3.56,7c0.063,0,0.065-0.076,0.116-0.094c0.089-0.033,0.246,0.016,0.12,0.202
		C3.781,7.13,3.762,7.152,3.758,7.18C3.779,7.19,3.791,7.178,3.8,7.17c0.111-0.104,0.067,0.064,0.099,0.107
		c0.067-0.039,0.1-0.093,0.097-0.16C4.004,7.06,4.048,7.026,4.089,6.998c0.037-0.001,0.066,0.011,0.087,0.034
		c0.035,0,0.055-0.015,0.061-0.046c0.052-0.01,0.042-0.034,0.018-0.065C4.241,6.904,4.247,6.883,4.251,6.863
		c0.004-0.02-0.006-0.027-0.021-0.039c-0.04-0.034-0.074-0.074-0.133-0.037c-0.07,0.002-0.139-0.01-0.207-0.036
		c-0.051-0.009-0.102-0.043-0.11-0.09c-0.011-0.066-0.017-0.134-0.029-0.2c-0.12-0.002-0.178-0.306-0.334-0.108
		C3.376,6.405,3.303,6.421,3.273,6.488C3.26,6.516,3.221,6.534,3.191,6.549C3.119,6.586,3.059,6.639,2.996,6.687
		C2.92,6.745,3.114,6.747,3.114,6.747c0.011,0.016,0.034,0.008,0.046-0.004C3.21,6.694,3.283,6.679,3.327,6.625
		C3.332,6.63,3.283,6.679,3.327,6.625z M2.717,5.933C2.645,5.914,2.638,5.861,2.643,5.803c0.002-0.018-0.002-0.034-0.007-0.05
		c-0.02-0.081-0.045-0.161-0.012-0.245c0.036-0.092-0.067-0.002-0.071,0C2.437,5.566,2.419,5.714,2.52,5.792
		c0.016,0.036,0.032,0.072,0.049,0.107C2.62,5.926,2.616,5.972,2.603,6.016C2.592,6.053,2.591,6.087,2.608,6.129
		C2.67,6.079,2.706,6.013,2.717,5.933C2.645,5.914,2.695,5.975,2.717,5.933z M3.503,6.081c-0.049,0.004-0.06,0.047-0.079,0.081
		C3.407,6.191,3.535,6.26,3.531,6.143C3.53,6.119,3.521,6.098,3.503,6.081C3.453,6.085,3.521,6.098,3.503,6.081z M5.594,5.495
		C5.767,5.42,5.646,5.39,5.639,5.399C5.617,5.425,5.595,5.45,5.594,5.495C5.633,5.478,5.595,5.45,5.594,5.495z M5.804,5.143
		c-0.005,0.037-0.051,0.043-0.056,0.08C5.747,5.257,5.759,5.262,5.783,5.24C5.791,5.209,5.817,5.182,5.804,5.143
		C5.798,5.181,5.817,5.182,5.804,5.143z M6.21,5.241c0.002,0.024-0.007,0.053,0.023,0.063c0.01,0.003,0.025-0.005,0.027-0.017
		C6.269,5.251,6.237,5.25,6.21,5.241C6.211,5.265,6.237,5.25,6.21,5.241z M4.214,6.688C4.231,6.713,4.259,6.7,4.277,6.716
		c0.034-0.01,0.037-0.025,0.009-0.047C4.263,6.669,4.241,6.673,4.214,6.688C4.231,6.713,4.241,6.673,4.214,6.688z M4.918,6.79
		C4.908,6.792,4.89,6.8,4.896,6.802c0.021,0.007,0,0.039,0.024,0.035C4.965,6.822,4.964,6.807,4.918,6.79
		C4.908,6.792,4.933,6.795,4.918,6.79z M4.987,6.898c0,0.038-0.03,0.062-0.01,0.094C4.991,7.015,5.028,6.928,4.987,6.898
		C4.987,6.936,5.004,6.91,4.987,6.898z M4.304,7.025C4.302,7.016,4.299,7.006,4.288,7.01C4.254,7.028,4.249,7.046,4.271,7.065
		C4.297,7.064,4.303,7.046,4.304,7.025C4.302,7.016,4.303,7.046,4.304,7.025z M5.224,4.84C5.221,4.824,5.21,4.817,5.195,4.813
		C5.118,4.792,5.199,4.897,5.224,4.84C5.221,4.824,5.216,4.858,5.224,4.84z M6.058,4.964C6.003,4.968,6.082,5.025,6.071,4.982
		C6.069,4.975,6.062,4.969,6.058,4.964C6.044,4.965,6.062,4.969,6.058,4.964z M5.314,4.908C5.312,4.903,5.31,4.898,5.308,4.893
		C5.301,4.901,5.292,4.908,5.286,4.916C5.294,4.939,5.303,4.936,5.314,4.908C5.312,4.903,5.313,4.92,5.314,4.908z"/>
	<path fill="#DDD9D9" d="M15.546,4.922c-0.002,0.045,0.017,0.079,0.039,0.118c0.049,0.087,0.117,0.165,0.141,0.266
		c0.014,0.06,0.066,0.101,0.093,0.155c0.044,0.087,0.085,0.176,0.131,0.262c0.074,0.139,0.155,0.275,0.225,0.416
		c0.047,0.096,0.089,0.191,0.109,0.298c0.027,0.152,0.083,0.298,0.141,0.441c0.027,0.065,0.036,0.133,0.051,0.199
		c0.019,0.081,0.038,0.162,0.066,0.241c0.015,0.043,0.006,0.07-0.024,0.097c-0.006,0.031,0.013,0.049,0.036,0.063
		c0.026,0.017,0.002,0.025-0.004,0.039c-0.012,0.028-0.04,0.009-0.06,0.023c-0.032,0.023-0.026-0.024-0.043-0.034
		c-0.014-0.008-0.013-0.033-0.038-0.032C16.382,7.516,16.37,7.555,16.411,7.6c0.1,0.107-0.007,0.043,0.021,0.162
		c-0.033,0-0.044,0.015-0.021,0.041c0.013,0.014,0.034,0.02,0.051,0.03c0.058,0.034,0.09,0.084,0.095,0.149
		c-0.008-0.001-0.015,0.001-0.018-0.002c-0.021-0.015-0.043-0.042-0.067-0.018c-0.025,0.024,0.018,0.035,0.021,0.056
		c0.001,0.006,0.001,0.011,0.001,0.017c-0.026,0.024-0.089-0.023-0.091,0.049c0,0.011-0.019,0.008-0.03,0.007
		c-0.049,0.014-0.086,0.001-0.112-0.039c0.007-0.037,0-0.066-0.019-0.098c0.016-0.058,0.049-0.069,0.099-0.033
		c0.019,0.02,0.041,0.029,0.071,0.021c-0.059-0.07-0.114-0.088-0.189-0.065c-0.004-0.004-0.009-0.007-0.01-0.012
		c-0.009-0.037-0.011-0.074,0.011-0.109c-0.067-0.035-0.113-0.089-0.139-0.16c-0.005-0.018-0.016-0.029-0.03-0.041
		C15.978,7.493,15.969,7.46,16,7.364c0.01-0.006,0.013-0.012,0.002-0.019c-0.004-0.014-0.024-0.022-0.011-0.042
		c0.012-0.018,0.011-0.041,0.008-0.063c-0.003-0.017-0.016-0.019-0.03-0.018c-0.03-0.023-0.061-0.046-0.091-0.069
		c-0.014-0.017-0.033-0.016-0.053-0.015c-0.066-0.063-0.155-0.097-0.212-0.171c-0.061,0-0.107-0.035-0.154-0.067
		c-0.016-0.011-0.035-0.015-0.014-0.044c0.019-0.027-0.021-0.043-0.034-0.06c-0.024-0.031-0.044-0.057-0.035-0.099
		c0.007-0.034-0.004-0.062-0.045-0.08c-0.011,0.049-0.038,0.086-0.07,0.12c-0.025-0.035-0.05-0.118-0.037-0.151
		c0.017-0.043-0.014-0.039-0.033-0.034c-0.041,0.011-0.077,0.035-0.129,0.042c0.04,0.051,0.032,0.096,0.007,0.146
		c-0.032,0.067-0.013,0.114,0.055,0.138c0.075,0.026,0.116,0.083,0.143,0.149c0.023,0.058,0.06,0.104,0.097,0.151
		c0.033,0.042,0.079,0.055,0.129,0.06c0.035,0.004,0.065,0.005,0.06,0.06c-0.003,0.034,0.04,0.054,0.072,0.066
		c0.064,0.024,0.111,0.071,0.16,0.115c0.017,0.015,0.023,0.032,0.029,0.051c0.006,0.017-0.002,0.029-0.015,0.036
		c-0.021,0.011-0.023-0.007-0.026-0.021c-0.034-0.027-0.071-0.051-0.109-0.072c-0.027,0.011-0.034,0.034-0.047,0.052
		c-0.022,0.031-0.03,0.06,0.003,0.092c0.016,0.015,0.025,0.038,0.039,0.056c0.019,0.023,0.02,0.06,0.009,0.073
		c-0.047,0.058-0.056,0.135-0.107,0.19c-0.012,0.013-0.025,0.014-0.039,0.009c-0.016-0.006-0.019-0.02-0.017-0.035
		c0.006-0.037,0.015-0.076,0.029-0.107c0.026-0.06,0.004-0.111-0.005-0.165c-0.007-0.04-0.026-0.075-0.072-0.089
		c-0.021-0.006-0.033-0.026-0.048-0.045c-0.106-0.096-0.22-0.181-0.341-0.256c-0.006-0.012-0.016-0.024-0.027-0.032
		c-0.081-0.059-0.117-0.146-0.148-0.235c-0.032-0.093-0.088-0.163-0.181-0.201c-0.054-0.022-0.254,0.138-0.278,0.174
		c-0.032,0.049-0.071,0.05-0.125,0.018c-0.015-0.009-0.03-0.017-0.046-0.024c-0.096-0.044-0.169-0.031-0.238,0.045
		c-0.024,0.026-0.018,0.06-0.014,0.091c0.012,0.115,0.014,0.116-0.091,0.173c-0.11,0.06-0.197,0.142-0.259,0.251
		c-0.006,0.01-0.012,0.02-0.019,0.029c-0.046,0.057-0.053,0.068-0.013,0.116c0.027,0.033,0.014,0.046-0.006,0.07
		c-0.042,0.05-0.089,0.097-0.103,0.164c-0.005,0.023-0.022,0.031-0.043,0.037c-0.051,0.016-0.1,0.047-0.118,0.095
		c-0.03,0.079-0.1,0.088-0.155,0.077c-0.086-0.018-0.149,0.018-0.218,0.049c-0.074,0.033-0.092,0.029-0.13-0.04
		c-0.008-0.015-0.013-0.032-0.023-0.046C12.797,8,12.768,7.987,12.704,8.014c-0.037,0.016-0.064,0.02-0.101-0.001
		c-0.022-0.013-0.054-0.017-0.091-0.004c0.009-0.052-0.003-0.095,0.017-0.14c0.011-0.024,0.005-0.063-0.017-0.089
		c-0.003-0.026-0.011-0.051-0.025-0.074c-0.024-0.002-0.002-0.044,0.002-0.067c0.007-0.009,0.005-0.019,0.001-0.029
		c0.002-0.002,0.004-0.005,0.005-0.008c0.021-0.01,0.016-0.027,0.01-0.043c0.03-0.048,0.038-0.106,0.066-0.156
		c0.016-0.029,0.013-0.071,0.004-0.11c-0.013-0.053-0.039-0.105-0.016-0.165c0.011-0.031-0.025-0.061-0.04-0.092
		c-0.028-0.055-0.015-0.097,0.045-0.105c0.043-0.006,0.072-0.025,0.105-0.048c0.065-0.009,0.129-0.007,0.192,0.008
		c0.066-0.005,0.129-0.008,0.196,0.013c0.046,0.015,0.101-0.002,0.152,0.007c0.109,0.05,0.208,0.021,0.296-0.085
		c0.003-0.095-0.005-0.189,0-0.284c-0.05-0.086-0.108-0.167-0.173-0.242c-0.001-0.038-0.053-0.034-0.05-0.073
		c0.001-0.01-0.05-0.007-0.02-0.043c-0.023-0.004-0.046-0.006-0.07-0.004c-0.039-0.042-0.082-0.092-0.156-0.06
		c-0.006-0.025,0.002-0.042,0.016-0.055c0.014-0.031,0.03-0.061,0.049-0.09c0.034-0.019,0.069-0.024,0.106-0.015
		c-0.001-0.002,0.199,0.025,0.213,0.005c0.017-0.025-0.011-0.057-0.009-0.088c0.001-0.024-0.016-0.048-0.024-0.073
		c-0.005-0.016-0.015-0.035,0.009-0.044c0.042,0.013,0.08,0.034,0.114,0.062c0.043-0.001,0.098,0.004,0.113-0.04
		c0.015-0.045,0.045-0.061,0.078-0.071c0.052-0.016,0.063-0.047,0.062-0.095c0.027-0.101,0.091-0.154,0.189-0.159
		c0.047-0.006,0.096,0.029,0.14-0.012c0.008-0.069,0.026-0.135,0.049-0.2c0.007-0.02,0.015-0.043,0.042-0.049
		c0.029-0.007,0.051-0.023,0.068-0.048c0.017-0.026,0.041-0.028,0.067-0.019c0.059,0.016,0.114,0.042,0.174,0.093
		c-0.006-0.048-0.035-0.062-0.035-0.088c0.031-0.014,0.052-0.065,0.101-0.015c0.017,0.017,0.037-0.029,0.04-0.057
		c0.003,0,0.103,0.001,0.042-0.02c-0.022-0.031-0.041-0.062-0.028-0.103c0.008-0.027-0.006-0.05-0.015-0.074
		c-0.009-0.023-0.027-0.041-0.011-0.071c0.011-0.021-0.005-0.043-0.026-0.057c-0.041-0.027-0.054-0.064-0.035-0.11
		c0.006-0.015,0.004-0.031-0.008-0.039c-0.047-0.032-0.023-0.077-0.03-0.125c0.04,0.002,0.086,0.025,0.102-0.029
		c0.021-0.02,0.042,0.004,0.063,0c-0.013-0.092-0.013-0.093-0.097-0.08c-0.012,0.002-0.022,0.005-0.032-0.004
		c0.012-0.036,0.042-0.035,0.071-0.035c0.035,0,0.063-0.013,0.073-0.048c0.012-0.04,0.043-0.049,0.076-0.057
		c0.026,0.097,0.026,0.097-0.05,0.137c0.043,0.002,0.041,0.034,0.047,0.062c0.007,0.036,0.005,0.075,0.056,0.087
		c0.028,0.007,0.015,0.037,0.006,0.051c-0.016,0.026-0.024-0.016-0.048-0.002c0.013,0.123-0.049,0.125-0.054,0.216
		c-0.003,0.061,0.103,0.195,0.182,0.252c0.025,0.002,0.047-0.005,0.065-0.02c0.043-0.003,0.043-0.069,0.086-0.063
		c0.045,0.006,0.093,0.016,0.131,0.039c0.072,0.043,0.144,0.032,0.217,0.014c0.046-0.012,0.097-0.01,0.132-0.052
		C15.517,4.919,15.534,4.923,15.546,4.922C15.544,4.967,15.534,4.923,15.546,4.922z"/>
	<path fill="#DDD9D9" d="M8.072,1.797C8.196,1.77,8.321,1.759,8.449,1.759c0.071,0,0.142-0.024,0.214-0.014
		c0.097,0.013,0.195,0.009,0.29,0.03c0.019,0.004,0.041,0.008,0.06,0.003C9.115,1.754,9.221,1.772,9.32,1.742
		c0.083-0.025,0.159,0.006,0.238,0.009c0.154,0.006,0.298,0.073,0.457,0.068c0.096-0.003,0.199,0.017,0.293,0.055
		c0.019,0.008,0.039,0.01,0.059,0.009c0.041-0.002,0.046,0.026,0.05,0.056c0,0-0.001,0-0.001,0
		c-0.023,0.005-0.042,0.015-0.057,0.031c-0.019-0.001-0.04-0.008-0.052,0.016c-0.028,0.001-0.099,0.021-0.123,0.035
		c-0.016-0.008-0.042-0.034-0.05-0.016c0.003,0.038-0.028,0.042-0.053,0.052c-0.014-0.002-0.027-0.001-0.035,0.014
		c-0.011,0.001-0.022,0.001-0.033,0.002c-0.008-0.014-0.02-0.02-0.036-0.015c-0.038,0.003-0.053-0.025-0.07-0.05
		c0.008-0.037,0-0.052-0.024-0.043c-0.013,0.016-0.01,0.03,0.007,0.041c0.001,0.027,0.012,0.049,0.027,0.071
		c0.036,0.055,0.03,0.077-0.029,0.109C9.883,2.189,9.874,2.193,9.87,2.2C9.818,2.297,9.713,2.336,9.643,2.412
		C9.601,2.456,9.578,2.517,9.544,2.574c-0.02-0.002-0.023-0.031-0.045-0.03C9.471,2.546,9.472,2.571,9.461,2.586
		c-0.013,0.018-0.024,0.04-0.045,0.052C9.393,2.631,9.391,2.609,9.383,2.592C9.376,2.577,9.356,2.568,9.348,2.58
		C9.257,2.588,9.18,2.622,9.117,2.683C9.106,2.726,9.097,2.727,9.032,2.739C9.02,2.76,9.034,2.776,9.043,2.793
		c0.05,0.093,0.042,0.111-0.059,0.132C8.99,2.953,9.022,2.935,9.037,2.957C9.029,2.989,9.002,3.019,9.009,3.059
		c0.004,0.023-0.004,0.038-0.034,0.032C8.951,3.085,8.957,3.108,8.958,3.118C8.96,3.143,8.949,3.163,8.944,3.185
		C8.94,3.201,8.934,3.214,8.916,3.202C8.87,3.173,8.87,3.212,8.876,3.234C8.887,3.27,8.891,3.296,8.848,3.308
		C8.831,3.312,8.828,3.331,8.83,3.343C8.842,3.426,8.792,3.49,8.761,3.559C8.758,3.606,8.732,3.64,8.683,3.66
		C8.698,3.69,8.75,3.69,8.739,3.712C8.721,3.749,8.758,3.806,8.699,3.827C8.671,3.82,8.631,3.816,8.637,3.783
		c0.007-0.041,0.001-0.051-0.038-0.065C8.532,3.695,8.453,3.72,8.454,3.67c0.011-0.004,0.02-0.01,0.023-0.023
		C8.463,3.634,8.455,3.641,8.453,3.669C8.43,3.653,8.426,3.628,8.421,3.603c-0.004-0.009,0.001-0.027-0.017-0.02
		C8.387,3.589,8.374,3.602,8.37,3.62C8.34,3.657,8.303,3.679,8.259,3.684c-0.044,0.064-0.045-0.02-0.07-0.019
		c0.001-0.053-0.065-0.087-0.041-0.146c-0.032-0.013,0.011-0.065-0.04-0.073C8.087,3.443,8.117,3.41,8.099,3.391
		C8.068,3.381,8.052,3.416,8.023,3.424C8.012,3.399,8.039,3.346,7.975,3.359C7.962,3.362,7.959,3.345,7.974,3.283
		C7.95,3.262,7.942,3.296,7.921,3.299c-0.007-0.027-0.029-0.05-0.008-0.082C7.888,3.184,7.866,3.148,7.849,3.11
		c0.005-0.013,0.023-0.009,0.028-0.015c0.023-0.028-0.02-0.008-0.016-0.03c0.04-0.019,0.088-0.038,0.112-0.087
		c0.008-0.017,0.015-0.034-0.001-0.046C7.96,2.921,7.948,2.935,7.936,2.944C7.904,2.969,7.869,2.991,7.829,3.019
		c-0.006-0.047,0.028-0.1-0.033-0.122C7.794,2.895,7.794,2.882,7.797,2.88c0.045-0.027-0.006-0.052-0.001-0.078
		C7.82,2.788,7.845,2.775,7.845,2.736C7.802,2.739,7.77,2.779,7.726,2.767C7.723,2.761,7.724,2.756,7.729,2.751
		c0.014-0.003,0.029-0.007,0.025-0.025C7.73,2.712,7.704,2.708,7.676,2.714c0.003-0.018,0.015-0.028,0.031-0.035
		c0.019,0.002,0.036-0.003,0.031-0.024C7.733,2.638,7.738,2.623,7.739,2.608c0.007-0.022,0.013-0.044-0.001-0.066
		C7.694,2.47,7.694,2.47,7.752,2.417c0.04-0.051,0.085-0.049,0.142-0.024C8.016,2.447,8.056,2.175,7.97,2.35
		C7.957,2.376,7.938,2.381,7.916,2.357c0.008-0.034-0.015-0.063-0.019-0.095c0.03-0.009,0.06-0.025,0.09-0.026
		c0.06-0.002,0.023-0.035,0.034-0.064C7.926,2.23,7.906,2.233,7.801,2.206c0.061-0.012,0.08-0.066,0.145-0.05
		c0.054-0.04,0.074-0.091,0.059-0.153c0.004-0.012,0.011-0.017,0.026-0.011c0.046-0.007,0.06-0.027,0.044-0.057
		c0.013-0.009,0.019-0.019,0.006-0.032C8.069,1.89,8.056,1.878,8.043,1.865C8.023,1.829,8.066,1.821,8.072,1.797
		C8.196,1.77,8.066,1.821,8.072,1.797z M8.119,2.453c-0.053,0.02-0.082,0.048-0.11,0.084C8.087,2.531,8.095,2.525,8.119,2.453z
		 M9.401,2.531c0.02-0.006,0.037-0.018,0.034-0.041C9.409,2.466,9.39,2.47,9.377,2.503C9.377,2.518,9.381,2.531,9.401,2.531
		C9.421,2.525,9.381,2.531,9.401,2.531z"/>
	<path fill="#DDD9D9" d="M5.611,2.058c-0.014-0.011-0.043,0.026-0.05-0.021c-0.009-0.059-0.021-0.06-0.07-0.022
		C5.485,2.019,5.484,2.028,5.47,2.025C5.469,2.003,5.468,1.98,5.465,1.957C5.421,1.96,5.392,1.94,5.379,1.897
		C5.361,1.899,5.34,1.909,5.336,1.933C5.39,1.926,5.401,1.948,5.367,1.996c-0.063,0.052-0.239-0.096-0.225,0.05
		c0.003,0.026,0.033,0.052-0.005,0.081c-0.041-0.045-0.082-0.09-0.122-0.135c0.005,0.041,0.036,0.07,0.037,0.111
		C4.985,2.176,4.887,2.175,4.758,2.098C4.727,2.116,4.694,2.115,4.661,2.097C4.651,2.059,4.624,2.045,4.58,2.057
		C4.569,2.071,4.54,2.084,4.538,2.073C4.534,2.032,4.48,2.027,4.481,1.985c0.02-0.016,0.04-0.034,0.058-0.052
		c-0.021-0.03-0.05-0.014-0.074-0.007c-0.039,0.012-0.062,0.008-0.06-0.04c0.008-0.047,0.012-0.095,0.013-0.143
		c0.041-0.1,0.121-0.17,0.176-0.259C4.61,1.46,4.614,1.432,4.632,1.408c0.04-0.051,0.102-0.069,0.155-0.085
		c0.068-0.021,0.136-0.046,0.206-0.059c0.123-0.023-0.041,0.07-0.041,0.069C4.87,1.37,4.804,1.428,4.783,1.517
		C4.697,1.885,4.824,1.704,4.69,1.872c0.036-0.018,0.069-0.045,0.115-0.005c0.003-0.058,0.017-0.103,0.049-0.138
		c-0.03-0.063,0.034-0.137,0.035-0.137C4.872,1.585,4.845,1.594,4.844,1.563c-0.001-0.03,0.002-0.061,0.023-0.082
		C4.958,1.394,5.043,1.3,5.155,1.237c0.052-0.029,0.097-0.005,0.108,0.056c-0.037,0.07-0.098,0.134-0.057,0.224
		C5.21,1.525,5.201,1.539,5.198,1.55C5.194,1.559,5.195,1.569,5.2,1.578c-0.018,0.03-0.027,0.064-0.055,0.095
		C5.222,1.666,5.222,1.666,5.212,1.59c0.027-0.035,0.061-0.057,0.103-0.066c0.016,0.058,0.05-0.015,0.064,0.006
		c0.013,0.025-0.012,0.043,0,0.063c0.01-0.007,0.024-0.012,0.027-0.021c0.015-0.059,0.043-0.08,0.098-0.039
		c0.008,0.006,0.022,0.001,0.028-0.016C5.518,1.478,5.456,1.488,5.45,1.44c0-0.002-0.011-0.006-0.014-0.004
		C5.395,1.469,5.338,1.434,5.297,1.469C5.281,1.483,5.26,1.493,5.241,1.478C5.219,1.459,5.216,1.432,5.228,1.407
		C5.247,1.37,5.26,1.333,5.261,1.292c0.038-0.078,0.098-0.118,0.18-0.119c0.022,0.012,0.037,0,0.055-0.011
		c0.014-0.009,0.03-0.017,0.046-0.023c0.02-0.008,0.044-0.009,0.058,0.004c0.041,0.033,0.022,0.086,0.034,0.129
		c0.007,0.024-0.011,0.056-0.048,0.06C5.549,1.336,5.524,1.364,5.493,1.388c0.093,0.03,0.186,0.037,0.281,0.022
		C5.836,1.376,5.858,1.39,5.87,1.461c0.003,0.018,0.016,0.03,0.018,0.047C5.892,1.54,5.9,1.575,5.864,1.593
		C5.819,1.616,5.842,1.647,5.847,1.679c0.035-0.01,0.03-0.057,0.064-0.066C5.91,1.645,5.924,1.663,5.954,1.669
		c0.025,0,0.01-0.016,0.011-0.028C5.984,1.601,6.009,1.59,6.04,1.608c0.024,0.041,0.061,0.063,0.106,0.073
		c0.029,0.079,0.14,0.012,0.165,0.102C6.305,1.801,6.263,1.806,6.266,1.838C6.268,1.85,6.289,1.859,6.301,1.87
		c0.02-0.007,0.021-0.027,0.03-0.041C6.353,1.79,6.375,1.792,6.397,1.835c0,0.076-0.039,0.117-0.117,0.124
		c0.046,0.024,0.089,0.052,0.128,0.086c-0.036,0.008-0.071,0.018-0.105,0.03c-0.028-0.001-0.057-0.003-0.08,0.02
		C6.153,2.162,6.061,2.191,5.974,2.223C5.909,2.248,5.853,2.282,5.797,2.32C5.741,2.3,5.734,2.289,5.756,2.245
		c0.009-0.017,0.028-0.03,0.022-0.055C5.704,2.2,5.68,2.278,5.622,2.309C5.58,2.223,5.587,2.19,5.664,2.142
		C5.616,2.129,5.592,2.103,5.61,2.057C5.617,2.053,5.625,2.05,5.632,2.045C5.64,2.04,5.659,2.039,5.65,2.024
		C5.642,2.01,5.624,2.014,5.615,2.026C5.61,2.034,5.612,2.047,5.611,2.058C5.597,2.047,5.612,2.047,5.611,2.058z M6.243,1.948
		C6.16,1.846,6.26,2.046,6.243,1.948C6.232,1.935,6.245,1.96,6.243,1.948z M6.078,1.695C6.023,1.712,6.09,1.741,6.092,1.699
		C6.092,1.698,6.083,1.696,6.078,1.695C6.067,1.698,6.083,1.696,6.078,1.695z M6.14,1.813C6.119,1.782,6.117,1.826,6.129,1.824
		C6.133,1.823,6.136,1.816,6.14,1.813C6.137,1.809,6.136,1.816,6.14,1.813z"/>
	<path fill="#DDD9D9" d="M12.896,4.542c0.002-0.011,0.005-0.022,0.006-0.033C12.904,4.487,13,4.443,12.887,4.45
		c-0.013,0.001-0.011-0.017-0.012-0.028c-0.002-0.026,0.009-0.049,0.017-0.073c-0.005-0.012-0.01-0.023-0.015-0.035
		c-0.012-0.051-0.002-0.098,0.032-0.142c0.011-0.005,0.024-0.01,0.019-0.022c-0.014-0.032,0.005-0.053,0.017-0.079
		c0.01-0.023,0.012-0.05,0.018-0.08C12.998,4,13.028,4.008,13.06,3.981c0.019-0.016,0.057-0.016,0.078,0.01
		c0.023,0.029,0.021,0.059-0.009,0.084c-0.037,0.029-0.064,0.064-0.081,0.106c-0.007,0.037,0.007,0.052,0.04,0.034
		c0.049-0.027,0.099-0.025,0.15-0.023c0.051,0.002,0.06,0.012,0.053,0.063c-0.007,0.05-0.008,0.102-0.052,0.141
		c-0.019,0.016-0.033,0.042-0.003,0.073c0.035,0.036-0.03,0.055-0.027,0.089c0.091,0.029,0.143,0.096,0.173,0.18
		c0.014,0.039,0.034,0.068,0.067,0.095c0.054,0.044,0.1,0.097,0.148,0.148c0.014,0.014,0.017,0.031-0.014,0.03
		c-0.02-0.001-0.014,0.021-0.009,0.024c0.007,0.057,0.026,0.11,0.056,0.156c0.035-0.004,0.202-0.117,0.154,0.077
		c-0.012,0.048-0.018,0.098-0.084,0.101c-0.028,0.001-0.089,0.094-0.013,0.086c0.016-0.001,0.037-0.008,0.041,0.017
		c0.003,0.021-0.014,0.029-0.029,0.038c-0.037,0.023-0.072,0.059-0.119,0.018c-0.005-0.005-0.019-0.007-0.025-0.003
		c-0.067,0.034-0.151-0.005-0.213,0.049c-0.016,0.014-0.033,0.011-0.048,0.004c-0.049-0.024-0.088-0.015-0.12,0.029
		c-0.016,0.023-0.029,0.025-0.059,0.01c-0.044-0.021-0.087,0.004-0.12,0.041c-0.015,0.017-0.01,0.053-0.038,0.053
		c-0.024,0-0.047-0.017-0.082-0.03c0.079-0.045,0.117-0.112,0.15-0.184c0.016-0.035,0.045-0.056,0.092-0.045
		c0.051,0.019,0.098,0.015,0.139-0.012c0.005-0.021,0.026-0.047,0.005-0.063c-0.023-0.018-0.042-0.001-0.052,0.025
		c-0.002,0.005-0.007,0.008-0.011,0.012c-0.041-0.06-0.105,0.024-0.123-0.007C13.035,5.41,13,5.401,12.97,5.376
		c-0.008-0.062,0.022-0.102,0.09-0.12c0.016-0.012,0.021-0.026,0.02-0.044c-0.001-0.036-0.01-0.057-0.052-0.039
		c-0.006,0.003-0.016-0.002-0.025-0.004c0.008-0.03,0.038-0.036,0.052-0.058c0.012-0.019,0.021-0.031-0.007-0.046
		c-0.024-0.012-0.02-0.034-0.001-0.049c0.019-0.015,0.032-0.002,0.041,0.015c0.076,0.146,0.147-0.073,0.148-0.106
		c0.001-0.027-0.001-0.041-0.034-0.046c-0.059-0.009-0.062-0.013-0.042-0.07c0.011-0.029-0.005-0.046-0.02-0.035
		c-0.038,0.026-0.083-0.008-0.121,0.023c-0.02,0.017-0.066-0.017-0.059-0.041c0.02-0.066,0.007-0.133,0.013-0.202
		c-0.027-0.008-0.047-0.001-0.067,0.02c-0.008,0.007-0.012-0.013-0.012-0.023C12.898,4.549,12.898,4.545,12.896,4.542
		C12.898,4.531,12.898,4.545,12.896,4.542z"/>
	<path fill="#DDD9D9" d="M11.075,2.471c0.024,0.031,0.037,0.066,0.026,0.104c-0.007,0.026,0.004,0.044,0.01,0.066
		c0.046-0.006,0.03-0.08,0.087-0.07c0.009,0.002,0.006-0.031,0.007-0.047c0.001-0.019-0.013-0.044,0.015-0.052
		c0.034-0.011,0.023,0.025,0.034,0.038c0.007,0.008,0.012,0.019,0.027,0.043c0.003-0.069,0.049-0.087,0.091-0.113
		c0.028,0.02,0.003,0.071,0.046,0.082c0.026-0.016-0.007-0.036,0.008-0.058c0.051-0.001,0.101-0.006,0.151-0.014
		c0.036,0.017,0.042-0.005,0.049-0.035c0.013-0.052,0.038-0.061,0.064-0.02c0.038,0.058,0.08,0.05,0.141,0.012
		c-0.04,0.044-0.05,0.11-0.031,0.144c0.009,0.017,0.025,0.007,0.037,0.012c0.026,0.01,0.062,0.009,0.073,0.039
		c0.077,0.219-0.06,0.01-0.089,0.177c-0.004,0.023-0.015,0.036-0.034,0.045c-0.077,0.038-0.154,0.075-0.231,0.112
		c-0.028,0.014-0.037-0.023-0.06-0.024c-0.024-0.001-0.051-0.008-0.036,0.033c0.015,0.04,0.016,0.06-0.041,0.063
		c-0.075,0.034-0.133,0.021-0.173-0.039c-0.036-0.056-0.096-0.069-0.181-0.04c-0.016,0.005-0.032,0.014-0.049,0.015
		c-0.02,0.001-0.044-0.003-0.048-0.026c-0.004-0.022,0.019-0.025,0.035-0.03c0.095-0.027,0.011-0.134-0.088-0.119
		c-0.031,0.019-0.056,0.015-0.074-0.012c0.011-0.025,0.032-0.037,0.061-0.037c0.047-0.027,0.104-0.047,0.093-0.123
		c-0.068-0.016-0.118,0.08-0.208,0.031c0.1-0.02,0.116-0.088,0.115-0.179c0.041,0.042,0.057,0.091,0.114,0.073
		c0.026-0.037-0.041-0.034-0.041-0.062c0.013-0.019,0.032-0.013,0.048-0.017c0.012-0.004,0.022-0.003,0.03,0.004
		C11.053,2.458,11.06,2.467,11.075,2.471C11.099,2.502,11.06,2.467,11.075,2.471z"/>
	<path fill="#DDD9D9" d="M12.514,5.098c-0.052-0.003-0.094-0.005-0.135-0.039c0.032-0.021,0.037-0.063,0.079-0.073
		c0.02-0.005,0.022-0.025,0.002-0.038c-0.01-0.007-0.024-0.014-0.021-0.024c0.004-0.015-0.016-0.059,0.033-0.034
		c0.022,0.011,0.043-0.018,0.066-0.003C12.558,4.9,12.57,4.89,12.572,4.868c0.001-0.031,0.059-0.045,0.038-0.066
		c-0.032-0.032,0.116-0.167,0.154-0.04c0.018-0.011,0.031-0.023,0.047-0.028c0.03-0.011,0.058,0.006,0.055,0.033
		c-0.006,0.05,0.034,0.082,0.038,0.128c-0.001,0.001-0.005,0.006-0.01,0.008c-0.095,0.033-0.119,0.076-0.094,0.174
		c0.003,0.014,0.01,0.027,0.014,0.041c0.022,0.074,0.002,0.12-0.058,0.17c-0.057,0.048-0.119,0.087-0.178,0.131
		c-0.034,0.007-0.067,0.007-0.1-0.001c-0.018-0.005-0.033-0.013-0.046-0.025c-0.17,0.067,0.058-0.226,0.023-0.152
		C12.475,5.196,12.483,5.147,12.514,5.098C12.462,5.095,12.483,5.147,12.514,5.098z"/>
	<path fill="#DDD9D9" d="M6.09,16.263c-0.114-0.066-0.236-0.117-0.35-0.185c-0.091-0.054-0.184-0.106-0.274-0.162
		c-0.194-0.122-0.387-0.247-0.574-0.381c-0.099-0.071-0.188-0.149-0.266-0.244c-0.052-0.063-0.122-0.113-0.189-0.163
		c-0.058-0.043-0.114-0.087-0.16-0.144c-0.004-0.004-0.005-0.011-0.01-0.014c-0.154-0.091-0.241-0.244-0.35-0.376
		c-0.117-0.141-0.229-0.287-0.353-0.423c-0.02-0.022-0.032-0.048-0.036-0.077c0.014-0.012,0.028-0.024,0.042-0.036
		c0.022-0.021,0.04-0.045,0.053-0.074c-0.024-0.032-0.05,0.015-0.077,0.02c-0.013-0.006-0.026-0.011-0.039-0.018
		c-0.023-0.012-0.041-0.026-0.004-0.044c0.004-0.002,0.006-0.014,0.005-0.015c-0.057-0.036,0.008-0.09-0.018-0.13
		c-0.003-0.004-0.003-0.014-0.001-0.015c0.049-0.027,0.056-0.07,0.046-0.12c-0.001-0.007,0.005-0.019,0.011-0.022
		c0.05-0.023,0.054-0.06,0.037-0.106c-0.01-0.027,0.003-0.044,0.027-0.055c0.031-0.015,0.063-0.03,0.08-0.063
		c0.017-0.008,0.035-0.014,0.051-0.024c0.008-0.015,0.007-0.025-0.002-0.031c-0.002-0.018-0.004-0.036-0.005-0.054
		c0.014-0.023,0.028-0.044,0.057-0.049c0.018,0.003,0.037,0.006,0.049-0.014c0.019-0.035,0.037-0.072,0.068-0.095
		c-0.058-0.026-0.066-0.062-0.024-0.108c0.003-0.014,0.01-0.028,0.01-0.042c0-0.08,0.03-0.156,0.033-0.235
		c0.002-0.044,0.003-0.08-0.056-0.098c-0.065-0.02-0.072-0.055-0.045-0.119c0.022-0.002,0.041-0.012,0.031-0.035
		c-0.012-0.027-0.034-0.019-0.052-0.002c-0.015,0.003-0.026-0.001-0.031-0.017c-0.001-0.01-0.007-0.015-0.016-0.018
		c-0.011-0.016-0.02-0.035-0.033-0.049c-0.023-0.024-0.061-0.027-0.073-0.003c-0.025,0.05-0.078,0.048-0.112,0.08
		C3.564,12.52,3.585,12.54,3.6,12.567c-0.006,0.024-0.033,0.036-0.056,0.048c-0.007,0.003-0.024,0.002-0.024,0
		c-0.011-0.06-0.084-0.044-0.109-0.09c-0.022-0.04-0.07-0.024-0.107-0.026c-0.024-0.009-0.056,0.006-0.075-0.02
		c0.002-0.017,0.005-0.04-0.016-0.041c-0.023-0.001-0.014,0.025-0.018,0.039c-0.03-0.042-0.055-0.087-0.075-0.135
		c-0.043-0.014-0.053-0.058-0.085-0.079c-0.032,0.004-0.021,0.042-0.049,0.051c-0.023,0.004-0.028-0.022-0.043-0.033
		c-0.033-0.022-0.047-0.041-0.016-0.083c0.025-0.032,0.009-0.085-0.014-0.112C2.87,12.035,2.85,11.97,2.804,11.923
		c-0.01-0.01-0.015-0.031-0.026-0.033c-0.058-0.014-0.035-0.041-0.015-0.07c0.002-0.003-0.002-0.011-0.003-0.016
		c-0.009-0.028-0.021-0.013-0.033-0.002c-0.026,0.027-0.064,0.022-0.089,0.012C2.598,11.799,2.56,11.797,2.52,11.8
		c-0.017,0.001-0.033-0.002-0.047-0.016c-0.038-0.036-0.084-0.059-0.136-0.066c-0.017-0.002-0.029-0.011-0.042-0.024
		c-0.063-0.061-0.127-0.12-0.185-0.187c-0.045-0.052-0.114-0.083-0.189-0.084c0.016,0.008,0.033,0.008,0.05,0.005
		c0.044-0.088,0.032-0.18-0.037-0.276c0.076,0.031,0.148,0.005,0.212-0.031c0.045-0.025,0.084-0.046,0.134-0.025
		c0.017,0.007,0.042,0.01,0.048-0.003c0.024-0.049,0.078-0.07,0.1-0.125c0.028-0.071,0.066-0.139,0.087-0.213
		c0.006-0.022,0.026-0.032,0.046-0.036c0.06-0.013,0.114-0.034,0.165-0.07c0.02-0.014,0.049-0.019,0.074-0.021
		c0.083-0.009,0.126,0.047,0.082,0.117c-0.075,0.12-0.07,0.263-0.128,0.387c-0.005-0.003-0.016-0.008-0.025-0.015
		c-0.01-0.008-0.02-0.014-0.029-0.003c-0.005,0.005-0.007,0.019-0.003,0.024c0.006,0.087-0.007,0.17-0.04,0.25
		c-0.015,0.032-0.042,0.059-0.072,0.099c0.133-0.011,0.255,0.004,0.377-0.034c0.05-0.016,0.112-0.002,0.166,0.017
		c0.021,0.007,0.042,0.02,0.046,0.047c0.002,0.015,0.01,0.029,0.026,0.03c0.068,0.004,0.07,0.055,0.076,0.104
		c-0.003,0.004-0.003,0.008-0.001,0.012c-0.037,0.034-0.054,0.078-0.062,0.126c-0.013,0.007-0.014,0.016-0.007,0.028
		c-0.005,0.025,0.004,0.052-0.008,0.076c-0.007,0-0.012,0.002-0.009,0.011c-0.022,0.057-0.017,0.12-0.017,0.176
		c0,0.051,0.022,0.118,0.072,0.158c0.046,0.037,0.078,0.083,0.095,0.139c0.004,0.007,0.008,0.013,0.018,0.011
		c0.018,0.012,0.036,0.006,0.053-0.003c0.021,0.006,0.018,0.004,0.034,0.018c0.05,0.033,0.086-0.002,0.123-0.028
		c0.034,0,0.072,0.017,0.099-0.018c0.002-0.005,0.004-0.01,0.007-0.016c0.031,0,0.063,0.001,0.094,0.001
		c0.013,0.019,0.047,0.013,0.047,0.053c0,0.032,0.043,0.041,0.066,0.062c0.046,0.042,0.109,0.065,0.136,0.136
		c0.025-0.04,0.03-0.067,0.034-0.095c0.005-0.039,0.023-0.07,0.056-0.091c0.043-0.027,0.066-0.07,0.073-0.115
		c0.01-0.06,0.022-0.109,0.097-0.103c0.035-0.043,0.098-0.031,0.133-0.062c0.06-0.052,0.152-0.053,0.195-0.133
		c0.018-0.034,0.044-0.027,0.103,0.013c0,0.034-0.044,0.034-0.051,0.063c-0.006,0.004-0.012,0.008-0.018,0.012
		c-0.046,0.021-0.045,0.039,0.003,0.052c0.003,0.012-0.015-0.004,0,0c0.003,0.012,0.005,0.023,0.008,0.035
		c0.007,0.031,0.028,0.062-0.02,0.083c-0.036,0.016-0.032,0.054-0.022,0.083c0.012,0.034,0.024,0.071,0.06,0.093
		c0.021-0.021,0.065-0.017,0.073-0.049c0.008-0.032,0.009-0.076-0.014-0.098c-0.052-0.05-0.037-0.095-0.006-0.145
		c0.008-0.002,0.016-0.005,0.024-0.007c0.014,0.002,0.026-0.004,0.036-0.014c0.012-0.001,0.024-0.002,0.036-0.002
		c0.024,0.003,0.048,0.01,0.065-0.015c0.001-0.006,0.002-0.012,0.002-0.017c0.041,0.005,0.081,0.01,0.122,0.015
		c0.012,0.008,0.024,0.016,0.035,0.024c0.005,0.004,0.01,0.009,0.015,0.013c0.006,0.012,0.015,0.024,0.017,0.037
		c0.01,0.057,0.01,0.057,0.07,0.044c0.058,0.001,0.116,0.003,0.174,0.004c0,0,0.004,0.002,0.004,0.002
		c0.001,0.014,0.006,0.026,0.015,0.035c0.007,0.015,0.02,0.015,0.034,0.011c0.006,0.002,0.012,0.004,0.019,0.006
		c0.004,0.008,0.009,0.008,0.015,0.002c0.023-0.001,0.046-0.002,0.069-0.003c0.02,0.004,0.04,0.009,0.052-0.014
		c0.017-0.008,0.034-0.016,0.051-0.024c0.057,0.015,0.104-0.018,0.156-0.029c0.033-0.011,0.055-0.001,0.064,0.033
		c-0.013,0.001-0.027,0.001-0.04,0.004c-0.019,0.005-0.028,0.016-0.008,0.032c0.008,0.011,0.016,0.023,0.024,0.034
		c-0.003,0.019,0.007,0.026,0.024,0.023c0.014-0.002,0.027-0.007,0.041-0.011c0.018,0.015,0.037,0.02,0.061,0.02
		c0.056,0.001,0.06,0.012,0.039,0.067c-0.007,0.018-0.012,0.037-0.017,0.056c-0.032,0.015-0.066,0.016-0.101,0.016
		c-0.033-0.001-0.05,0.015-0.052,0.05c0.063-0.012,0.119-0.023,0.175-0.034c0.012,0.002,0.023,0.002,0.033-0.005
		c0.023,0.002,0.047,0.005,0.07,0.007c0.059,0.012,0.099,0.051,0.139,0.091c0.073,0.075,0.073,0.075,0.009,0.157
		c-0.009,0.011-0.022,0.021-0.009,0.036c0.012,0.014,0.027,0.008,0.037-0.002c0.02-0.02,0.019-0.069,0.064-0.054
		c0.051,0.017,0.108,0.029,0.134,0.083c0.012,0.026,0.013,0.036,0.047,0.02c0.028-0.013,0.068-0.003,0.102,0.004
		c0.05,0.01,0.091-0.031,0.143-0.017c0.044,0.011,0.072,0.047,0.12,0.057c0.064,0.013,0.138,0.035,0.167,0.117
		c0.101,0.079,0.16,0.185,0.177,0.316c0.001,0.04,0.029,0.074,0.031,0.115c0.001,0.018,0.021,0.015,0.034,0.017
		c0.049,0.01,0.044,0.035,0.018,0.066c-0.02,0.002-0.053,0.011-0.04,0.029c0.024,0.032-0.017,0.053-0.004,0.08
		c0.054-0.012,0.075-0.007,0.065,0.018c-0.025,0.005-0.041,0.013-0.035,0.045c0.006,0.032-0.016,0.045-0.044,0.032
		c-0.019-0.009-0.009-0.04-0.035-0.042c-0.041,0.026-0.07,0.062-0.097,0.103C7.044,13.8,7.043,13.85,6.998,13.868
		c-0.052,0.014-0.105,0.029-0.157,0.043c-0.042,0.011-0.07,0.038-0.087,0.077c-0.043,0.024-0.088,0.027-0.133,0.01
		c-0.033-0.012-0.057-0.008-0.086,0.024c0.067,0,0.124,0,0.181,0c0.024,0,0.039-0.008,0.038-0.034
		c0.069-0.043,0.147-0.063,0.223-0.09c0.007-0.003,0.013-0.01,0.02-0.016c0.041-0.005,0.05,0.021,0.052,0.054
		c0.009,0.031-0.028,0.059-0.007,0.1c0.025-0.035,0.055-0.059,0.026-0.1c0.004-0.041,0.037-0.077,0.064-0.065
		c0.042,0.019,0.037,0.002,0.037-0.025c0-0.015,0.014-0.024,0.019-0.036c0.026-0.056,0.094-0.065,0.123-0.117
		c0.042,0.004,0.078,0.021,0.109,0.051c0.04-0.004,0.037,0.026,0.037,0.052c-0.008,0.008-0.006,0.015,0,0.022
		c0.002,0.01,0.004,0.02,0.006,0.029c-0.051,0.103-0.151,0.111-0.249,0.126c0.054,0.009,0.107-0.012,0.157,0.009
		c0.002,0.001,0.006,0.001,0.008,0c0.032-0.023,0.064-0.046,0.096-0.069c-0.026-0.042,0.018-0.048,0.034-0.069
		c0.008-0.007,0.015-0.014,0.023-0.021c0.041,0.001,0.083-0.006,0.124,0.003c0.055,0.061,0.133,0.089,0.203,0.117
		c0.054,0.022,0.051,0.071,0.087,0.093c-0.017,0.032,0.027,0.049,0.019,0.078c0.004,0.049,0.023,0.055,0.059,0.018
		c0.053-0.06,0.093-0.068,0.149-0.013c0.032,0.032,0.065,0.004,0.095,0.023c0.04,0.024,0.087,0.032,0.132,0.033
		c0.118,0.003,0.203,0.064,0.281,0.143c0.04,0.04,0.092,0.067,0.116,0.123c0.005,0.012,0.022,0.022,0.036,0.019
		c0.052-0.013,0.087,0.038,0.136,0.035c0.01,0,0.025,0.008,0.029,0.017c0.034,0.068,0.071,0.136,0.098,0.207
		c0.01,0.027,0.009,0.061,0.013,0.092c0.01,0.068,0.012,0.136-0.027,0.2c-0.023,0.038-0.047,0.078-0.066,0.119
		c-0.014,0.031-0.04,0.062-0.08,0.074c-0.09,0.028-0.139,0.104-0.168,0.183c-0.021,0.058-0.053,0.106-0.085,0.156
		c-0.025,0.005-0.031-0.036-0.062-0.024c-0.006,0.019-0.012,0.041-0.018,0.063c-0.003,0.007-0.008,0.013-0.015,0.017
		C8.576,15.6,8.561,15.599,8.562,15.62c0.014,0.033-0.01,0.058-0.018,0.086c0.008,0.004,0.014,0.01,0.017,0.017
		c0,0.006,0.001,0.012,0.001,0.018c0.003,0.041,0.007,0.081,0.01,0.122c-0.011,0.034,0.008,0.068,0.003,0.102
		c-0.007,0.044,0.004,0.092-0.031,0.131c-0.016,0.018-0.009,0.044-0.014,0.066c-0.007,0.037,0.017,0.081-0.035,0.109
		c-0.02,0.01-0.01,0.054-0.009,0.082c0.001,0.035-0.003,0.065-0.029,0.094c-0.062,0.069-0.121,0.142-0.157,0.229
		c-0.005,0.012-0.019,0.021-0.029,0.032c-0.162,0.001-0.325,0.016-0.485,0c-0.159-0.016-0.318-0.043-0.473-0.089
		c-0.099-0.03-0.202-0.042-0.301-0.067c-0.099-0.025-0.204-0.032-0.297-0.08c-0.018-0.009-0.038-0.017-0.058-0.017 M3.046,12.094
		c-0.026-0.055-0.05-0.083-0.086-0.108c-0.028-0.013-0.041-0.004-0.038,0.028C2.931,12.068,2.971,12.094,3.046,12.094
		C3.02,12.039,2.971,12.094,3.046,12.094z M2.902,11.93c-0.001-0.013-0.007-0.02-0.02-0.022c-0.035,0.002-0.038,0.013-0.008,0.033
		C2.886,11.944,2.896,11.943,2.902,11.93C2.901,11.918,2.896,11.943,2.902,11.93z"/>
</g>
</svg>
