<?xml version="1.0" encoding="utf-8"?>
<!-- Generator: Adobe Illustrator 17.0.2, SVG Export Plug-In . SVG Version: 6.00 Build 0)  -->
<!DOCTYPE svg PUBLIC "-//W3C//DTD SVG 1.1//EN" "http://www.w3.org/Graphics/SVG/1.1/DTD/svg11.dtd">
<svg version="1.1" id="Layer_1" xmlns="http://www.w3.org/2000/svg" xmlns:xlink="http://www.w3.org/1999/xlink" x="0px" y="0px"
	 width="20px" height="20px" viewBox="0 0 20 20" enable-background="new 0 0 20 20" xml:space="preserve">
<g id="Layer_1_1_">
</g>
<g id="Layer_1_2_">
</g>
<g id="y4O14w_1_">
	<g>
		<path fill="#30633E" d="M-2.595-2.815c9.149,0,18.298,0,27.447,0c0,8.091,0,16.181,0,24.272c0,0.119,0,0.119-0.119,0.119
			c-9.07,0-18.139,0-27.209,0c-0.119,0-0.119,0-0.119-0.119C-2.595,13.366-2.595,5.276-2.595-2.815z M17.752,12.463
			c-0.037,0.012-0.056,0.045-0.082,0.069c-0.544,0.524-1.156,0.951-1.843,1.267c-1.341,0.617-2.738,0.778-4.182,0.486
			c-1.173-0.237-2.222-0.747-3.102-1.56c-1.816-1.677-2.542-3.756-2.142-6.192c0.27-1.645,1.101-2.988,2.393-4.044
			C8.812,2.475,8.846,2.47,8.84,2.435c0.006,0.013,0.014,0.005,0.02,0c0.002-0.001,0-0.011-0.001-0.011
			c-0.01-0.001-0.018,0.001-0.018,0.013C8.823,2.44,8.805,2.44,8.788,2.446C8.491,2.544,8.202,2.664,7.92,2.801
			c-3.115,1.513-4.748,5.038-3.885,8.393c0.763,2.969,3.291,5.149,6.34,5.463c1.114,0.115,2.201-0.012,3.253-0.4
			c1.54-0.567,2.756-1.544,3.653-2.916c0.181-0.277,0.348-0.564,0.475-0.871c0.009-0.004,0.016-0.014,0.007-0.019
			C17.753,12.443,17.753,12.456,17.752,12.463z M16.577,4.538c-0.039-0.002-0.066,0.019-0.095,0.032
			c-0.479,0.209-0.959,0.418-1.437,0.629c-0.053,0.024-0.083,0.018-0.122-0.027c-0.348-0.396-0.699-0.79-1.05-1.184
			c-0.02-0.023-0.035-0.053-0.073-0.064c0.001,0.022,0.001,0.037,0.003,0.052c0.053,0.525,0.103,1.049,0.16,1.573
			c0.01,0.09-0.013,0.13-0.099,0.167c-0.473,0.201-0.942,0.41-1.412,0.616c-0.028,0.012-0.064,0.015-0.079,0.05
			c0.534,0.118,1.065,0.237,1.598,0.35c0.081,0.017,0.114,0.046,0.122,0.131c0.04,0.464,0.086,0.928,0.134,1.392
			c0.008,0.078,0.001,0.16,0.036,0.246c0.02-0.033,0.034-0.056,0.048-0.079c0.266-0.454,0.533-0.908,0.798-1.363
			c0.028-0.048,0.05-0.067,0.112-0.053c0.412,0.095,0.826,0.184,1.239,0.274c0.13,0.028,0.261,0.055,0.416,0.088
			c-0.047-0.054-0.074-0.086-0.102-0.117c-0.34-0.383-0.679-0.767-1.022-1.147c-0.041-0.045-0.04-0.074-0.011-0.123
			c0.267-0.45,0.531-0.902,0.795-1.354C16.551,4.599,16.575,4.575,16.577,4.538z"/>
		<path fill="#DDD9D9" d="M17.757,12.469c-0.127,0.308-0.294,0.594-0.475,0.871c-0.898,1.372-2.114,2.349-3.653,2.916
			c-1.052,0.388-2.139,0.515-3.253,0.4c-3.049-0.314-5.577-2.493-6.34-5.463C3.174,7.838,4.806,4.313,7.921,2.8
			c0.282-0.137,0.57-0.258,0.868-0.356C8.805,2.44,8.823,2.44,8.841,2.437L8.84,2.435C8.846,2.47,8.812,2.475,8.794,2.49
			C7.503,3.546,6.672,4.889,6.401,6.534c-0.4,2.437,0.325,4.515,2.142,6.192c0.88,0.813,1.929,1.323,3.102,1.56
			c1.444,0.292,2.841,0.131,4.182-0.486c0.687-0.316,1.298-0.743,1.843-1.267c0.026-0.025,0.045-0.058,0.082-0.069L17.757,12.469z"
			/>
		<path fill="#DDD9D9" d="M16.577,4.538c-0.002,0.037-0.027,0.061-0.042,0.088C16.271,5.078,16.007,5.53,15.74,5.98
			c-0.029,0.049-0.03,0.077,0.011,0.123c0.343,0.381,0.682,0.764,1.022,1.147c0.028,0.032,0.055,0.064,0.102,0.117
			c-0.156-0.033-0.286-0.06-0.416-0.088c-0.413-0.09-0.827-0.179-1.239-0.274c-0.062-0.014-0.084,0.004-0.112,0.053
			c-0.264,0.455-0.531,0.909-0.798,1.363c-0.014,0.023-0.028,0.046-0.048,0.079c-0.036-0.086-0.028-0.168-0.036-0.246
			c-0.048-0.464-0.094-0.928-0.134-1.392c-0.007-0.086-0.04-0.114-0.122-0.131c-0.533-0.113-1.064-0.232-1.598-0.35
			c0.015-0.035,0.051-0.037,0.079-0.05c0.47-0.207,0.94-0.415,1.412-0.616c0.086-0.036,0.109-0.076,0.099-0.167
			c-0.057-0.524-0.108-1.049-0.16-1.573C13.8,3.96,13.8,3.945,13.799,3.923c0.037,0.011,0.052,0.042,0.073,0.064
			c0.351,0.394,0.702,0.788,1.05,1.184c0.039,0.044,0.069,0.05,0.122,0.027c0.478-0.212,0.958-0.42,1.437-0.629
			C16.511,4.557,16.538,4.536,16.577,4.538z"/>
		<path fill="#FDFEFD" d="M8.841,2.437c0-0.012,0.008-0.014,0.018-0.013c0.001,0,0.003,0.01,0.002,0.011
			c-0.006,0.005-0.014,0.012-0.02,0C8.84,2.435,8.841,2.437,8.841,2.437z"/>
		<path fill="#FDFEFD" d="M17.752,12.463c0.001-0.008,0.002-0.02,0.012-0.013c0.009,0.006,0.002,0.015-0.007,0.019
			C17.757,12.469,17.752,12.463,17.752,12.463z"/>
	</g>
</g>
</svg>
