<?xml version="1.0" encoding="utf-8"?>
<!-- Generator: Adobe Illustrator 17.0.2, SVG Export Plug-In . SVG Version: 6.00 Build 0)  -->
<!DOCTYPE svg PUBLIC "-//W3C//DTD SVG 1.1//EN" "http://www.w3.org/Graphics/SVG/1.1/DTD/svg11.dtd">
<svg version="1.1" id="Layer_1" xmlns="http://www.w3.org/2000/svg" xmlns:xlink="http://www.w3.org/1999/xlink" x="0px" y="0px"
	 width="20px" height="20px" viewBox="0 0 20 20" enable-background="new 0 0 20 20" xml:space="preserve">
<g id="Layer_1_1_">
</g>
<g id="Layer_1_2_">
</g>
<g id="YE64we_1_">
	<g>
		<path fill="#C99E65" d="M-2.119,6.109c0-2.576,0.001-5.153-0.002-7.729c0-0.089,0.018-0.107,0.107-0.107
			c11.68,0.003,13.361,0.003,25.041,0c0.089,0,0.107,0.017,0.107,0.107c-0.003,2.576-0.002,5.153-0.002,7.729
			C11.381,6.109,9.631,6.109-2.119,6.109z"/>
		<path fill="#628C57" d="M23.131,13.943c0,2.576,0,5.151,0.002,7.727c0,0.085-0.011,0.109-0.105,0.109
			c-11.682-0.003-13.363-0.003-25.045,0c-0.093,0-0.105-0.024-0.105-0.109c0.003-2.576,0.002-5.151,0.002-7.727
			C9.631,13.943,11.381,13.943,23.131,13.943z"/>
		<path fill="#DDD9D9" d="M23.131,13.943c-11.75,0-13.5,0-25.25,0c0-2.611,0-5.222,0-7.833c11.75,0,13.5,0,25.25,0
			C23.131,8.721,23.131,11.332,23.131,13.943z M10.505,6.893c-1.731,0-3.134,1.406-3.132,3.138c0.001,1.725,1.403,3.127,3.128,3.129
			c1.731,0.002,3.138-1.401,3.139-3.131C13.64,8.297,12.236,6.892,10.505,6.893z"/>
		<path fill="#4E597C" d="M10.505,6.893c1.731,0,3.136,1.404,3.135,3.136c-0.001,1.73-1.408,3.133-3.139,3.131
			c-1.724-0.002-3.126-1.405-3.128-3.129C7.371,8.298,8.774,6.893,10.505,6.893z M10.515,12.768c0.091-0.009,0.2,0.03,0.257-0.115
			c0.028-0.072,0.136-0.067,0.188,0.003c0.047,0.064,0.09,0.065,0.154,0.043c0.066-0.022,0.134-0.037,0.201-0.054
			c0.06-0.015,0.104-0.029,0.111-0.113c0.008-0.097,0.125-0.147,0.197-0.083c0.07,0.063,0.115,0.027,0.17-0.002
			c0.054-0.028,0.105-0.062,0.158-0.091c0.063-0.034,0.106-0.068,0.095-0.159c-0.012-0.095,0.072-0.159,0.151-0.125
			c0.099,0.043,0.142-0.006,0.196-0.059c0.049-0.049,0.097-0.1,0.146-0.149c0.033-0.033,0.043-0.061,0.022-0.113
			c-0.045-0.109,0.017-0.198,0.132-0.185c0.075,0.008,0.101-0.027,0.129-0.076c0.033-0.056,0.066-0.112,0.099-0.169
			c0.034-0.059,0.068-0.108,0.004-0.181c-0.059-0.068-0.011-0.188,0.077-0.192c0.1-0.004,0.109-0.064,0.128-0.13
			c0.016-0.058,0.026-0.119,0.046-0.176c0.023-0.067,0.026-0.115-0.044-0.166c-0.073-0.053-0.052-0.219,0.026-0.23
			c0.103-0.014,0.086-0.073,0.087-0.134c0.002-0.061-0.001-0.122,0.001-0.183c0.002-0.068-0.003-0.118-0.086-0.149
			c-0.092-0.034-0.103-0.151-0.023-0.214c0.057-0.044,0.064-0.081,0.043-0.142c-0.022-0.066-0.036-0.134-0.054-0.201
			c-0.017-0.063-0.029-0.114-0.12-0.121c-0.101-0.009-0.139-0.126-0.071-0.211c0.04-0.05,0.031-0.08,0.006-0.123
			c-0.035-0.06-0.07-0.12-0.102-0.181c-0.036-0.067-0.071-0.115-0.167-0.103c-0.091,0.012-0.16-0.086-0.119-0.168
			c0.038-0.075,0.008-0.111-0.037-0.154c-0.053-0.052-0.105-0.104-0.157-0.157c-0.042-0.043-0.075-0.065-0.144-0.03
			c-0.081,0.041-0.183-0.027-0.17-0.115c0.016-0.105-0.044-0.137-0.112-0.176c-0.053-0.03-0.107-0.059-0.159-0.089
			c-0.05-0.03-0.088-0.042-0.146,0.004c-0.083,0.066-0.194,0.019-0.204-0.086c-0.008-0.078-0.048-0.09-0.104-0.105
			c-0.063-0.016-0.126-0.032-0.188-0.051c-0.068-0.02-0.123-0.038-0.178,0.042c-0.053,0.075-0.174,0.06-0.204-0.026
			c-0.032-0.092-0.09-0.09-0.16-0.089c-0.065,0.001-0.131,0.002-0.196,0c-0.06-0.002-0.1,0.008-0.128,0.077
			c-0.041,0.101-0.153,0.115-0.22,0.029C10,7.331,9.961,7.332,9.903,7.35C9.841,7.369,9.776,7.38,9.714,7.399
			C9.652,7.42,9.585,7.424,9.583,7.527c-0.002,0.089-0.123,0.139-0.19,0.08C9.321,7.543,9.272,7.574,9.212,7.608
			C9.16,7.639,9.108,7.67,9.055,7.7c-0.058,0.033-0.1,0.062-0.089,0.148C8.979,7.953,8.884,8.015,8.784,7.97
			C8.724,7.944,8.695,7.963,8.66,7.998C8.599,8.06,8.538,8.122,8.476,8.182C8.438,8.219,8.427,8.249,8.452,8.306
			c0.043,0.099-0.021,0.192-0.127,0.181c-0.078-0.009-0.109,0.025-0.14,0.08c-0.034,0.061-0.07,0.12-0.105,0.18
			C8.05,8.799,8.028,8.841,8.082,8.905c0.063,0.075,0.017,0.193-0.078,0.2C7.913,9.111,7.9,9.162,7.884,9.226
			C7.866,9.293,7.852,9.361,7.83,9.427c-0.02,0.06-0.013,0.097,0.043,0.142c0.085,0.068,0.068,0.176-0.034,0.22
			C7.778,9.815,7.763,9.848,7.765,9.905c0.002,0.065,0.001,0.13,0,0.196c-0.002,0.075-0.005,0.137,0.092,0.172
			c0.084,0.03,0.096,0.15,0.021,0.205c-0.07,0.051-0.065,0.099-0.043,0.166c0.022,0.066,0.037,0.134,0.054,0.201
			c0.014,0.057,0.03,0.094,0.107,0.101c0.104,0.01,0.15,0.125,0.081,0.206c-0.051,0.061-0.027,0.098,0,0.146
			c0.034,0.061,0.07,0.12,0.103,0.181c0.033,0.06,0.065,0.098,0.15,0.086c0.093-0.013,0.17,0.083,0.127,0.161
			c-0.048,0.089,0.002,0.126,0.049,0.175c0.042,0.044,0.086,0.086,0.129,0.129c0.046,0.046,0.082,0.087,0.165,0.043
			c0.079-0.042,0.177,0.031,0.164,0.123c-0.013,0.091,0.032,0.124,0.095,0.159c0.053,0.029,0.104,0.063,0.158,0.091
			c0.055,0.029,0.099,0.065,0.169,0.002c0.072-0.064,0.189-0.014,0.198,0.082c0.007,0.083,0.05,0.098,0.111,0.113
			c0.067,0.017,0.135,0.032,0.201,0.054c0.064,0.022,0.107,0.021,0.154-0.043c0.052-0.07,0.158-0.075,0.188-0.003
			C10.297,12.794,10.403,12.763,10.515,12.768z"/>
		<path fill="#4E597C" d="M11.673,7.988c0.025,0.057-0.009,0.088-0.026,0.12c-0.159,0.318-0.319,0.636-0.481,0.953
			c-0.082,0.16-0.209,0.288-0.308,0.436c-0.018,0.027-0.071,0.056-0.015,0.095c0.055,0.039,0.068-0.02,0.086-0.046
			c0.358-0.508,0.874-0.851,1.331-1.261c-0.021,0.028-0.041,0.058-0.064,0.084c-0.266,0.299-0.532,0.599-0.8,0.896
			c-0.12,0.133-0.277,0.224-0.411,0.341c-0.025,0.021-0.084,0.033-0.042,0.087c0.042,0.053,0.071,0,0.095-0.02
			c0.423-0.36,0.945-0.546,1.424-0.806c0.023-0.012,0.045-0.028,0.073-0.009c0.001,0.045-0.041,0.051-0.066,0.068
			c-0.301,0.199-0.602,0.397-0.904,0.594c-0.147,0.095-0.317,0.141-0.472,0.218c-0.033,0.017-0.103,0.009-0.08,0.074
			c0.023,0.067,0.073,0.022,0.108,0.007c0.556-0.255,1.166-0.299,1.75-0.443c0.015-0.004,0.031,0.001,0.05,0.018
			c-0.369,0.123-0.74,0.241-1.107,0.37c-0.216,0.076-0.439,0.1-0.662,0.134c-0.041,0.006-0.114-0.014-0.096,0.066
			c0.016,0.067,0.073,0.024,0.108,0.018c0.473-0.084,0.945-0.015,1.418,0.009c0.095,0.005,0.195-0.007,0.285,0.057
			c-0.316,0.019-0.633,0.033-0.949,0.058c-0.253,0.02-0.503-0.003-0.753-0.035c-0.036-0.005-0.093-0.048-0.108,0.018
			c-0.019,0.08,0.055,0.062,0.095,0.066c0.622,0.056,1.178,0.34,1.771,0.498c-0.003,0.011-0.005,0.021-0.008,0.032
			c-0.236-0.048-0.472-0.095-0.707-0.143c-0.374-0.077-0.751-0.141-1.099-0.312c-0.034-0.017-0.075-0.046-0.097,0.011
			c-0.023,0.061,0.039,0.059,0.069,0.07c0.527,0.189,0.953,0.55,1.422,0.837c0.023,0.014,0.043,0.03,0.041,0.077
			c-0.055-0.027-0.105-0.051-0.155-0.076c-0.213-0.107-0.424-0.219-0.641-0.32c-0.246-0.114-0.469-0.262-0.683-0.428
			c-0.031-0.024-0.07-0.109-0.123-0.036c-0.042,0.059,0.036,0.077,0.067,0.1c0.5,0.355,0.834,0.868,1.273,1.306
			c-0.064,0.009-0.082-0.026-0.104-0.046c-0.306-0.271-0.612-0.543-0.915-0.817c-0.13-0.117-0.218-0.27-0.333-0.401
			c-0.021-0.024-0.03-0.085-0.086-0.048c-0.057,0.038-0.007,0.07,0.014,0.094c0.358,0.419,0.545,0.935,0.801,1.412
			c0.019,0.035,0.038,0.069,0.015,0.124c-0.116-0.177-0.227-0.349-0.341-0.518c-0.207-0.311-0.421-0.617-0.543-0.975
			c-0.01-0.029-0.01-0.092-0.072-0.064c-0.056,0.026-0.022,0.066-0.006,0.099c0.241,0.515,0.288,1.079,0.419,1.622
			c0.008,0.035,0.021,0.074-0.016,0.127c-0.158-0.575-0.422-1.104-0.476-1.694c-0.002-0.026-0.005-0.052-0.01-0.078
			c-0.006-0.031-0.026-0.041-0.057-0.036c-0.037,0.006-0.036,0.031-0.031,0.058c0.115,0.595-0.001,1.188-0.011,1.782
			c-0.001,0.039-0.004,0.078-0.009,0.117c-0.003,0.021-0.012,0.041-0.021,0.069c-0.014-0.216-0.031-0.423-0.041-0.631
			c-0.02-0.442-0.079-0.885,0.012-1.326c0.006-0.028,0.017-0.062-0.031-0.069c-0.052-0.008-0.057,0.029-0.06,0.064
			c-0.041,0.568-0.283,1.08-0.444,1.614c-0.016,0.051-0.017,0.051-0.08,0.111c0.153-0.588,0.193-1.187,0.447-1.731
			c0.016-0.033,0.048-0.074-0.009-0.098c-0.062-0.025-0.061,0.037-0.071,0.066c-0.187,0.528-0.55,0.953-0.837,1.422
			c-0.014,0.022-0.028,0.045-0.062,0.043c-0.031-0.032,0.009-0.052,0.019-0.072c0.091-0.187,0.188-0.372,0.279-0.559
			c0.148-0.305,0.304-0.605,0.524-0.867c0.022-0.026,0.086-0.059,0.024-0.104c-0.06-0.043-0.074,0.028-0.093,0.055
			c-0.356,0.505-0.874,0.842-1.308,1.279c-0.023-0.055,0.012-0.069,0.029-0.087c0.274-0.309,0.548-0.619,0.825-0.925
			c0.12-0.133,0.276-0.224,0.412-0.34c0.023-0.019,0.072-0.03,0.04-0.078c-0.038-0.057-0.07-0.01-0.095,0.011
			c-0.419,0.358-0.935,0.545-1.412,0.802c-0.036,0.019-0.07,0.035-0.125,0.015c0.228-0.15,0.452-0.291,0.669-0.441
			c0.255-0.176,0.52-0.329,0.811-0.439c0.033-0.012,0.103-0.009,0.076-0.076c-0.027-0.065-0.076-0.018-0.11-0.002
			c-0.557,0.255-1.166,0.299-1.751,0.442c-0.02,0.005-0.043-0.002-0.091-0.005c0.476-0.156,0.925-0.311,1.38-0.45
			c0.148-0.045,0.309-0.047,0.463-0.069c0.033-0.005,0.074-0.003,0.07-0.055c-0.005-0.058-0.045-0.041-0.077-0.035
			c-0.481,0.096-0.962,0.022-1.443,0.002c-0.111-0.005-0.221-0.013-0.333-0.02c0.008-0.06,0.047-0.041,0.072-0.043
			C8.57,9.979,8.961,9.955,9.352,9.937c0.174-0.008,0.345,0.035,0.518,0.05c0.033,0.003,0.083,0.037,0.09-0.031
			c0.006-0.062-0.046-0.054-0.081-0.057C9.241,9.845,8.674,9.554,8.075,9.365c0.203,0.041,0.407,0.08,0.61,0.123
			c0.416,0.088,0.838,0.15,1.226,0.339c0.032,0.015,0.065,0.036,0.088-0.011c0.026-0.054-0.025-0.059-0.052-0.068
			C9.389,9.553,8.948,9.161,8.443,8.866c0.062-0.04,0.104-0.002,0.146,0.019C8.903,9.043,9.217,9.201,9.531,9.36
			c0.16,0.081,0.288,0.209,0.437,0.307c0.03,0.02,0.06,0.084,0.104,0.021c0.039-0.054-0.023-0.067-0.048-0.085
			c-0.5-0.355-0.845-0.86-1.261-1.297C8.758,8.301,8.759,8.291,8.755,8.265c0.038,0.03,0.068,0.051,0.095,0.074
			c0.198,0.176,0.393,0.357,0.595,0.529c0.233,0.198,0.447,0.412,0.626,0.661c0.021,0.03,0.036,0.11,0.101,0.058
			c0.057-0.045-0.008-0.078-0.03-0.104C9.769,9.042,9.588,8.493,9.304,8c0.059-0.03,0.073,0.018,0.091,0.048
			c0.287,0.464,0.644,0.887,0.829,1.411c0.009,0.026,0.009,0.079,0.063,0.064c0.047-0.013,0.042-0.046,0.025-0.083
			c-0.254-0.529-0.3-1.111-0.434-1.671C9.873,7.749,9.867,7.731,9.861,7.71C9.92,7.694,9.917,7.743,9.926,7.769
			c0.127,0.383,0.259,0.765,0.375,1.151c0.044,0.148,0.05,0.308,0.076,0.462c0.006,0.038-0.014,0.101,0.055,0.096
			c0.079-0.005,0.037-0.065,0.031-0.099c-0.087-0.469-0.016-0.937,0.003-1.405c0.004-0.098,0.014-0.196,0.021-0.295
			c0.06,0.002,0.044,0.042,0.045,0.068c0.023,0.378,0.052,0.755,0.062,1.134c0.004,0.168-0.032,0.337-0.048,0.505
			c-0.003,0.033-0.039,0.082,0.027,0.093c0.062,0.01,0.057-0.042,0.06-0.078c0.046-0.585,0.3-1.111,0.464-1.663
			c0.003-0.011,0.013-0.019,0.037-0.055c-0.003,0.179-0.05,0.322-0.08,0.466c-0.089,0.428-0.148,0.865-0.341,1.266
			c-0.017,0.035-0.058,0.084,0.011,0.106c0.059,0.02,0.057-0.044,0.067-0.073c0.192-0.531,0.555-0.96,0.846-1.431
			C11.644,8.007,11.656,8.001,11.673,7.988z"/>
	</g>
</g>
</svg>
