<?xml version="1.0" encoding="utf-8"?>
<!-- Generator: Adobe Illustrator 17.0.2, SVG Export Plug-In . SVG Version: 6.00 Build 0)  -->
<!DOCTYPE svg PUBLIC "-//W3C//DTD SVG 1.1//EN" "http://www.w3.org/Graphics/SVG/1.1/DTD/svg11.dtd">
<svg version="1.1" id="Layer_1" xmlns="http://www.w3.org/2000/svg" xmlns:xlink="http://www.w3.org/1999/xlink" x="0px" y="0px"
	 width="20px" height="20px" viewBox="0 0 20 20" enable-background="new 0 0 20 20" xml:space="preserve">
<g id="Layer_1_1_">
</g>
<g id="Layer_1_2_">
</g>
<g id="BiGQCA_1_">
	<g>
		<path fill="#844754" d="M13.222-3.924c6.406,0,5.812,0,12.219-0.002c0.064,0,0.078,0.014,0.078,0.078
			c-0.002,3.646-0.002,7.293-0.002,10.939C25.511,7.096,25.505,7.1,25.5,7.105c-0.031,0.001-0.062,0.002-0.093,0.002
			c-6.363,0-5.727,0-12.09,0c-0.031,0-0.062-0.001-0.093-0.002c0-0.005,0-0.01-0.001-0.015c0-0.042,0-0.085-0.001-0.127
			c0-3.586,0-7.173,0-10.759c0-0.037-0.001-0.074-0.002-0.11C13.22-3.913,13.221-3.919,13.222-3.924z"/>
		<path fill="#844754" d="M25.517,10.798c0,3.647,0,7.293,0.002,10.94c0,0.064-0.014,0.078-0.078,0.078
			c-6.406-0.002-5.812-0.002-12.219-0.002c-0.001-0.006-0.002-0.011-0.004-0.017c0.001-0.031,0.002-0.062,0.002-0.093
			c0-0.901,0-1.802,0-2.703c0-2.734,0-5.468,0.001-8.201c0.001-0.005,0.002-0.01,0.001-0.015c0.031-0.001,0.062-0.002,0.093-0.002
			c6.363,0,5.727,0,12.09,0c0.031,0,0.062,0.001,0.093,0.002C25.505,10.789,25.511,10.793,25.517,10.798z"/>
		<path fill="#DDD9D9" d="M13.221,10.799c0,2.734,0,5.468-0.001,8.201c0,0.901,0,1.802,0,2.703c0,0.031-0.001,0.062-0.002,0.093
			c-0.004,0.006-0.009,0.011-0.013,0.017c-1.218,0-2.437,0-3.655,0c-0.002-0.037-0.004-0.073-0.004-0.11c0-3.6,0-7.2,0-10.801
			c0-0.121,0-0.121-0.117-0.121c-3.6,0-7.2,0-10.801,0c-0.031,0-0.062,0.001-0.093,0.002c-0.006-0.001-0.012-0.003-0.017-0.004
			c0-1.224,0-2.448,0-3.672c0.006-0.001,0.011-0.003,0.017-0.004c0.031,0.001,0.062,0.002,0.093,0.002c3.6,0,7.2,0,10.801,0
			c0.117,0,0.117,0,0.117-0.121c0-3.6,0-7.2,0-10.801c0-0.037,0.003-0.073,0.004-0.11c1.218,0,2.437,0,3.655,0
			c0.004,0.006,0.009,0.012,0.013,0.017c0.001,0.037,0.002,0.074,0.002,0.11c0,3.586,0,7.173,0,10.759c0,0.042,0,0.085,0.001,0.127
			c-0.004,0.004-0.007,0.009-0.011,0.013C13.214,7.1,13.218,7.1,13.223,7.101c0.031,0.001,0.062,0.002,0.093,0.002
			c6.363,0,5.727,0,12.09,0c0.031,0,0.062-0.001,0.093-0.002c0.006,0.001,0.012,0.003,0.017,0.004c0,1.224,0,2.448,0,3.672
			c-0.006,0.001-0.012,0.003-0.017,0.004c-0.031-0.001-0.062-0.002-0.093-0.002c-6.363,0-5.727,0-12.09,0
			c-0.031,0-0.062,0.001-0.093,0.002c-0.004,0.001-0.008,0.001-0.013,0.002C13.214,10.79,13.218,10.795,13.221,10.799z"/>
		<path fill="#844754" d="M9.55-3.924c-0.002,0.037-0.004,0.073-0.004,0.11c0,3.6,0,7.2,0,10.801c0,0.121,0,0.121-0.117,0.121
			c-3.6,0-7.2,0-10.801,0c-0.031,0-0.062-0.001-0.093-0.002C-1.472,7.1-1.477,7.096-1.483,7.092c0-3.646,0-7.293-0.002-10.939
			c0-0.064,0.014-0.078,0.078-0.078C2.246-3.924,5.898-3.924,9.55-3.924z"/>
		<path fill="#844754" d="M-1.466,10.784c0.031-0.001,0.062-0.002,0.093-0.002c3.6,0,7.2,0,10.801,0c0.117,0,0.117,0,0.117,0.121
			c0,3.6,0,7.2,0,10.801c0,0.037,0.003,0.073,0.004,0.11c-3.652,0-7.304,0-10.956,0.002c-0.064,0-0.078-0.014-0.078-0.078
			c0.002-3.646,0.002-7.293,0.002-10.94C-1.477,10.793-1.471,10.789-1.466,10.784z"/>
		<path fill="#F6DEE2" d="M13.218-3.907c-0.004-0.006-0.009-0.012-0.013-0.017c0.006,0,0.011,0,0.017,0
			C13.221-3.919,13.22-3.913,13.218-3.907z"/>
		<path fill="#CD314D" d="M-1.483,7.092C-1.477,7.096-1.472,7.1-1.466,7.105c-0.006,0.001-0.011,0.003-0.017,0.004
			C-1.483,7.103-1.483,7.097-1.483,7.092z"/>
		<path fill="#CD314D" d="M25.517,7.109c-0.006-0.001-0.012-0.003-0.017-0.004c0.006-0.004,0.012-0.009,0.017-0.013
			C25.517,7.097,25.517,7.103,25.517,7.109z"/>
		<path fill="#CD314D" d="M-1.466,10.784c-0.006,0.004-0.012,0.009-0.017,0.013c0-0.006,0-0.011,0-0.017
			C-1.477,10.782-1.471,10.783-1.466,10.784z"/>
		<path fill="#CD314D" d="M25.5,10.784c0.006-0.001,0.012-0.003,0.017-0.004c0,0.006,0,0.011,0,0.017
			C25.511,10.793,25.505,10.789,25.5,10.784z"/>
		<path fill="#F6DEE2" d="M13.205,21.814c0.004-0.006,0.009-0.011,0.013-0.017c0.001,0.006,0.002,0.011,0.004,0.017
			C13.216,21.814,13.211,21.814,13.205,21.814z"/>
		<polygon fill="#CD314D" points="13.223,7.105 13.21,7.103 13.221,7.09 		"/>
		<path fill="#CD314D" d="M13.221,10.799c-0.004-0.004-0.007-0.009-0.011-0.013c0.004-0.001,0.008-0.001,0.013-0.002
			C13.223,10.789,13.223,10.794,13.221,10.799z"/>
	</g>
</g>
</svg>
