<?xml version="1.0" encoding="utf-8"?>
<!-- Generator: Adobe Illustrator 17.0.2, SVG Export Plug-In . SVG Version: 6.00 Build 0)  -->
<!DOCTYPE svg PUBLIC "-//W3C//DTD SVG 1.1//EN" "http://www.w3.org/Graphics/SVG/1.1/DTD/svg11.dtd">
<svg version="1.1" id="Layer_1" xmlns="http://www.w3.org/2000/svg" xmlns:xlink="http://www.w3.org/1999/xlink" x="0px" y="0px"
	 width="20px" height="20px" viewBox="0 0 20 20" enable-background="new 0 0 20 20" xml:space="preserve">
<g id="Layer_2">
	<g>
		<path fill="#844754" d="M-1.77,11.734c0-1.322,0-2.645,0-3.967C-1.719,7.775-1.668,7.79-1.617,7.79
			c3.325,0.001,5.65,0.002,8.975-0.001c0.097,0,0.194-0.035,0.291-0.055c0-2.67,0-5.286,0-7.901c0.772,0,3.544,0,4.315,0
			c0,2.635,0,5.269,0,7.984c3.488,0,5.938,0,9.385,0c0,1.329,0,2.578,0,3.906c-3.47,0-5.92,0-9.404,0c0,2.671,0,6.261,0,8.882
			c-0.772,0-3.509,0-4.294,0c0-2.644,0-6.25,0-8.896c-1.075,0-1.102-0.002-2.13,0C3.09,11.717,0.66,11.726-1.77,11.734z"/>
	</g>
</g>
<g id="Layer_1_1_">
</g>
</svg>
