<?xml version="1.0" encoding="utf-8"?>
<!-- Generator: Adobe Illustrator 17.0.2, SVG Export Plug-In . SVG Version: 6.00 Build 0)  -->
<!DOCTYPE svg PUBLIC "-//W3C//DTD SVG 1.1//EN" "http://www.w3.org/Graphics/SVG/1.1/DTD/svg11.dtd">
<svg version="1.1" id="Layer_1" xmlns="http://www.w3.org/2000/svg" xmlns:xlink="http://www.w3.org/1999/xlink" x="0px" y="0px"
	 width="20px" height="20px" viewBox="0 0 20 20" enable-background="new 0 0 20 20" xml:space="preserve">
<rect x="-3" y="-1.417" fill="#485982" width="24.417" height="24.417"/>
<g id="Layer_2">
	<g>
		<path fill="#DDD9D9" d="M-0.373,22.524c-0.935-0.935-1.87-1.87-2.805-2.805c0.042-0.03,0.088-0.056,0.124-0.092
			c2.352-2.35,7.057-7.054,9.406-9.407c0.069-0.069,0.112-0.162,0.167-0.245C4.631,8.087-0.629,2.827-2.478,0.978
			c0.546-0.546,2.506-2.506,3.051-3.051C2.436-0.21,7.709,5.063,9.629,6.983c2.466-2.466,7.073-7.073,9.51-9.51
			c0.94,0.94,1.823,1.823,2.762,2.762c-2.454,2.454-7.06,7.06-9.524,9.524c1.889,1.889,7.954,7.954,9.807,9.807
			c-0.546,0.546-2.481,2.481-3.036,3.036c-1.87-1.87-7.946-7.946-9.817-9.817c-0.76,0.76-0.781,0.778-1.506,1.506
			C6.111,16.016,1.34,20.8-0.373,22.524z"/>
	</g>
</g>
<g id="Layer_1_1_">
</g>
</svg>
