<?xml version="1.0" encoding="utf-8"?>
<!-- Generator: Adobe Illustrator 17.0.2, SVG Export Plug-In . SVG Version: 6.00 Build 0)  -->
<!DOCTYPE svg PUBLIC "-//W3C//DTD SVG 1.1//EN" "http://www.w3.org/Graphics/SVG/1.1/DTD/svg11.dtd">
<svg version="1.1" id="Layer_1" xmlns="http://www.w3.org/2000/svg" xmlns:xlink="http://www.w3.org/1999/xlink" x="0px" y="0px"
	 width="20px" height="20px" viewBox="0 0 20 20" enable-background="new 0 0 20 20" xml:space="preserve">
<g id="Layer_1_3_" display="none">
	<g id="Layer_1_1_" display="inline">
	</g>
	<g id="Layer_1_2_" display="inline">
	</g>
	<g id="WOB7BW_1_" display="inline">
		<g>
			<path fill="#010101" d="M-1.579,21.123c-1.748,0-3.495-0.007-5.243,0.008c-0.265,0.002-0.321-0.051-0.317-0.316
				c0.019-1.089,0.008-2.179,0.008-3.269c0.11-0.047,0.221-0.093,0.331-0.14c0.343-0.05,0.619-0.176,0.657-0.574
				c0.036-0.023,0.071-0.046,0.107-0.069c0.139,0.154,0.278,0.308,0.428,0.474c0.236-0.296,0.018-0.558,0.078-0.804
				c2.764-1.904,5.559-3.762,8.379-5.581c0.235,0.194,0.219,0.023,0.207-0.142l0.007-0.006c0.503,0.184,0.597-0.242,0.787-0.527
				c0.154-0.097,0.307-0.194,0.461-0.291C4.426,9.879,4.523,9.85,4.53,9.709l0.011-0.004c0.466,0.143,0.743-0.008,0.79-0.512
				C5.369,9.171,5.405,9.15,5.442,9.128c0.172,0.363,0.513,0.066,0.769,0.195c0.347,0.175,0.574-0.12,0.426-0.391
				C6.449,8.588,6.761,8.458,6.783,8.223C6.876,8.166,6.968,8.108,7.061,8.05c0.124,0.069,0.207,0.324,0.373,0.175
				c0.157-0.14-0.113-0.2-0.146-0.318L7.284,7.912C7.332,7.876,7.38,7.84,7.428,7.805l0.004-0.002
				C7.726,7.878,8.06,8.02,8.222,7.632c0.143-0.343,0.433-0.446,0.71-0.594c0.13,0.127-0.17,0.277,0.03,0.366
				c0.08,0.035,0.194-0.007,0.293-0.015c-0.063-0.426,0.6-0.58,0.396-1.059c0.818-0.546,1.637-1.093,2.455-1.639
				c0.103,0.127,0.353,0.276,0.377,0.186c0.115-0.429,0.771-0.399,0.736-0.917c0.124-0.083,0.247-0.166,0.371-0.249
				c0.026,0.098,0.047,0.226,0.171,0.219c0.344-0.019,0.911-0.611,0.942-0.963c0.077-0.054,0.153-0.107,0.23-0.161
				c0.502,0.358,0.642-0.344,1.037-0.352c0.416-0.009,0.242-0.229,0.096-0.409c1.726-1.165,3.452-2.331,5.178-3.496
				c1.736,0,3.472,0.007,5.208-0.007c0.272-0.002,0.36,0.031,0.353,0.338c-0.026,1.123-0.01,2.246-0.01,3.37
				c-1.706,1.123-3.413,2.244-5.118,3.368c-2.479,1.635-4.956,3.274-7.434,4.911c-0.577-0.04-0.927,0.661-1.58,0.404
				c0.093,0.217,0.155,0.361,0.217,0.506c-1.455,0.977-2.91,1.956-4.366,2.931C5.15,16.622,1.785,18.872-1.579,21.123z
				 M4.465,10.146c0.013,0.007,0.025,0.013,0.038,0.02c-0.012-0.007-0.024-0.015-0.036-0.022c-0.013-0.007-0.026-0.014-0.039-0.02
				C4.44,10.13,4.453,10.138,4.465,10.146z M14.212,4.346c0.069,0.031,0.139,0.063,0.209,0.092c0.002,0.001,0.017-0.032,0.025-0.049
				C14.368,4.375,14.29,4.361,14.212,4.346c-0.031-0.115-0.06-0.236-0.221-0.203C13.964,4.149,13.923,4.2,13.928,4.22
				C13.966,4.381,14.108,4.323,14.212,4.346z M10.06,6.421c0.026-0.016,0.051-0.032,0.077-0.048
				c-0.014-0.01-0.033-0.032-0.043-0.029c-0.028,0.01-0.052,0.03-0.078,0.045C10.031,6.4,10.045,6.41,10.06,6.421z"/>
			<path fill="#0197FD" d="M26.795,3.976c0,5.564-0.005,11.128,0.011,16.691c0.001,0.4-0.109,0.465-0.479,0.464
				c-8.438-0.011-16.876-0.009-25.314-0.009c0.112-0.087,0.218-0.183,0.336-0.261C8.22,16.283,15.091,11.703,21.966,7.13
				C23.566,6.067,25.184,5.027,26.795,3.976z"/>
			<path fill="#0E9900" d="M-7.13,15.695c0-5.564,0.005-11.128-0.011-16.691c-0.001-0.4,0.109-0.465,0.479-0.464
				c8.397,0.011,16.794,0.009,25.191,0.009c0.011,0.189-0.157,0.221-0.269,0.296c-1.4,0.935-2.801,1.869-4.202,2.801
				C8.539,5.319,3.021,8.994-2.501,12.662C-4.038,13.683-5.587,14.685-7.13,15.695z"/>
			<path fill="#F6F802" d="M26.795,3.976c-1.61,1.051-3.228,2.09-4.829,3.155C15.09,11.704,8.219,16.284,1.348,20.862
				c-0.118,0.078-0.224,0.174-0.336,0.261c-0.864,0-1.727,0-2.591,0c3.364-2.251,6.728-4.501,10.091-6.753
				c1.457-0.975,2.911-1.954,4.366-2.931c0.48-0.266,0.946-0.551,1.363-0.91c2.478-1.637,4.955-3.275,7.434-4.911
				c1.705-1.125,3.412-2.246,5.118-3.368C26.795,2.825,26.795,3.4,26.795,3.976z"/>
			<path fill="#F6F800" d="M-7.13,15.695c1.543-1.011,3.092-2.012,4.629-3.033c5.522-3.669,11.04-7.344,16.56-11.017
				c1.401-0.933,2.803-1.866,4.202-2.801c0.112-0.075,0.28-0.107,0.269-0.296c0.905,0,1.809,0,2.714,0
				c-1.726,1.165-3.452,2.331-5.178,3.496c-0.378,0.254-0.755,0.508-1.133,0.762c-0.077,0.054-0.153,0.107-0.23,0.161
				c-0.4,0.206-0.778,0.444-1.113,0.745c-0.124,0.083-0.247,0.166-0.371,0.249c-0.411,0.183-0.767,0.45-1.113,0.731
				c-0.818,0.546-1.637,1.093-2.455,1.639c-0.77,0.445-1.509,0.936-2.219,1.472L7.428,7.805C7.38,7.84,7.332,7.876,7.284,7.912
				l0.005-0.005C7.213,7.955,7.137,8.002,7.061,8.05C6.968,8.108,6.876,8.166,6.783,8.223C6.336,8.525,5.889,8.827,5.442,9.128
				C5.405,9.15,5.369,9.171,5.332,9.192c-0.263,0.171-0.527,0.341-0.79,0.512L4.531,9.708c-0.073,0.06-0.146,0.118-0.219,0.177
				c-0.154,0.097-0.307,0.194-0.461,0.291c-0.262,0.176-0.524,0.351-0.787,0.527l-0.007,0.006c-0.069,0.047-0.138,0.095-0.207,0.142
				c-2.82,1.82-5.615,3.677-8.379,5.581c-0.202,0.06-0.362,0.183-0.507,0.33c-0.036,0.023-0.071,0.046-0.107,0.069
				c-0.246,0.161-0.587,0.213-0.657,0.574c-0.11,0.047-0.221,0.093-0.331,0.14C-7.13,16.929-7.13,16.312-7.13,15.695z"/>
			<path fill="#0F0D08" d="M7.432,7.803c0.71-0.536,1.449-1.027,2.219-1.472C9.855,6.809,9.193,6.964,9.255,7.39
				C9.156,7.397,9.042,7.44,8.962,7.405c-0.201-0.089,0.099-0.238-0.03-0.366C8.655,7.187,8.365,7.29,8.222,7.633
				C8.06,8.019,7.726,7.878,7.432,7.803z"/>
			<path fill="#0F0D08" d="M5.442,9.128c0.447-0.302,0.894-0.603,1.341-0.905C6.761,8.458,6.449,8.588,6.637,8.932
				c0.148,0.271-0.079,0.566-0.426,0.391C5.955,9.194,5.614,9.492,5.442,9.128z"/>
			<path fill="#0F0D08" d="M13.59,3.711c0.336-0.301,0.714-0.539,1.113-0.745c-0.031,0.352-0.598,0.944-0.942,0.963
				C13.637,3.937,13.615,3.81,13.59,3.711z"/>
			<path fill="#0F0D08" d="M14.933,2.806c0.378-0.254,0.755-0.508,1.133-0.762c0.146,0.18,0.321,0.4-0.096,0.409
				C15.575,2.463,15.434,3.164,14.933,2.806z"/>
			<path fill="#0F0D08" d="M14.242,10.528c-0.417,0.359-0.884,0.645-1.363,0.91c-0.062-0.145-0.124-0.29-0.217-0.506
				C13.315,11.189,13.665,10.488,14.242,10.528z"/>
			<path fill="#0F0D08" d="M12.106,4.691c0.346-0.282,0.702-0.549,1.113-0.731c0.035,0.518-0.621,0.488-0.736,0.917
				C12.458,4.967,12.209,4.819,12.106,4.691z"/>
			<path fill="#0F0D08" d="M-6.035,16.763c0.145-0.147,0.305-0.27,0.507-0.33c-0.061,0.246,0.158,0.508-0.078,0.804
				C-5.757,17.071-5.896,16.917-6.035,16.763z"/>
			<path fill="#0F0D08" d="M4.542,9.704c0.263-0.171,0.527-0.341,0.79-0.512C5.284,9.696,5.008,9.847,4.542,9.704z"/>
			<path fill="#0F0D08" d="M-6.798,17.406c0.07-0.362,0.411-0.413,0.657-0.574C-6.18,17.23-6.456,17.356-6.798,17.406z"/>
			<path fill="#0F0D08" d="M3.065,10.704c0.262-0.176,0.524-0.351,0.787-0.527C3.662,10.461,3.568,10.888,3.065,10.704z"/>
			<path fill="#0F0D08" d="M7.061,8.05c0.076-0.048,0.152-0.095,0.227-0.143c0.033,0.118,0.303,0.178,0.146,0.318
				C7.268,8.374,7.185,8.119,7.061,8.05z"/>
			<path fill="#0F0D08" d="M14.212,4.346c-0.104-0.023-0.246,0.034-0.284-0.126c-0.005-0.02,0.036-0.071,0.063-0.077
				C14.151,4.111,14.181,4.231,14.212,4.346L14.212,4.346z"/>
			<path fill="#0F0D08" d="M2.851,10.852c0.069-0.047,0.138-0.095,0.207-0.142C3.07,10.875,3.086,11.046,2.851,10.852z"/>
			<path fill="#0F0D08" d="M10.06,6.421C10.045,6.41,10.031,6.4,10.016,6.39c0.026-0.016,0.05-0.036,0.078-0.045
				c0.01-0.003,0.028,0.018,0.043,0.029C10.111,6.389,10.086,6.405,10.06,6.421z"/>
			<path fill="#0F0D08" d="M14.212,4.346c0.078,0.015,0.156,0.029,0.234,0.044c-0.009,0.017-0.024,0.049-0.025,0.049
				C14.35,4.41,14.281,4.378,14.212,4.346L14.212,4.346z"/>
			<path fill="#0F0D08" d="M4.312,9.885c0.073-0.059,0.146-0.118,0.219-0.177C4.524,9.849,4.427,9.879,4.312,9.885z"/>
			<path fill="#0F0D08" d="M7.284,7.912C7.332,7.876,7.38,7.84,7.428,7.805C7.38,7.84,7.332,7.876,7.284,7.912z"/>
			<path fill="#0F0D08" d="M4.465,10.146c-0.012-0.008-0.025-0.015-0.037-0.023c0.013,0.007,0.026,0.014,0.039,0.02L4.465,10.146z"
				/>
			<path fill="#0F0D08" d="M4.467,10.143c0.012,0.007,0.024,0.015,0.036,0.022c-0.013-0.007-0.025-0.013-0.038-0.02
				C4.465,10.146,4.467,10.143,4.467,10.143z"/>
		</g>
	</g>
</g>
<g id="Layer_2">
	<polygon fill="#497543" points="-1.812,-1.562 -2.188,12.438 18.938,-1.75 	"/>
	<polygon fill="#5D8293" points="22.438,22.438 22.688,7.062 -1.188,22.75 	"/>
	<polygon fill="#3D3D3D" points="22.75,-2.312 -2.25,13.688 -2.812,18.25 -2,21.5 22.812,4.688 22.75,0.938 	"/>
	<polygon fill="#C4BF5B" points="19.375,-1.938 -2.188,12.312 -2.375,14.375 22.75,-2.312 	"/>
	<polygon fill="#C4BF5B" points="22.75,4.812 -2.5,21.688 -2.688,23.75 22.688,6.875 	"/>
</g>
</svg>
