<?xml version="1.0" encoding="utf-8"?>
<!-- Generator: Adobe Illustrator 17.0.2, SVG Export Plug-In . SVG Version: 6.00 Build 0)  -->
<!DOCTYPE svg PUBLIC "-//W3C//DTD SVG 1.1//EN" "http://www.w3.org/Graphics/SVG/1.1/DTD/svg11.dtd">
<svg version="1.1" id="Layer_1" xmlns="http://www.w3.org/2000/svg" xmlns:xlink="http://www.w3.org/1999/xlink" x="0px" y="0px"
	 width="20px" height="20px" viewBox="0 0 20 20" enable-background="new 0 0 20 20" xml:space="preserve">
<g id="Layer_1_1_">
</g>
<g id="Layer_1_2_">
</g>
<rect x="-2.625" y="10.125" fill="#3E773E" width="24.625" height="10.375"/>
<g>
	<path fill="#873A47" d="M16.791,4.602c-0.492,0.615-1.053,1.17-1.623,1.711c0.257,0.071,0.526,0.033,0.785,0.001
		c-0.099,0.205-0.104,0.459-0.361,0.349c-0.362-0.156-0.796-0.188-1.139,0.042c-0.314,0.211-0.397,0.639-0.13,0.927
		c0.286,0.309,0.782,0.276,1.142,0.143C15.323,8.27,14.517,8.158,14.14,8.12c-0.32-0.032-0.626-0.165-0.951-0.149
		c-0.109,0.005-0.548,0.088-0.622-0.015c0.158-0.451,0.778-0.51,1.179-0.445c-0.935-0.653,0.38-1.69,0.973-1.899
		c-0.548-0.178-0.525-0.576-0.167-0.924c0.053-0.051,0.704-0.625,0.695-0.641c-0.053-0.09-1.362,0.518-1.488,0.571
		c-0.235,0.099-0.487,0.229-0.744,0.253c-0.626,0.057-0.355-0.801-0.18-1.104c-0.211-0.147-1.145,0.629-1.315,0.748
		c-0.644,0.448-1.402,0.823-1.911,1.431C9.261,6.363,9.633,7.446,8.994,7.574C8.738,7.625,8.48,7.721,8.217,7.726
		C8.065,7.729,8.063,7.267,8.476,7.373c0.004-0.021-0.01-0.051-0.032-0.085C8.442,7.296,8.445,7.305,8.439,7.313
		C8.403,7.358,8.324,7.329,8.244,7.317c0.128,0,0.181-0.018,0.183-0.054C8.398,7.224,8.362,7.179,8.32,7.132
		C8.304,7.119,8.288,7.105,8.27,7.091c0.013,0.008,0.024,0.016,0.036,0.024C8.131,6.919,7.916,6.689,8.15,6.646
		C7.87,6.64,8.184,6.612,8.226,6.62C8.27,6.628,8.347,6.673,8.419,6.705C8.413,6.703,8.405,6.7,8.4,6.698
		C8.446,6.72,8.5,6.753,8.537,6.755C8.512,6.744,8.489,6.734,8.462,6.723C8.515,6.743,8.559,6.75,8.576,6.72
		C8.569,6.742,8.557,6.756,8.537,6.755c0.04,0.017,0.074,0.032,0.074,0.033c0.006-0.293-0.255-0.337-0.413-0.525
		C8.137,6.191,8.117,6.136,8.125,6.096C8.121,6.127,8.114,6.158,8.121,6.188c-0.002-0.004-0.024-0.101,0,0
		C8.085,6.091,8.08,5.933,8.221,5.936C8.157,5.964,8.133,6.027,8.125,6.093c0.025-0.12,0.298-0.106,0.426-0.047
		C8.825,6.171,8.508,5.654,8.387,5.61C8.059,5.49,8.523,5.415,8.645,5.427C8.56,5.093,8.084,5.148,8.037,4.753
		C8.034,4.728,8.041,4.709,8.047,4.689C8.033,4.717,8.02,4.746,8.007,4.778c-0.021-0.159,0.137-0.261,0.25-0.335
		c-0.078,0.051-0.127,0.106-0.168,0.17c0.135-0.141,0.497-0.157,0.495-0.338C8.227,4.234,8.73,3.693,8.316,3.881
		C7.892,4.075,7.46,4.286,6.994,4.275C6.715,4.269,6.417,4.183,6.146,4.28C5.945,4.352,5.943,4.556,5.728,4.582
		C5.22,4.645,4.744,4.634,4.399,5.094c0.269-0.002,0.534-0.093,0.803-0.053C5.465,5.08,5.549,5.29,5.747,5.431
		c-0.446,0.038-0.895,0.05-1.342,0.007c0.101-0.05,0.202-0.101,0.303-0.151c-0.451-0.094-0.914-0.2-1.28-0.497
		C3.5,5.139,3.84,5.541,4.098,5.761c0.209,0.232,0.491,0.395,0.267-0.01c0.445,0,1.202-0.203,1.294,0.36
		C5.676,6.216,5.676,6.472,5.78,6.538c0.1,0.063,0.196-0.364,0.219-0.424c0.033,0.07,0.071,0.137,0.115,0.2
		C6.232,6.241,6.412,5.66,6.618,5.86c0.124,0.12-0.119,0.487-0.203,0.627C6.111,6.991,5.817,7.692,5.762,8.238
		C5.738,8.296,5.726,8.419,5.703,8.382C5.701,8.41,5.702,8.438,5.706,8.466c0.026,0.076,0.186,0.317,0.087,0.459
		c-0.15,0.218-0.302,0.08-0.518,0.056c-0.17-0.018-0.39-0.338-0.492-0.464C4.618,8.314,4.568,8.159,4.488,7.906
		C4.52,8.052,4.361,7.662,4.327,7.604c-0.11-0.187-0.121-0.341-0.068-0.553c-0.05,0.327,0.136,0.556,0.229,0.854
		c-0.03-0.14-0.068-0.299-0.053-0.444c0.012-0.114,0.162-0.167,0.224-0.254C4.785,7.033,4.864,6.584,4.61,6.489
		c0,0.24-0.144,0.32-0.281,0.488C4.274,6.85,4.376,6.734,4.349,6.603C4.348,6.657,4.299,6.53,4.253,6.51
		C4.318,6.505,4.35,6.536,4.349,6.603C4.355,6.329,4.06,6.096,3.798,6.127C4.189,6.365,3.925,6.79,3.956,7.144
		C3.816,6.994,3.595,6.306,3.232,6.486c0.074-0.037,0.274,0.832,0.374,0.912c0.267,0.215,0.129,0.817-0.033,1.075
		C3.528,8.526,3.29,8.705,3.326,8.765C3.444,8.968,3.21,9.081,3.036,9.108C3.02,9.3,3.46,9.096,3.523,9.066
		c0.146-0.071,0.185-0.213,0.226-0.347c0.036-0.071,0.07-0.142,0.102-0.214C3.874,8.479,3.9,8.456,3.934,8.44
		c0.322,1.001,1.354,1.466,1.475,2.579c0.182-0.153,0.202-0.443,0.357-0.62c0.1-0.114,0.4-0.119,0.537-0.135
		c0.226-0.026,0.362,0.053,0.198,0.265c-0.114,0.148-0.09,0.305-0.191,0.435c-0.256,0.328-0.307,0.917-0.894,0.803
		c-0.234-0.045-1.137-0.548-1.161,0.003c0.215-0.152,0.486,0.14,0.173,0.215c-0.21-0.028-0.397,0.077-0.424,0.288
		c0.152-0.136,0.744-0.119,0.494,0.133c0.043-0.03,0.086-0.03,0.13,0.001c-0.113,0.02-0.273,0.137-0.306,0.251
		c0.01-0.029,0.02-0.057,0.03-0.086c-0.051,0.061-0.079,0.13-0.084,0.209c0.17-0.183,0.289-0.175,0.514-0.143
		c0.292,0.042,0.45-0.157,0.707-0.23c0.123-0.034,0.23,0.033,0.35,0.009c0.115-0.022,0.198-0.112,0.319-0.116
		c0.119-0.003,0.185,0.07,0.274,0.132c0.093,0.065,0.286,0.061,0.316,0.067c0.065,0,0.072,0.001,0.019,0.003
		c0.041,0.005,0.105-0.01,0.143-0.025c0.214-0.052,0.25,0.033,0.434,0.08c0.007-0.138-0.125-0.27-0.247-0.316
		c0.009,0.005-0.112,0.007-0.117,0.124c-0.01-0.072,0.033-0.156,0.117-0.124c-0.178-0.096-0.375-0.144-0.568-0.199
		c-0.174-0.049,0.025-0.321,0.085-0.423c0.241-0.409,0.626-0.701,0.934-1.056c0.034,0.257,0.188,0.473,0.278,0.711
		c0.138-0.079,0.187-0.325,0.221-0.465c0.037-0.156,0.188-0.245,0.33-0.312c0.03-0.014,0.061-0.019,0.093-0.025
		c-0.011-0.008-0.026-0.008-0.034-0.021c-0.015-0.022,0.051-0.239,0.054-0.254c-0.023,0.138-0.023,0.228,0.021,0.265
		c0.055-0.006,0.113-0.009,0.172-0.014c0.036-0.013,0.067-0.021,0.114-0.046c-0.017,0.01-0.043,0.025-0.073,0.04
		c0.069-0.01,0.139-0.026,0.21-0.074c0.083-0.056,0.184-0.186,0.292-0.189c0.098-0.003,0.216,0.051,0.311,0.01
		c-0.137,0.265,0.177,0.452,0.349,0.591c0.108,0.088,0.171,0.21,0.32,0.235c0.08,0.008,0.159,0.015,0.239,0.02
		c0.142,0.019,0.18,0.123,0.304,0.168c-0.098,0.061-0.084,0.157-0.162,0.228c-0.063,0.057-0.203,0.135-0.278,0.183
		c-0.17,0.111-0.572,0.159-0.755,0.046c-0.221-0.137-0.373-0.414-0.662-0.387c-0.179,0.017-0.489,0.072-0.46,0.318
		c0.25-0.173,0.232-0.02,0.445,0.081c0.085,0.04,0.464,0.17,0.476,0.273c-0.001-0.005-1.361-0.417-1.194,0.254
		c0.192-0.158,0.39-0.098,0.536,0.077c-0.174,0.058-0.206,0.233-0.146,0.388c0.103-0.207,0.276-0.116,0.442-0.174
		c-0.035,0.006,0.136-0.047,0,0c0.223-0.035,0.413-0.165,0.648-0.189c0.194-0.02,0.398-0.015,0.593-0.019
		c0.224-0.005,0.368,0.145,0.563,0.231c0.242,0.106,0.447-0.11,0.662,0.109c0.044-0.449-0.586-0.404-0.865-0.501
		c0.134-0.174,0.595-0.238,0.787-0.37c0.162-0.112,0.651-0.77,0.787-0.747c0.049,0.008,0.542,0.176,0.543,0.151
		c0.01-0.432-0.358-0.485-0.68-0.597c-0.263-0.091-0.66-0.237-0.512-0.587c0.146-0.343,0.422-0.416,0.709-0.199
		c0.075,0.223,0.79,0.31,0.977,0.28c0.175-0.029,0.269,0.083,0.438,0.105c0.221,0.029,0.494-0.012,0.682,0.137
		c-0.02-0.058-0.013-0.114,0.019-0.167c-0.058,0.153,0.021,0.172,0.061,0.286c0.07,0.197,0.076,0.456,0.057,0.645
		c-0.007,0.069-0.022,0.15-0.044,0.234c0.077-0.061,0.231,0.001,0.323-0.047c-0.09,0.047-0.248,0.013-0.326,0.063
		c-0.012,0.043-0.026,0.085-0.042,0.127c0.005,0.05,0.021,0.096,0.052,0.136c-0.04-0.034-0.057-0.08-0.052-0.134
		c-0.098,0.255-0.281,0.481-0.599,0.391c-0.271-0.076-0.397-0.39-0.664-0.466c-0.146-0.042-0.532,0.139-0.487,0.325
		c0.124-0.013,0.155-0.111,0.291-0.06c0.087,0.032,0.107,0.143,0.203,0.18c-0.25,0.031-0.703,0.147-0.629,0.49
		c0.051-0.005,0.199-0.168,0.184-0.166c0.075-0.018,0.088-0.014,0.173-0.044c-0.184,0.122,0.545,0.076,0.631,0.099
		c-0.25,0.091-0.667,0.226-0.648,0.562c0.202-0.108,0.48-0.225,0.725-0.311c0.11-0.082,0.224-0.127,0.364-0.091
		c-0.12-0.015-0.228,0.025-0.33,0.08c0.053-0.018,0.107-0.037,0.155-0.051c0.148-0.044,0.271,0.047,0.41,0.075
		c0.185,0.038,0.339-0.061,0.512-0.101c0.265-0.05,0.417,0.178,0.628,0.183c0.085,0.002,0.422,0.104,0.463,0.083
		c0.133-0.068-0.164-0.272-0.198-0.296c0.017,0.014,0.027,0.038,0.042,0.056c-0.066-0.074-0.148-0.127-0.204-0.045
		c0.01-0.076,0.117-0.046,0.156-0.015c-0.164-0.118-0.409-0.174-0.546-0.325c-0.132-0.146,0.072-0.373,0.105-0.533
		c0.086-0.412,0.164-1.047-0.04-1.433c0.169,0.08,0.285,0.257,0.48,0.285c0.227,0.033,0.182-0.108,0.071-0.229
		c-0.387-0.423-0.995-0.653-1.488-0.922c0.678-0.102,1.406-0.322,1.848-0.88c0.224-0.282,0.325-0.649,0.218-1
		c-0.071-0.233-0.05-0.777,0.172-0.928c0.136,0.184,0.356,0.482,0.615,0.475C16.623,6.164,16.717,5.322,16.791,4.602z"/>
</g>
</svg>
