<?xml version="1.0" encoding="utf-8"?>
<!-- Generator: Adobe Illustrator 17.0.2, SVG Export Plug-In . SVG Version: 6.00 Build 0)  -->
<!DOCTYPE svg PUBLIC "-//W3C//DTD SVG 1.1//EN" "http://www.w3.org/Graphics/SVG/1.1/DTD/svg11.dtd">
<svg version="1.1" xmlns="http://www.w3.org/2000/svg" xmlns:xlink="http://www.w3.org/1999/xlink" x="0px" y="0px" width="20px"
	 height="20px" viewBox="0 0 20 20" enable-background="new 0 0 20 20" xml:space="preserve">
<g id="Layer_2">
	<g>
		<path fill="#8E8E8E" d="M-1.77,11.734c0-1.322,0-2.645,0-3.967C-1.719,7.775-1.668,7.79-1.617,7.79
			c3.325,0.001,6.65,0.002,9.975-0.001c0.097,0,0.194-0.035,0.291-0.055c0-2.67,0-5.286,0-7.901c0.772,0,1.544,0,2.315,0
			c0,2.635,0,5.269,0,7.984c3.488,0,6.938,0,10.385,0c0,1.329,0,2.578,0,3.906c-3.47,0-6.92,0-10.404,0c0,2.671,0,5.261,0,7.882
			c-0.772,0-1.509,0-2.294,0c0-2.644,0-5.25,0-7.896c-1.075,0-2.102-0.002-3.13,0C3.09,11.717,0.66,11.726-1.77,11.734z"/>
		<path fill="#007681" d="M1.026,19.519c0.007,0.032,0.015,0.065,0.022,0.097c2.259,0,4.519,0,6.79,0c0-1.972,0-3.911,0-5.932
			C5.539,15.652,3.283,17.585,1.026,19.519z M18.571,19.617c0.006-0.032,0.013-0.064,0.019-0.097
			c-2.263-1.938-4.526-3.876-6.814-5.835c0,2.043,0,3.987,0,5.932C14.061,19.617,16.316,19.617,18.571,19.617z M7.5,13.139
			c-1.176-0.214-1.449-0.132-2.409,0.69c-2.112,1.81-4.225,3.62-6.337,5.43c-0.109,0.093-0.214,0.197-0.361,0.333
			c0.904,0.147,1.694,0.008,2.488-0.715C2.943,17,5.05,15.266,7.139,13.474C7.247,13.381,7.352,13.277,7.5,13.139z M21.338,6.398
			c0-1.445,0-2.831,0-4.28c-1.655,1.419-3.267,2.801-4.88,4.183c0.007,0.032,0.014,0.065,0.02,0.097
			C18.091,6.398,19.704,6.398,21.338,6.398z M21.354,13.114c-1.645,0-3.261,0-4.878,0c-0.005,0.03-0.01,0.061-0.015,0.091
			c1.619,1.386,3.237,2.773,4.893,4.191C21.354,15.926,21.354,14.552,21.354,13.114z M13.796,13.133
			c2.564,2.195,5.047,4.321,7.549,6.463c0.06-1.353,0.06-1.353-0.564-1.887c-1.48-1.268-2.982-2.463-4.429-3.832
			C15.553,13.119,14.748,12.976,13.796,13.133z"/>
		<path fill="#007681" d="M7.877-0.167c0,1.955,0,3.909,0,5.922C7.777,5.709,7.703,5.698,7.642,5.646
			c-2.189-1.87-4.376-3.743-6.563-5.619C1.024-0.02,0.98-0.101,0.931-0.167C3.246-0.167,5.562-0.167,7.877-0.167z"/>
		<path fill="#007681" d="M18.682-0.167c-0.072,0.084-0.14,0.184-0.217,0.25c-2.14,1.839-4.282,3.675-6.423,5.51
			c-0.077,0.066-0.159,0.117-0.306,0.224c0-2.054,0-4.019,0-5.985C14.051-0.167,16.367-0.167,18.682-0.167z"/>
		<path fill="#8E8E8E" d="M21.306-0.167c-2.513,2.161-5.012,4.369-7.55,6.438c-0.445,0.363-1.051,0.145-1.601,0.06
			c0.094-0.092,0.185-0.191,0.281-0.273c2.262-1.94,4.525-3.876,6.786-5.818c0.135-0.116,0.258-0.27,0.386-0.407
			C20.174-0.167,20.74-0.167,21.306-0.167z"/>
		<path fill="#007681" d="M-1.77,2.081c1.642,1.406,3.284,2.812,4.926,4.218C3.149,6.348,3.142,6.396,3.135,6.445
			c-1.635,0-3.27,0-4.905,0C-1.77,4.99-1.77,3.536-1.77,2.081z"/>
		<path fill="#007681" d="M-1.77,13.057c1.635,0,3.27,0,4.905,0c0.007,0.049,0.014,0.097,0.021,0.146
			c-1.642,1.406-3.284,2.812-4.926,4.218C-1.77,15.966-1.77,14.511-1.77,13.057z"/>
		<path fill="#8E8E8E" d="M-1.693-0.167c0.124,0.14,0.241,0.304,0.373,0.418c2.261,1.943,4.524,3.88,6.787,5.819
			c0.091,0.078,0.181,0.161,0.265,0.301C5.039,6.326,4.359,6.589,3.669,5.964C1.876,4.34,0.045,2.838-1.77,1.288
			C-1.744,0.803-1.719,0.318-1.693-0.167z"/>
		<path fill="#007681" d="M1.026,19.519c2.257-1.933,4.513-3.866,6.812-5.835c0,2.021,0,3.96,0,5.932c-2.271,0-4.53,0-6.79,0
			C1.041,19.583,1.033,19.551,1.026,19.519z"/>
		<path fill="#007681" d="M18.571,19.617c-2.255,0-4.51,0-6.795,0c0-1.945,0-3.889,0-5.932c2.288,1.959,4.551,3.897,6.814,5.835
			C18.584,19.553,18.578,19.585,18.571,19.617z"/>
		<path fill="#8E8E8E" d="M7.5,13.139c-0.148,0.137-0.253,0.242-0.361,0.335C5.05,15.266,2.943,17,0.881,18.878
			c-0.795,0.724-1.584,0.862-2.488,0.715c0.147-0.136,0.252-0.24,0.361-0.333c2.112-1.811,4.225-3.62,6.337-5.43
			C6.051,13.007,6.323,12.925,7.5,13.139z"/>
		<path fill="#007681" d="M21.338,6.398c-1.633,0-3.246,0-4.859,0c-0.007-0.032-0.014-0.065-0.02-0.097
			c1.612-1.382,3.224-2.764,4.88-4.183C21.338,3.567,21.338,4.953,21.338,6.398z"/>
		<path fill="#007681" d="M21.354,13.114c0,1.439,0,2.812,0,4.282c-1.656-1.418-3.275-2.805-4.893-4.191
			c0.005-0.03,0.01-0.061,0.015-0.091C18.093,13.114,19.71,13.114,21.354,13.114z"/>
		<path fill="#8E8E8E" d="M13.796,13.133c0.952-0.157,1.756-0.014,2.556,0.744c1.447,1.369,2.95,2.565,4.429,3.832
			c0.624,0.535,0.624,0.534,0.564,1.887C18.844,17.454,16.361,15.328,13.796,13.133z"/>
	</g>
</g>
<g id="Layer_1">
</g>
</svg>
