<?xml version="1.0" encoding="utf-8"?>
<!-- Generator: Adobe Illustrator 17.0.2, SVG Export Plug-In . SVG Version: 6.00 Build 0)  -->
<!DOCTYPE svg PUBLIC "-//W3C//DTD SVG 1.1//EN" "http://www.w3.org/Graphics/SVG/1.1/DTD/svg11.dtd">
<svg version="1.1" id="Layer_1" xmlns="http://www.w3.org/2000/svg" xmlns:xlink="http://www.w3.org/1999/xlink" x="0px" y="0px"
	 width="20px" height="20px" viewBox="0 0 20 20" enable-background="new 0 0 20 20" xml:space="preserve">
<rect x="-1.25" y="-1.25" fill="#BDC1C1" width="22.5" height="22.333"/>
<g id="Layer_1_1_">
</g>
<g id="Layer_1_2_">
</g>
<g>
	<path fill="#637575" d="M5.713,7.522V5.969h3.175v5.187H9.89v1.553H5.713v-1.553h1.023V7.522H5.713z M6.659,4.037
		c0-0.324,0.115-0.602,0.345-0.833c0.23-0.231,0.507-0.347,0.832-0.347c0.33,0,0.608,0.116,0.835,0.347
		c0.227,0.231,0.341,0.509,0.341,0.833s-0.115,0.6-0.345,0.83C8.438,5.096,8.161,5.21,7.836,5.21c-0.32,0-0.596-0.115-0.828-0.347
		S6.659,4.356,6.659,4.037z"/>
</g>
</svg>
