<?xml version="1.0" encoding="utf-8"?>
<!-- Generator: Adobe Illustrator 17.0.2, SVG Export Plug-In . SVG Version: 6.00 Build 0)  -->
<!DOCTYPE svg PUBLIC "-//W3C//DTD SVG 1.1//EN" "http://www.w3.org/Graphics/SVG/1.1/DTD/svg11.dtd">
<svg version="1.1" id="Layer_1" xmlns="http://www.w3.org/2000/svg" xmlns:xlink="http://www.w3.org/1999/xlink" x="0px" y="0px"
	 width="20px" height="20px" viewBox="0 0 20 20" enable-background="new 0 0 20 20" xml:space="preserve">
<path fill="none" stroke="#007681" stroke-width="1.257" stroke-miterlimit="10" d="M7.79,11.102l0.744,0.728
	c0.1,0.098,0.119,0.237,0.043,0.312l-5.381,5.262c-0.076,0.074-0.219,0.058-0.316-0.04l-2.79-2.73
	c-0.1-0.098-0.119-0.235-0.043-0.309l5.381-5.264c0.076-0.074,0.219-0.056,0.316,0.04l0.72,0.705"/>
<path fill="none" stroke="#007681" stroke-width="1.257" stroke-miterlimit="10" d="M8.993,7.301L8.296,6.62
	c-0.1-0.098-0.119-0.237-0.04-0.312l5.381-5.264c0.074-0.072,0.216-0.053,0.316,0.042l2.79,2.73c0.097,0.098,0.116,0.237,0.04,0.312
	l-5.38,5.261c-0.076,0.074-0.216,0.058-0.316-0.04l-0.775-0.758"/>
<line fill="none" stroke="#007681" stroke-width="1.257" stroke-linecap="round" stroke-miterlimit="10" x1="5.705" y1="11.837" x2="11.336" y2="6.327"/>
</svg>
